<ttFont>
          <CharString index="0">
            rmoveto
            208 122 159 194 41 hvcurveto
            77 362 -85 callsubr
            -77 -8 callgsubr
            -116 -25 -63 -115 -121 hhcurveto
            -88 -31 62 80 28 3 30 7 31 hvcurveto
            77 362 -85 callsubr
            -77 -8 callgsubr
            -9 -40 -4 -37 -36 vvcurveto
            -135 64 -105 170 vhcurveto
            return
          </CharString>
          <CharString index="1">
            -82 callsubr
            hintmask 01111000
            -38 28 -19 46 14 -52 callgsubr
            50 callgsubr
            -17 1 -7 6 15 -56 callgsubr
            1 7 vhcurveto
            79 370 -88 callsubr
            -69 -325 rlineto
            hintmask 10111000
            -104 callgsubr
            return
          </CharString>
          <CharString index="2">
            -121 70 -94 116 vhcurveto
            60 114 rmoveto
            -65 -40 53 69 96 78 97 86 50 44 -44 -58 8 hvcurveto
            -26 -125 rlineto
            -51 -29 -60 -37 -46 hhcurveto
            return
          </CharString>
          <CharString index="3">
            230 -10 -107 callgsubr
            return
          </CharString>
          <CharString index="4">
            -53 hmoveto
            142 hlineto
            96 177 rlineto
            229 hlineto
            22 -177 rlineto
            142 hlineto
            -103 710 -39 callgsubr
            -124 -436 rmoveto
            152 279 31 -279 rlineto
            return
          </CharString>
          <CharString index="5">
            295 -5 -107 callsubr
            return
          </CharString>
          <CharString index="6">
            rmoveto
            94 63 67 -63 77 32 -80 101 rlineto
            -97 hlineto
            -123 -101 rlineto
            return
          </CharString>
          <CharString index="7">
            rmoveto
            142 100 80 114 0 callgsubr
            hvcurveto
            0 callsubr
            47 39 22 47 45 43 -18 -40 43 vhcurveto
            71 81 rlineto
            50 -46 -61 22 -74 hhcurveto
            -127 -110 -81 -117 -62 45 -27 106 -32 hvcurveto
            63 -19 28 -13 -29 vvcurveto
            -42 -34 -26 -56 -56 -53 24 45 -50 vhcurveto
            -67 -84 rlineto
            -52 45 81 -29 83 hhcurveto
            return
          </CharString>
          <CharString index="8">
            63 32 66 46 49 hhcurveto
            35 22 -22 -46 -15 -3 -18 -4 -20 -13 callsubr
            69 327 rlineto
            6 29 4 29 27 vvcurveto
            68 -27 53 -90 -86 -82 -40 -66 -51 vhcurveto
            return
          </CharString>
          <CharString index="9">
            -50 callgsubr
            -104 callsubr
            return
          </CharString>
          <CharString index="10">
            -8 -1 -10 -1 -10 vhcurveto
            71 hlineto
            2 10 1 10 10 vvcurveto
            58 -38 46 -65 -73 -66 -57 -77 -16 vhcurveto
            return
          </CharString>
          <CharString index="11">
            126 -61 callsubr
            -27 -126 rlineto
            return
          </CharString>
          <CharString index="12">
            115 hlineto
            178 298 51 -298 rlineto
            115 hlineto
            424 710 45 callgsubr
            -302 -552 -33 227 183 323 rlineto
            -128 hlineto
            -123 -235 -24 235 rlineto
            -127 hlineto
            44 -323 -128 -227 -68 552 rlineto
            -149 hlineto
            return
          </CharString>
          <CharString index="13">
            -69 callsubr
            -332 hlineto
            39 185 rlineto
            279 hlineto
            -12 callgsubr
            -279 hlineto
            return
          </CharString>
          <CharString index="14">
            50 238 rlineto
            123 hlineto
            84 -238 rlineto
            156 hlineto
            -96 267 rlineto
            96 40 72 104 103 vvcurveto
            100 -64 96 -107 vhcurveto
            -300 hlineto
            -151 -710 rlineto
            213 359 rmoveto
            -67 callsubr
            return
          </CharString>
          <CharString index="15">
            -213 rmoveto
            56 72 19 94 rlineto
            -112 hlineto
            -21 -94 rlineto
            40 hlineto
            -43 -72 rlineto
            return
          </CharString>
          <CharString index="16">
            1 callsubr
            -102 callsubr
            return
          </CharString>
          <CharString index="17">
            rmoveto
            90 52 109 19 4 hvcurveto
            -73 hlineto
            -4 -1 -15 -46 -45 hhcurveto
            return
          </CharString>
          <CharString index="18">
            rmoveto
            -39 31 -23 49 66 47 35 57 39 -30 23 -50 -65 -48 -34 -58 vhcurveto
            104 51 rmoveto
            19 13 -12 -18 -24 -24 -18 -23 -19 -12 13 17 24 21 18 25 hvcurveto
            return
          </CharString>
          <CharString index="19">
            rlineto
            -134 hlineto
            return
          </CharString>
          <CharString index="20">
            416 hlineto
            20 94 rlineto
            -272 hlineto
            341 348 18 82 rlineto
            -400 hlineto
            -20 -94 rlineto
            256 hlineto
            -342 -348 rlineto
            return
          </CharString>
          <CharString index="21">
            -12 callsubr
            96 455 241 -455 rlineto
            111 -83 callgsubr
            -99 -465 return
          </CharString>
          <CharString index="22">
            rlineto
            -137 hlineto
            return
          </CharString>
          <CharString index="23">
            201 -10 -3 callsubr
            -17 -2 -12 -9 vvcurveto
            return
          </CharString>
          <CharString index="24">
            -20 -91 callsubr
            return
          </CharString>
          <CharString index="25">
            rmoveto
            84 79 36 72 60 hvcurveto
            -6 -26 -1 -12 -10 vvcurveto
            return
          </CharString>
          <CharString index="26">
            -58 callsubr
            67 317 39 59 72 31 76 1 rlinecurve
            25 119 rlineto
            1 -5 -6 1 -13 hhcurveto
            -62 -66 -46 -71 -51 hvcurveto
            return
          </CharString>
          <CharString index="27">
            -54 -22 -50 -34 -63 vvcurveto
            -64 60 -48 85 vhcurveto
            18 79 rmoveto
            -41 -40 19 32 38 53 27 51 42 38 -20 -31 -39 -54 -26 -49 hvcurveto
            37 181 rmoveto
            return
          </CharString>
          <CharString index="28">
            rmoveto
            225 59 144 216 46 hvcurveto
            77 360 19 callsubr
            -77 -360 rlineto
            -160 -34 -29 -78 -103 hhcurveto
            -54 -42 21 13 -13 hvcurveto
            -54 -112 rlineto
            -29 34 45 -15 58 hhcurveto
            return
          </CharString>
          <CharString index="29">
            -104 callgsubr
            endchar
          </CharString>
          <CharString index="30">
            -49 0 121 185 112 171 121 return
          </CharString>
          <CharString index="31">
            535 -74 callgsubr
            -362 hlineto
            463 485 22 104 rlineto
            -521 hlineto
            return
          </CharString>
          <CharString index="32">
            50 10 25 24 38 hhcurveto
            29 13 -15 -31 hvcurveto
            return
          </CharString>
          <CharString index="33">
            227 -10 rmoveto
            -105 callgsubr
            return
          </CharString>
          <CharString index="34">
            rlineto
            4 16 36 8 26 hhcurveto
            27 17 -7 -20 -28 -25 -11 -36 -34 -34 10 9 -13 hvcurveto
            return
          </CharString>
          <CharString index="35">
            hmoveto
            -71 callsubr
            return
          </CharString>
          <CharString index="36">
            -76 callsubr
            -25 -121 rlineto
            361 hlineto
            -476 -485 rlineto
            return
          </CharString>
          <CharString index="37">
            rmoveto
            63 97 31 77 62 hvcurveto
            -65 31 66 -43 95 hhcurveto
            111 98 57 80 53 hvcurveto
            -107 32 rlineto
            -43 -25 -56 -28 -49 hhcurveto
            -54 -49 32 77 7 0 7 1 8 hvcurveto
            384 hlineto
            7 16 12 28 51 vvcurveto
            121 -72 98 -139 -74 -67 -29 -45 -52 vhcurveto
            47 -27 -53 27 -77 hhcurveto
            -75 -74 -22 -45 -75 hvcurveto
            22 -85 rlineto
            39 62 54 20 52 hhcurveto
            60 30 -28 -41 -23 -11 -18 -7 -25 hvcurveto
            return
          </CharString>
          <CharString index="38">
            hlineto
            26 121 rlineto
            return
          </CharString>
          <CharString index="39">
            114 hlineto
            78 365 rlineto
            -249 hlineto
            -22 -101 20 callsubr
            -11 -50 rlineto
            return
          </CharString>
          <CharString index="40">
            49 230 rlineto
            154 hlineto
            36 28 -38 -51 -74 -54 -67 -54 hvcurveto
            return
          </CharString>
          <CharString index="41">
            -49 callgsubr
            426 114 return
          </CharString>
          <CharString index="42">
            -33 callsubr
            125 589 -85 callsubr
            return
          </CharString>
          <CharString index="43">
            rmoveto
            18 83 rlineto
            -286 hlineto
            -18 -83 rlineto
            return
          </CharString>
          <CharString index="44">
            69 13 43 37 55 vvcurveto
            57 -57 43 -84 -64 -69 -21 33 callsubr
            29 30 38 20 50 hhcurveto
            33 36 -13 -27 -41 -57 -17 -83 37 callsubr
            return
          </CharString>
          <CharString index="45">
            111 524 -88 callsubr
            return
          </CharString>
          <CharString index="46">
            rlineto
            -120 hlineto
            return
          </CharString>
          <CharString index="47">
            -41 -10 -63 callgsubr
            9 callgsubr
            11 callsubr
            return
          </CharString>
          <CharString index="48">
            582 rmoveto
            -33 -25 -8 -10 31 callsubr
            79 rlineto
            -232 hlineto
            -25 -65 -54 -116 -29 -72 rrcurveto
            69 hlineto
            27 21 41 18 33 hhcurveto
            32 35 -19 -41 -54 -49 -28 -56 -47 -36 18 30 -18 hvcurveto
            -59 -53 rlineto
            -44 20 53 -28 66 hhcurveto
            113 95 71 95 66 -52 47 -79 hvcurveto
            return
          </CharString>
          <CharString index="49">
            134 hlineto
            return
          </CharString>
          <CharString index="50">
            -21 callsubr
            93 133 -27 callgsubr
            16 73 rmoveto
            -58 callsubr
            28 -25 callgsubr
            return
          </CharString>
          <CharString index="51">
            -76 -10 98 130 85 133 97 return
          </CharString>
          <CharString index="52">
            -43 -13 -31 -31 -28 hhcurveto
            endchar
          </CharString>
          <CharString index="53">
            -196 -45 callsubr
            return
          </CharString>
          <CharString index="54">
            -58 callsubr
            65 306 rlineto
            return
          </CharString>
          <CharString index="55">
            133 hlineto
            50 237 rlineto
            100 38 84 81 68 hhcurveto
            27 19 -14 -31 -57 -64 -56 -113 -23 hvcurveto
            102 -237 rlineto
            142 hlineto
            -98 205 rlineto
            98 48 53 78 86 vvcurveto
            71 -36 43 -73 -86 -72 -57 -84 -56 vhcurveto
            72 340 rlineto
            -133 hlineto
            endchar
          </CharString>
          <CharString index="56">
            rlineto
            59 -19 -53 42 -72 hhcurveto
            -152 -135 -155 -173 hvcurveto
            return
          </CharString>
          <CharString index="57">
            hstem
            37 140 397 140 vstem
            return
          </CharString>
          <CharString index="58">
            -16 -223 101 119 107 17 callsubr
            return
          </CharString>
          <CharString index="59">
            -15 callgsubr
            0 232 return
          </CharString>
          <CharString index="60">
            585 rmoveto
            119 145 -39 callgsubr
            -77 -28 callgsubr
            return
          </CharString>
          <CharString index="61">
            -45 -28 -51 -27 -53 hhcurveto
            return
          </CharString>
          <CharString index="62">
            rmoveto
            27 -96 callsubr
            return
          </CharString>
          <CharString index="63">
            hstemhm
            22 143 0 196 return
          </CharString>
          <CharString index="64">
            -21 238 121 230 121 return
          </CharString>
          <CharString index="65">
            -21 303 120 287 -20 hstem
            10 hmoveto
            137 -30 callgsubr
            151 710 -85 callsubr
            -61 -287 rlineto
            -296 hlineto
            61 287 -85 callsubr
            return
          </CharString>
          <CharString index="66">
            rmoveto
            -25 -18 24 30 hvcurveto
            return
          </CharString>
          <CharString index="67">
            -97 callsubr
            endchar
          </CharString>
          <CharString index="68">
            -20 hstem
            -88 -36 callgsubr
            return
          </CharString>
          <CharString index="69">
            122 -96 -21 264 101 228 122 return
          </CharString>
          <CharString index="70">
            -3 callsubr
            -19 -2 -12 -10 vvcurveto
            return
          </CharString>
          <CharString index="71">
            81 49 -16 -34 -37 -51 -20 -57 -69 -29 39 18 -2 hvcurveto
            -55 -59 rlineto
            -51 8 53 -28 79 hhcurveto
            return
          </CharString>
          <CharString index="72">
            145 -10 -82 callsubr
            return
          </CharString>
          <CharString index="73">
            -40 callgsubr
            226 -20 hstem
            return
          </CharString>
          <CharString index="74">
            477 -74 callgsubr
            -339 hlineto
            return
          </CharString>
          <CharString index="75">
            92 -16 callsubr
            return
          </CharString>
          <CharString index="76">
            597 -91 callgsubr
            -191 -698 rmoveto
            416 hlineto
            20 94 rlineto
            -272 hlineto
            341 348 18 82 rlineto
            -400 hlineto
            return
          </CharString>
          <CharString index="77">
            -55 callgsubr
            226 -1 callgsubr
            hintmask 10110100
            return
          </CharString>
          <CharString index="78">
            -242 12 callsubr
            endchar
          </CharString>
          <CharString index="79">
            5 1 6 return
          </CharString>
          <CharString index="80">
            hlineto
            -64 -301 rlineto
            -3 -13 -1 -12 -12 vvcurveto
            return
          </CharString>
          <CharString index="81">
            21 97 -15 callsubr
            return
          </CharString>
          <CharString index="82">
            1 6 2 7 vhcurveto
            return
          </CharString>
          <CharString index="83">
            59 27 58 63 76 vvcurveto
            106 -97 58 -93 -114 -156 -82 -140 -46 23 -43 34 -19 vhcurveto
            hintmask 11110100
            -62 -32 -81 -67 -104 vvcurveto
            -109 85 -77 118 return
          </CharString>
          <CharString index="84">
            hstem
            16 146 -146 238 vstem
            return
          </CharString>
          <CharString index="85">
            8 callsubr
            436 -20 return
          </CharString>
          <CharString index="86">
            21 callgsubr
            -20 return
          </CharString>
          <CharString index="87">
            134 -60 60 hstemhm
            return
          </CharString>
          <CharString index="88">
            -21 415 118 return
          </CharString>
          <CharString index="89">
            rmoveto
            215 -177 23 110 -124 103 169 109 23 109 return
          </CharString>
          <CharString index="90">
            -249 21 15 callsubr
            return
          </CharString>
          <CharString index="91">
            -5 2 callgsubr
            return
          </CharString>
          <CharString index="92">
            rlineto
            -121 hlineto
            return
          </CharString>
          <CharString index="93">
            24 112 -39 callgsubr
            endchar
          </CharString>
          <CharString index="94">
            hvcurveto
            -62 -294 rlineto
            -58 callsubr
            return
          </CharString>
          <CharString index="95">
            137 hlineto
            return
          </CharString>
          <CharString index="96">
            hstem
            87 151 153 154 vstem
            return
          </CharString>
          <CharString index="97">
            21 -21 559 -20 hstem
            return
          </CharString>
          <CharString index="98">
            15 -17 callgsubr
            return
          </CharString>
          <CharString index="99">
            rlineto
            -117 hlineto
            -19 -91 rlineto
            hintmask 11101000
            60 -23 -51 40 -76 hhcurveto
            -153 -145 -150 -181 -119 62 -93 106 return
          </CharString>
          <CharString index="100">
            -43 callsubr
            hstem
            490 142 vstem
            return
          </CharString>
          <CharString index="101">
            -20 hstem
            181 730 rmoveto
            -61 -120 -29 -137 rlineto
            136 hlineto
            28 135 rlineto
            -39 hlineto
            47 122 rlineto
            return
          </CharString>
          <CharString index="102">
            -98 callgsubr
            endchar
          </CharString>
          <CharString index="103">
            3 callgsubr
            139 return
          </CharString>
          <CharString index="104">
            rmoveto
            69 74 35 66 50 hvcurveto
            -4 return
          </CharString>
          <CharString index="105">
            -39 -44 callgsubr
            return
          </CharString>
          <CharString index="106">
            82 -27 78 133 80 -59 83 return
          </CharString>
          <CharString index="107">
            -59 17 -24 11 28 vvcurveto
            return
          </CharString>
          <CharString index="108">
            hstem
            61 140 vstem
            return
          </CharString>
          <CharString index="109">
            hstemhm
            399 144 return
          </CharString>
          <CharString index="110">
            467 0 94 -83 -21 24 -21 437 94 9 -20 217 -20 -48 callsubr
            hintmask 10010110
            return
          </CharString>
          <CharString index="111">
            rmoveto
            -212 189 -23 -109 123 -109 -168 -103 -23 -110 289 177 rlineto
            endchar
          </CharString>
          <CharString index="112">
            162 -223 -70 callgsubr
            return
          </CharString>
          <CharString index="113">
            123 307 103 170 -20 hstem
            47 145 vstem
            return
          </CharString>
          <CharString index="114">
            298 rmoveto
            98 104 45 94 44 -29 37 -51 8 hvcurveto
            return
          </CharString>
          <CharString index="115">
            -21 177 97 return
          </CharString>
          <CharString index="116">
            501 rmoveto
            61 120 29 137 rlineto
            -136 hlineto
            -28 -135 rlineto
            39 hlineto
            -47 -122 rlineto
            return
          </CharString>
          <CharString index="117">
            292 214 rmoveto
            80 22 62 54 69 hhcurveto
            62 37 -43 -66 -9 0 -7 -1 -9 hvcurveto
            endchar
          </CharString>
          <CharString index="118">
            hstem
            -4 callsubr
            vstem
            return
          </CharString>
          <CharString index="119">
            466 rlineto
            -107 hlineto
            return
          </CharString>
          <CharString index="120">
            60 48 31 hvcurveto
            -6 -25 -1 -17 -6 vvcurveto
            hintmask 10110000
            -37 26 -20 48 15 20 3 4 26 vhcurveto
            return
          </CharString>
          <CharString index="121">
            -116 78 rmoveto
            168 153 -32 -153 rlineto
            return
          </CharString>
          <CharString index="122">
            -21 408 121 -5 -20 return
          </CharString>
          <CharString index="123">
            -58 callsubr
            83 394 rlineto
            return
          </CharString>
          <CharString index="124">
            315 114 -9 -20 return
          </CharString>
          <CharString index="125">
            -47 callgsubr
            hstem
            return
          </CharString>
          <CharString index="126">
            rlineto
            -138 hlineto
            return
          </CharString>
          <CharString index="127">
            rlineto
            135 hlineto
            return
          </CharString>
          <CharString index="128">
            499 224 hstem
            214 499 rmoveto
            47 224 rlineto
            -114 hlineto
            -47 -224 rlineto
            return
          </CharString>
          <CharString index="129">
            rmoveto
            98 104 43 95 44 -28 37 -52 8 hvcurveto
            return
          </CharString>
          <CharString index="130">
            98 -69 42 -107 29 return
          </CharString>
          <CharString index="131">
            rmoveto
            89 hlineto
            326 420 rlineto
            -349 hlineto
            -17 -79 rlineto
            226 hlineto
            endchar
          </CharString>
          <CharString index="132">
            -67 callsubr
            endchar
          </CharString>
          <CharString index="133">
            110 140 59 106 64 hvcurveto
            -34 callgsubr
            return
          </CharString>
          <CharString index="134">
            144 44 callsubr
            -31 -144 rlineto
            return
          </CharString>
          <CharString index="135">
            585 rmoveto
            120 145 45 callgsubr
            -3 -46 -47 -73 rlineto
            return
          </CharString>
          <CharString index="136">
            -135 -115 -84 49 -93 115 hvcurveto
            -81 187 rmoveto
            65 57 return
          </CharString>
          <CharString index="137">
            302 0 121 56 120 4 121 167 121 return
          </CharString>
          <CharString index="138">
            -16 hvcurveto
            41 87 rlineto
            174 hlineto
            17 return
          </CharString>
          <CharString index="139">
            -5 79 -60 -21 197 65 return
          </CharString>
          <CharString index="140">
            -38 -37 vhcurveto
            37 -64 rlineto
            return
          </CharString>
          <CharString index="141">
            -15 -10 114 -83 -21 419 114 9 callgsubr
            hstemhm
            return
          </CharString>
          <CharString index="142">
            12 18 34 hvcurveto
            -11 100 rlineto
            -11 -30 -21 -5 -23 hhcurveto
            return
          </CharString>
          <CharString index="143">
            17 4 19 hvcurveto
            64 299 -88 callsubr
            endchar
          </CharString>
          <CharString index="144">
            hvcurveto
            -22 hlineto
            -15 -73 rlineto
            23 hlineto
            return
          </CharString>
          <CharString index="145">
            rmoveto
            142 110 135 114 82 -48 96 return
          </CharString>
          <CharString index="146">
            -64 46 callgsubr
            return
          </CharString>
          <CharString index="147">
            rmoveto
            17 78 rlineto
            -198 hlineto
            7 31 31 30 65 return
          </CharString>
          <CharString index="148">
            57 54 40 55 43 32 -26 -41 -63 -62 -36 -48 return
          </CharString>
          <CharString index="149">
            -6 callgsubr
            68 -21 return
          </CharString>
          <CharString index="150">
            0 121 589 -20 return
          </CharString>
          <CharString index="151">
            rlineto
            -110 hlineto
            return
          </CharString>
          <CharString index="152">
            -20 21 -20 hstemhm
            return
          </CharString>
          <CharString index="153">
            -66 40 -78 hhcurveto
            -123 -117 -94 -117 return
          </CharString>
          <CharString index="154">
            48 15 26 25 vhcurveto
            -69 -16 -51 -40 -63 hhcurveto
            return
          </CharString>
          <CharString index="155">
            -156 0 94 336 94 return
          </CharString>
          <CharString index="156">
            43 callsubr
            hstem
            return
          </CharString>
          <CharString index="157">
            596 rmoveto
            71 hlineto
            return
          </CharString>
          <CharString index="158">
            496 rlineto
            -270 hlineto
            8 37 rlineto
            49 return
          </CharString>
          <CharString index="159">
            -10 98 131 83 -52 75 115 93 return
          </CharString>
          <CharString index="160">
            rmoveto
            -47 -36 29 36 43 55 37 59 48 return
          </CharString>
        <CharString name=".notdef">
          -627 endchar
        </CharString>
        <CharString name="A">
          -42 callgsubr
          hstem
          -103 callsubr
          endchar
        </CharString>
        <CharString name="A.sc">
          -54 21 -21 131 105 323 -20 hstem
          -55 hmoveto
          129 hlineto
          79 131 rlineto
          201 hlineto
          24 -131 rlineto
          127 hlineto
          -111 559 rlineto
          -99 hlineto
          -93 -323 rmoveto
          111 176 35 -176 rlineto
          endchar
        </CharString>
        <CharString name="AE">
          30 callsubr
          hstem
          -80 hmoveto
          -58 callgsubr
        </CharString>
        <CharString name="AEacute">
          30 callsubr
          206 -20 hstem
          733 916 -96 callgsubr
          -700 -780 rmoveto
          -58 callgsubr
        </CharString>
        <CharString name="Aacute">
          -42 callgsubr
          226 -20 hstem
          -103 callsubr
          147 642 -48 callgsubr
        </CharString>
        <CharString name="Abreve">
          -42 callgsubr
          92 -19 callgsubr
          315 73 hintmask 11110100
          -103 callsubr
          20 568 -41 callsubr
          hintmask 11101100
          -99 callgsubr
          hintmask 11110100
          -55 callsubr
        </CharString>
        <CharString name="Acircumflex">
          -42 callgsubr
          226 -20 hstem
          -103 callsubr
          -63 509 -61 callgsubr
        </CharString>
        <CharString name="Adblgrave">
          -42 callgsubr
          228 -20 hstem
          -103 callsubr
          71 507 -93 callgsubr
          endchar
        </CharString>
        <CharString name="Adieresis">
          -42 callgsubr
          101 119 hstem
          -103 callsubr
          -28 517 -102 callgsubr
          endchar
        </CharString>
        <CharString name="Agrave">
          -42 callgsubr
          227 -20 hstem
          -103 callsubr
          -32 506 -79 callgsubr
        </CharString>
        <CharString name="Ainvertedbreve">
          -42 callgsubr
          92 -20 callsubr
          487 72 hintmask 11110100
          -103 callsubr
          -110 508 rmoveto
          71 hlineto
          hintmask 11101100
          -75 callsubr
          hintmask 11110100
          -40 callsubr
        </CharString>
        <CharString name="Amacron">
          -42 callgsubr
          128 83 hstem
          -103 callsubr
          164 544 -64 callsubr
          endchar
        </CharString>
        <CharString name="Aogonek">
          18 -175 -21 217 -22 callsubr
          hstem
          399 87 vstem
          496 25 callgsubr
          -103 710 -39 callgsubr
          -405 -710 rlineto
          142 hlineto
          96 177 rlineto
          229 hlineto
          22 -177 rlineto
          66 hlineto
          -69 -39 -34 -41 -40 -44 callgsubr
          -268 470 rmoveto
          152 279 31 -279 rlineto
          endchar
        </CharString>
        <CharString name="Aring">
          -42 callgsubr
          72 41 72 41 hstem
          340 58 78 57 vstem
          -103 callsubr
          -71 550 -89 callsubr
          endchar
        </CharString>
        <CharString name="Aringacute">
          18 21 8 callsubr
          648 -20 hstem
          322 58 78 57 vstem
          591 922 rmoveto
          -124 hlineto
          -70 -105 rlineto
          -45 -11 -30 -30 -46 vvcurveto
          -18 6 -14 11 -11 vhcurveto
          -392 -687 rlineto
          142 hlineto
          96 177 rlineto
          229 hlineto
          22 -177 rlineto
          142 hlineto
          -100 688 rlineto
          23 16 14 25 31 vvcurveto
          21 -9 16 -15 10 vhcurveto
          -263 -533 rmoveto
          152 279 31 -279 rlineto
          15 507 rmoveto
          19 13 -12 -18 -24 -24 -18 -23 -19 -12 13 17 24 21 18 25 hvcurveto
          endchar
        </CharString>
        <CharString name="Atilde">
          -42 callgsubr
          98 -46 callgsubr
          hintmask 11110100
          -103 callsubr
          77 514 -90 callsubr
          hintmask 11101000
          -92 callgsubr
          hintmask 11110100
          -51 callgsubr
        </CharString>
        <CharString name="B">
          29 0 117 187 109 179 118 hstemhm
          465 136 -99 99 -99 143 hintmask 11110000
          10 hmoveto
          326 hlineto
          137 128 79 144 70 -34 51 -59 20 hvcurveto
          hintmask 11100100
          84 35 53 84 82 vvcurveto
          74 -41 71 -79 vhcurveto
          -364 hlineto
          11 -593 rmoveto
          39 187 rlineto
          196 hlineto
          hintmask 11110000
          36 22 -33 -41 -62 -52 -51 -52 hvcurveto
          -126 296 rmoveto
          38 179 rlineto
          174 hlineto
          hintmask 11101000
          33 22 -27 -41 -67 -50 -44 -48 hvcurveto
          endchar
        </CharString>
        <CharString name="B.sc">
          -51 0 102 133 95 125 104 hstemhm
          392 120 -94 94 -94 126 hintmask 11110000
          4 hmoveto
          282 hlineto
          118 108 58 116 57 -30 40 -52 16 hvcurveto
          hintmask 11100100
          70 27 44 64 63 vvcurveto
          60 -36 58 -70 vhcurveto
          -316 hlineto
          24 -457 rmoveto
          28 133 rlineto
          167 hlineto
          hintmask 11110000
          31 20 -25 -30 -44 -41 -34 -44 hvcurveto
          -113 228 rmoveto
          27 125 rlineto
          149 hlineto
          hintmask 11101000
          28 20 -18 -31 -50 -38 -26 -41 hvcurveto
          endchar
        </CharString>
        <CharString name="C">
          -2 callgsubr
          hstem
          37 140 vstem
          296 -6 -89 callgsubr
          endchar
        </CharString>
        <CharString name="C.sc">
          -57 -5 108 351 108 hstem
          23 124 vstem
          247 -5 rmoveto
          93 117 47 83 54 hvcurveto
          -87 59 rlineto
          -58 -37 -64 -23 -49 hhcurveto
          -82 -45 66 76 95 77 114 122 48 55 -18 -61 14 hvcurveto
          106 65 rlineto
          73 -21 -71 49 -105 hhcurveto
          -202 -147 -173 -153 -123 82 -118 142 hvcurveto
          endchar
        </CharString>
        <CharString name="CR">
          -627 endchar
        </CharString>
        <CharString name="Cacute">
          -2 callgsubr
          202 -20 hstem
          37 140 vstem
          611 916 -96 callgsubr
          -202 -786 -89 callgsubr
          endchar
        </CharString>
        <CharString name="Ccaron">
          -2 callgsubr
          0 69 8 callgsubr
          37 140 hintmask 10111000
          421 783 -91 callgsubr
          -45 -890 rmoveto
          26 callsubr
          -95 -54 87 101 hvcurveto
          hintmask 11011000
          128 97 160 150 60 64 -26 -80 16 vhcurveto
          121 73 rlineto
          92 -24 -82 63 -125 hhcurveto
          -240 -177 -222 -196 -155 94 -147 165 hvcurveto
          endchar
        </CharString>
        <CharString name="Ccedilla">
          29 34 callgsubr
          34 120 476 122 hstem
          35 140 152 64 vstem
          148 -176 rmoveto
          -76 callgsubr
          31 38 104 8 122 58 59 97 rlinecurve
          -34 callgsubr
          -95 -54 87 101 128 97 160 150 60 64 -26 -80 16 hvcurveto
          121 73 rlineto
          92 -24 -82 63 -125 hhcurveto
          -240 -177 -222 -196 -146 83 -139 147 -15 hvcurveto
          -60 -88 -73 callsubr
          endchar
        </CharString>
        <CharString name="Ccircumflex">
          -2 callgsubr
          202 -20 hstem
          37 140 vstem
          393 783 -101 callsubr
          -35 -821 -89 callgsubr
          endchar
        </CharString>
        <CharString name="Cdotaccent">
          -2 callgsubr
          76 126 hstem
          37 140 vstem
          296 -6 -89 callgsubr
          241 796 39 callgsubr
          endchar
        </CharString>
        <CharString name="D">
          65 0 15 callgsubr
          10 hmoveto
          -80 callgsubr
        </CharString>
        <CharString name="D.sc">
          -14 0 106 347 106 hstem
          455 125 vstem
          4 hmoveto
          217 hlineto
          205 154 141 196 124 -77 98 -164 hvcurveto
          -217 hlineto
          24 -453 rmoveto
          74 347 rlineto
          97 hlineto
          90 48 -55 -80 -114 -82 -98 -130 hvcurveto
          endchar
        </CharString>
        <CharString name="Dcaron">
          65 7 callgsubr
          534 142 hintmask 10111000
          363 783 -91 callgsubr
          -273 -884 -35 callgsubr
          12 -589 rmoveto
          hintmask 11011000
          99 468 rlineto
          110 hlineto
          100 52 -71 -103 -156 -99 -138 -153 hvcurveto
          endchar
        </CharString>
        <CharString name="Dcroat">
          -71 callgsubr
        </CharString>
        <CharString name="Ddotbelow">
          65 -31 callgsubr
          70 15 callgsubr
          286 -54 callsubr
          -156 196 rmoveto
          -80 callgsubr
        </CharString>
        <CharString name="Delta">
          36 49 callsubr
          364 710 rmoveto
          -112 hlineto
          -252 -606 rlineto
          -104 615 104 vlineto
          -475 17 rmoveto
          168 436 170 -436 rlineto
          endchar
        </CharString>
        <CharString name="E">
          -77 callsubr
          hstem
          10 hmoveto
          469 -94 callsubr
          36 171 rlineto
          324 -74 callgsubr
          -460 hlineto
          endchar
        </CharString>
        <CharString name="E.sc">
          -111 0 106 129 99 119 106 hstem
          4 hmoveto
          412 hlineto
          22 106 rlineto
          -292 hlineto
          29 129 rlineto
          245 hlineto
          21 99 rlineto
          -246 hlineto
          25 119 rlineto
          285 hlineto
          22 106 rlineto
          -405 hlineto
          endchar
        </CharString>
        <CharString name="Eacute">
          -77 callsubr
          206 -20 hstem
          544 916 -96 callgsubr
          -421 -780 rmoveto
          469 -94 callsubr
          36 171 rlineto
          324 -74 callgsubr
          -460 hlineto
          endchar
        </CharString>
        <CharString name="Ebreve">
          -77 callsubr
          72 -19 callgsubr
          293 73 hintmask 11110100
          10 hmoveto
          469 -94 callsubr
          36 171 rlineto
          324 -74 callgsubr
          -460 hlineto
          248 132 -41 callsubr
          hintmask 11101100
          -99 callgsubr
          hintmask 11110100
          -55 callsubr
        </CharString>
        <CharString name="Ecaron">
          -77 callsubr
          0 73 8 callgsubr
          hintmask 11011000
          351 783 -91 callgsubr
          -261 -884 rmoveto
          469 -94 callsubr
          hintmask 11101000
          36 171 rlineto
          324 -74 callgsubr
          -460 hlineto
          endchar
        </CharString>
        <CharString name="Ecircumflex">
          -77 callsubr
          206 -20 hstem
          326 783 -101 callsubr
          -254 -815 rmoveto
          469 -94 callsubr
          36 171 rlineto
          324 -74 callgsubr
          -460 hlineto
          endchar
        </CharString>
        <CharString name="Edblgrave">
          -77 callsubr
          208 -20 hstem
          471 781 -93 callgsubr
          -255 -918 rmoveto
          469 -94 callsubr
          36 171 rlineto
          324 -74 callgsubr
          -460 hlineto
          endchar
        </CharString>
        <CharString name="Edieresis">
          -77 callsubr
          81 119 hstem
          369 791 -102 callgsubr
          -436 -791 rmoveto
          469 -94 callsubr
          36 171 rlineto
          324 -74 callgsubr
          -460 hlineto
          endchar
        </CharString>
        <CharString name="Edotaccent">
          -77 callsubr
          80 126 hstem
          10 hmoveto
          469 -94 callsubr
          36 171 rlineto
          324 -74 callgsubr
          -460 hlineto
          306 80 39 callgsubr
          endchar
        </CharString>
        <CharString name="Edotbelow">
          -49 -31 callgsubr
          70 121 185 112 171 121 hstem
          10 hmoveto
          469 -94 callsubr
          36 171 rlineto
          324 -74 callgsubr
          -460 hlineto
          96 -906 -45 callsubr
          endchar
        </CharString>
        <CharString name="Egrave">
          -77 callsubr
          207 -20 hstem
          10 hmoveto
          469 -94 callsubr
          36 171 rlineto
          324 -74 callgsubr
          -460 hlineto
          220 70 -79 callgsubr
        </CharString>
        <CharString name="Einvertedbreve">
          -77 callsubr
          72 -20 callsubr
          467 72 hintmask 11110100
          281 782 rmoveto
          71 hlineto
          hintmask 11101100
          -75 callsubr
          hintmask 11110100
          -97 callsubr
          -271 -782 rmoveto
          469 -94 callsubr
          36 171 rlineto
          324 -74 callgsubr
          -460 hlineto
          endchar
        </CharString>
        <CharString name="Emacron">
          -77 callsubr
          108 83 hstem
          10 hmoveto
          469 -94 callsubr
          36 171 rlineto
          324 -74 callgsubr
          -460 hlineto
          394 108 -64 callsubr
          endchar
        </CharString>
        <CharString name="Eng">
          93 19 callgsubr
          101 32 callgsubr
          hintmask 11100000
          364 -196 rmoveto
          96 96 75 112 24 hvcurveto
          153 718 19 callsubr
          -97 -459 rlineto
          hintmask 11010000
          -232 460 rlineto
          -105 hlineto
          -151 -710 rlineto
          -12 callsubr
          96 451 211 -423 -9 -42 rlineto
          -39 -8 -32 -27 -33 hhcurveto
          -19 -20 7 15 -10 hvcurveto
          -77 -91 rlineto
          -32 28 42 -15 48 hhcurveto
          endchar
        </CharString>
        <CharString name="Eogonek">
          -49 -175 -21 196 121 185 112 171 121 hstem
          111 87 vstem
          10 hmoveto
          204 hlineto
          -69 -39 -34 -37 callgsubr
          189 -94 callsubr
          36 171 rlineto
          324 -74 callgsubr
          -460 hlineto
          endchar
        </CharString>
        <CharString name="Eth">
          -71 callgsubr
        </CharString>
        <CharString name="Etilde">
          -77 callsubr
          78 -46 callgsubr
          hintmask 11110100
          10 hmoveto
          469 -94 callsubr
          36 171 rlineto
          324 -74 callgsubr
          -460 hlineto
          302 78 -90 callsubr
          hintmask 11101000
          -92 callgsubr
          hintmask 11110100
          -51 callgsubr
        </CharString>
        <CharString name="Euro">
          135 -6 122 126 74 51 74 151 122 hstem
          105 441 rmoveto
          -46 -74 rlineto
          65 hlineto
          -3 -17 -2 -17 -1 -17 rrcurveto
          -51 hlineto
          -45 -74 rlineto
          99 hlineto
          -134 19 89 -114 146 hhcurveto
          26 callsubr
          -75 -48 54 72 -18 hvcurveto
          164 hlineto
          45 74 rlineto
          -216 hlineto
          1 16 2 18 4 17 rrcurveto
          221 hlineto
          45 74 rlineto
          -240 hlineto
          83 40 75 68 99 hhcurveto
          59 65 -26 -80 15 hvcurveto
          122 73 rlineto
          92 -25 -82 63 -124 hhcurveto
          -181 -145 -127 -146 -61 hvcurveto
          endchar
        </CharString>
        <CharString name="F">
          -71 21 -21 294 112 183 121 hstem
          10 hmoveto
          -12 callsubr
          63 294 rlineto
          262 hlineto
          -12 callgsubr
          -262 hlineto
          38 183 rlineto
          317 -69 callsubr
          -454 hlineto
          endchar
        </CharString>
        <CharString name="F.sc">
          -132 21 -21 224 99 130 106 hstem
          12 callgsubr
          48 224 rlineto
          231 hlineto
          21 99 rlineto
          -231 hlineto
          27 130 rlineto
          278 hlineto
          23 106 rlineto
          -399 hlineto
          endchar
        </CharString>
        <CharString name="G">
          70 -5 -38 callsubr
          hstemhm
          37 141 hintmask 01111000
          477 hmoveto
          -68 callsubr
          hintmask 10111000
          -97 callgsubr
          endchar
        </CharString>
        <CharString name="G.alt">
          65 -5 122 138 120 218 122 hstem
          38 139 vstem
          302 -5 rmoveto
          177 150 144 169 40 hvcurveto
          16 67 rlineto
          -292 hlineto
          -25 -120 rlineto
          142 hlineto
          -71 -33 -79 -67 -83 hhcurveto
          -96 -42 90 91 137 101 158 138 90 33 -74 -39 10 hvcurveto
          128 86 rlineto
          93 -32 -80 56 -114 hhcurveto
          -231 -182 -215 -207 -158 96 -140 168 hvcurveto
          endchar
        </CharString>
        <CharString name="G.sc">
          -30 -4 108 -83 -21 202 88 165 108 hstemhm
          24 123 hintmask 01111000
          391 hmoveto
          100 hlineto
          62 290 rlineto
          -217 hlineto
          -19 -88 rlineto
          117 hlineto
          -6 -27 rlineto
          hintmask 10111000
          -47 -51 -54 -24 -50 hhcurveto
          -78 -48 59 79 111 88 102 106 57 47 -30 -52 14 hvcurveto
          106 68 rlineto
          74 -22 -70 48 -104 hhcurveto
          -180 -165 -153 -176 -127 86 -111 130 56 54 19 43 53 hvcurveto
          endchar
        </CharString>
        <CharString name="Gacute">
          70 -5 -38 callsubr
          201 -20 hstemhm
          37 141 hintmask 01111100
          600 916 -96 callgsubr
          -10 -780 rmoveto
          -68 callsubr
          hintmask 10111100
          -97 callgsubr
          endchar
        </CharString>
        <CharString name="Gbreve">
          70 -5 -38 callsubr
          67 -19 callgsubr
          37 141 179 73 hintmask 01111011
          477 hmoveto
          -68 callsubr
          hintmask 10111011
          -97 callgsubr
          hintmask 01111011
          -21 762 -41 callsubr
          hintmask 10110111
          -99 callgsubr
          hintmask 10111011
          -55 callsubr
        </CharString>
        <CharString name="Gcircumflex">
          70 -5 -38 callsubr
          201 -20 hstemhm
          37 141 hintmask 01111100
          387 783 -101 callsubr
          152 -815 rmoveto
          -68 callsubr
          hintmask 10111100
          -97 callgsubr
          endchar
        </CharString>
        <CharString name="Gcommaaccent">
          70 -6 callgsubr
          42 -38 callsubr
          hstemhm
          37 141 hintmask 10111100
          272 -92 callsubr
          266 213 rmoveto
          -68 callsubr
          hintmask 11011100
          -97 callgsubr
          endchar
        </CharString>
        <CharString name="Gdotaccent">
          70 -5 -38 callsubr
          75 126 hstemhm
          37 141 hintmask 01111100
          477 hmoveto
          -68 callsubr
          hintmask 10111100
          -97 callgsubr
          hintmask 01111100
          38 710 39 callgsubr
          endchar
        </CharString>
        <CharString name="H">
          91 21 -42 callsubr
          endchar
        </CharString>
        <CharString name="H.sc">
          9 21 -21 232 107 220 -20 hstem
          12 callgsubr
          50 232 rlineto
          259 hlineto
          -50 -232 rlineto
          121 hlineto
          119 559 -15 callsubr
          -47 -220 rlineto
          -259 hlineto
          47 220 54 callgsubr
        </CharString>
        <CharString name="Hbar">
          99 21 -21 303 120 120 66 -66 167 hstemhm
          hintmask 11100000
          82 543 rmoveto
          47 hlineto
          -115 -543 rlineto
          138 -30 callgsubr
          115 543 rlineto
          48 hlineto
          14 66 rlineto
          -48 hlineto
          hintmask 11010000
          22 101 -85 callsubr
          hintmask 11100000
          -22 -101 rlineto
          -296 hlineto
          hintmask 11010000
          22 101 19 callsubr
          hintmask 11100000
          -22 -101 rlineto
          -47 hlineto
          146 -186 rmoveto
          25 120 rlineto
          296 hlineto
          -25 -120 rlineto
          endchar
        </CharString>
        <CharString name="Hcircumflex">
          91 21 -21 303 120 287 -20 226 -20 hstem
          379 783 -101 callsubr
          -307 -815 rmoveto
          137 -30 callgsubr
          151 710 -85 callsubr
          -61 -287 rlineto
          -296 hlineto
          61 287 -85 callsubr
          endchar
        </CharString>
        <CharString name="Hdotbelow">
          91 -196 126 91 -42 callsubr
          151 -906 -45 callsubr
          endchar
        </CharString>
        <CharString name="I">
          20 callgsubr
          709 -20 hstem
          10 hmoveto
          137 -83 callgsubr
          endchar
        </CharString>
        <CharString name="I.sc">
          -371 -10 callsubr
          12 callgsubr
          119 559 54 callgsubr
        </CharString>
        <CharString name="IJ">
          137 -11 122 -90 -21 709 -20 hstemhm
          hintmask 01100000
          10 hmoveto
          137 -83 callgsubr
          hintmask 10100000
          218 -720 -79 callsubr
          endchar
        </CharString>
        <CharString name="Iacute">
          20 callgsubr
          916 -20 hstem
          10 hmoveto
          137 -83 callgsubr
          209 207 -48 callgsubr
        </CharString>
        <CharString name="Ibreve">
          20 callgsubr
          782 -19 callgsubr
          134 73 hintmask 11010000
          10 hmoveto
          137 -83 callgsubr
          89 133 -41 callsubr
          hintmask 10110000
          -99 callgsubr
          hintmask 11010000
          -55 callsubr
        </CharString>
        <CharString name="Icircumflex">
          20 callgsubr
          916 -20 hstem
          10 hmoveto
          137 -83 callgsubr
          3 74 -61 callgsubr
        </CharString>
        <CharString name="Idblgrave">
          20 callgsubr
          918 -20 hstem
          10 hmoveto
          137 -83 callgsubr
          144 72 -93 callgsubr
          endchar
        </CharString>
        <CharString name="Idieresis">
          20 callgsubr
          791 119 hstem
          10 hmoveto
          137 -83 callgsubr
          47 82 -102 callgsubr
          endchar
        </CharString>
        <CharString name="Idotaccent">
          20 callgsubr
          790 126 hstem
          10 hmoveto
          137 -83 callgsubr
          146 81 39 callgsubr
          endchar
        </CharString>
        <CharString name="Idotbelow">
          -342 44 callgsubr
          709 -20 hstem
          10 hmoveto
          137 -83 callgsubr
          -64 -905 -45 callsubr
          endchar
        </CharString>
        <CharString name="Igrave">
          20 callgsubr
          917 -20 hstem
          10 hmoveto
          137 -83 callgsubr
          55 71 -79 callgsubr
        </CharString>
        <CharString name="Iinvertedbreve">
          20 callgsubr
          782 -20 callsubr
          304 72 hintmask 11010000
          10 hmoveto
          137 -83 callgsubr
          -43 73 rmoveto
          71 hlineto
          hintmask 10110000
          -75 callsubr
          hintmask 11010000
          -40 callsubr
        </CharString>
        <CharString name="Imacron">
          20 callgsubr
          818 83 hstem
          10 hmoveto
          137 -83 callgsubr
          234 109 -64 callsubr
          endchar
        </CharString>
        <CharString name="Iogonek">
          -342 -175 -21 217 -21 709 -20 hstem
          -32 87 vstem
          10 hmoveto
          61 hlineto
          -69 -39 -34 -37 callgsubr
          151 709 -85 callsubr
          endchar
        </CharString>
        <CharString name="Itilde">
          20 callgsubr
          788 -46 callgsubr
          hintmask 11010000
          10 hmoveto
          137 -83 callgsubr
          150 79 -90 callsubr
          hintmask 10100000
          -92 callgsubr
          hintmask 11010000
          -51 callgsubr
        </CharString>
        <CharString name="J">
          -148 -11 122 598 -20 hstem
          94 -11 -79 callsubr
          endchar
        </CharString>
        <CharString name="J.sc">
          -199 -8 107 460 -20 hstem
          80 -8 rmoveto
          196 50 112 171 36 hvcurveto
          60 284 -61 callsubr
          -61 -284 rlineto
          -121 -26 -22 -55 -91 hhcurveto
          -47 -36 14 11 -12 hvcurveto
          -49 -99 rlineto
          -22 30 41 -11 51 hhcurveto
          endchar
        </CharString>
        <CharString name="Jcircumflex">
          -148 -11 122 805 -20 hstem
          365 783 -101 callsubr
          -209 -826 -79 callsubr
          endchar
        </CharString>
        <CharString name="K">
          16 21 32 callgsubr
          hintmask 10100000
          10 hmoveto
          -14 callgsubr
          hintmask 11000000
          72 337 -85 callsubr
          endchar
        </CharString>
        <CharString name="K.sc">
          -54 -10 callsubr
          12 callgsubr
          36 168 92 74 133 -242 rlineto
          128 hlineto
          -174 310 278 249 rlineto
          -126 hlineto
          -304 -261 56 261 54 callgsubr
        </CharString>
        <CharString name="Kcommaaccent">
          16 -213 166 68 32 callgsubr
          hintmask 11010000
          261 -92 callsubr
          -190 213 rmoveto
          -14 callgsubr
          hintmask 11100000
          72 337 -85 callsubr
          endchar
        </CharString>
        <CharString name="L">
          -66 49 callsubr
          10 hmoveto
          -65 callsubr
          endchar
        </CharString>
        <CharString name="L.sc">
          -162 0 106 453 -20 hstem
          4 hmoveto
          387 hlineto
          23 106 rlineto
          -268 hlineto
          97 453 54 callgsubr
        </CharString>
        <CharString name="Lacute">
          -66 43 callsubr
          226 -20 hstem
          380 916 -96 callgsubr
          -257 -780 rmoveto
          -65 callsubr
          endchar
        </CharString>
        <CharString name="Lcaron">
          -65 0 121 609 -20 hstem
          424 -47 callsubr
          -333 -611 rmoveto
          -65 callsubr
          endchar
        </CharString>
        <CharString name="Lcommaaccent">
          -66 -6 callgsubr
          47 121 589 -20 hstem
          225 -92 callsubr
          -154 213 rmoveto
          -65 callsubr
          endchar
        </CharString>
        <CharString name="Ldot">
          -65 0 121 219 151 219 -20 hstem
          10 hmoveto
          -65 callsubr
          285 -370 -21 callgsubr
        </CharString>
        <CharString name="Lslash">
          -58 49 callsubr
          21 242 rmoveto
          55 32 -58 -274 rlineto
          477 -69 callsubr
          -340 hlineto
          51 243 152 88 -17 73 -115 -66 54 251 -85 callsubr
          -73 -341 -93 -54 rlineto
          endchar
        </CharString>
        <CharString name="M">
          203 18 callsubr
          10 hmoveto
          -12 callsubr
          100 470 92 -350 rlineto
          75 hlineto
          241 350 -100 -470 rlineto
          -12 callsubr
          151 710 rlineto
          -147 hlineto
          -280 -404 -107 404 rlineto
          -148 hlineto
          endchar
        </CharString>
        <CharString name="M.sc">
          106 -10 callsubr
          12 callgsubr
          74 349 92 -256 rlineto
          65 hlineto
          201 256 -75 -349 rlineto
          121 hlineto
          119 559 rlineto
          -130 hlineto
          -233 -302 -105 302 rlineto
          -131 hlineto
          endchar
        </CharString>
        <CharString name="N">
          106 21 32 callgsubr
          hintmask 11000000
          10 hmoveto
          -86 callsubr
          rlineto
          hintmask 10100000
          -29 callsubr
        </CharString>
        <CharString name="N.sc">
          22 -10 callsubr
          12 callgsubr
          71 335 225 -335 rlineto
          97 hlineto
          119 559 -61 callsubr
          -73 -344 -227 344 rlineto
          -94 hlineto
          endchar
        </CharString>
        <CharString name="NULL">
          -627 endchar
        </CharString>
        <CharString name="Nacute">
          106 11 callgsubr
          602 916 -96 callgsubr
          -479 -780 rmoveto
          -86 callsubr
          -29 callsubr
        </CharString>
        <CharString name="Ncaron">
          106 11 callgsubr
          407 783 -91 callgsubr
          -317 -884 rmoveto
          -86 callsubr
          -29 callsubr
        </CharString>
        <CharString name="Ncommaaccent">
          106 -213 166 68 32 callgsubr
          hintmask 11100000
          279 -92 callsubr
          -208 213 rmoveto
          -86 callsubr
          rlineto
          hintmask 11010000
          -29 callsubr
        </CharString>
        <CharString name="Ndotaccent">
          106 -47 callgsubr
          100 126 hstem
          525 790 39 callgsubr
          -394 -790 rmoveto
          -86 callsubr
          -29 callsubr
        </CharString>
        <CharString name="Ntilde">
          106 -47 callgsubr
          98 -46 callgsubr
          hintmask 11101000
          10 hmoveto
          -86 callsubr
          -242 12 callsubr
          370 78 -90 callsubr
          hintmask 11010000
          -92 callgsubr
          hintmask 11101000
          -51 callgsubr
        </CharString>
        <CharString name="O">
          -53 callgsubr
          -50 callsubr
          -78 callgsubr
          endchar
        </CharString>
        <CharString name="O.sc">
          2 -4 107 351 108 hstem
          23 124 326 124 vstem
          249 -4 rmoveto
          184 164 162 167 122 -80 115 -145 -184 -165 -162 -168 -123 82 -113 144 hvcurveto
          24 107 rmoveto
          -84 -42 67 74 98 81 112 119 83 43 -65 -75 -97 -80 -114 -120 hvcurveto
          endchar
        </CharString>
        <CharString name="OE">
          405 0 121 -105 -21 306 121 171 117 5 -20 hstemhm
          37 140 hintmask 01110100
          289 -5 rmoveto
          78 77 47 63 56 hvcurveto
          hintmask 10110100
          -22 -105 rlineto
          456 -69 callsubr
          -319 hlineto
          38 180 rlineto
          260 -74 callgsubr
          -259 hlineto
          35 167 rlineto
          311 -69 callsubr
          -448 hlineto
          -22 -104 rlineto
          hintmask 01101100
          62 -29 -55 47 -78 hhcurveto
          -213 -195 -210 -217 -153 90 -140 162 hvcurveto
          27 122 rmoveto
          -93 -46 84 97 hvcurveto
          hintmask 10110100
          135 100 160 140 91 47 -85 -96 -134 -98 -161 -141 vhcurveto
          endchar
        </CharString>
        <CharString name="Oacute">
          -53 callgsubr
          201 -20 -50 callsubr
          607 916 -96 callgsubr
          -195 -785 rmoveto
          -106 callgsubr
          endchar
        </CharString>
        <CharString name="Obreve">
          -53 callgsubr
          67 -19 callgsubr
          37 140 184 73 140 140 hintmask 11101110
          -78 callgsubr
          151 725 -41 callsubr
          hintmask 11011110
          -99 callgsubr
          hintmask 11101110
          -55 callsubr
        </CharString>
        <CharString name="Ocircumflex">
          -53 callgsubr
          201 -20 -50 callsubr
          391 783 -101 callsubr
          -30 -820 rmoveto
          -106 callgsubr
          endchar
        </CharString>
        <CharString name="Odblgrave">
          -53 callgsubr
          203 -20 -50 callsubr
          551 781 -93 callgsubr
          -46 -923 rmoveto
          -106 callgsubr
          endchar
        </CharString>
        <CharString name="Odieresis">
          -53 callgsubr
          76 119 -50 callsubr
          432 791 -102 callgsubr
          -210 -796 rmoveto
          -106 callgsubr
          endchar
        </CharString>
        <CharString name="Odotbelow">
          102 -31 callgsubr
          65 122 475 123 -50 callsubr
          323 -54 callsubr
          96 191 rmoveto
          -106 callgsubr
          endchar
        </CharString>
        <CharString name="Ograve">
          -53 callgsubr
          202 -20 -50 callsubr
          -78 callgsubr
          124 663 -79 callgsubr
        </CharString>
        <CharString name="Ohungarumlaut">
          -53 callgsubr
          191 -20 -50 callsubr
          507 906 -65 callgsubr
          -258 -776 rmoveto
          -106 callgsubr
          endchar
        </CharString>
        <CharString name="Oinvertedbreve">
          -53 callgsubr
          67 -20 callsubr
          37 140 358 72 -33 140 hintmask 11101100
          349 782 rmoveto
          71 hlineto
          hintmask 11011100
          -75 callsubr
          hintmask 11101100
          -97 callsubr
          -50 -787 rmoveto
          hintmask 11101010
          -106 callgsubr
          endchar
        </CharString>
        <CharString name="Omacron">
          -53 callgsubr
          103 83 -50 callsubr
          620 818 -64 callsubr
          -35 -823 rmoveto
          -106 callgsubr
          endchar
        </CharString>
        <CharString name="Omega">
          -72 callgsubr
        </CharString>
        <CharString name="Oogonek">
          101 -175 -21 788 123 hstemhm
          37 140 -10 87 320 140 hintmask 11011000
          264 41 callgsubr
          27 28 27 60 35 vhcurveto
          200 25 172 195 200 vvcurveto
          153 -91 144 -168 vhcurveto
          hintmask 11101000
          -219 -199 -209 -216 -144 80 -132 148 -17 hvcurveto
          hintmask 11011000
          -66 -38 -32 -40 -2 callsubr
          62 313 rmoveto
          hintmask 11101000
          -100 -49 86 98 135 102 156 147 99 49 -85 -99 -133 -101 -158 -147 hvcurveto
          endchar
        </CharString>
        <CharString name="Oslash">
          102 -5 122 -96 -21 592 123 -5 -20 hstemhm
          37 140 397 140 hintmask 10011100
          615 710 rmoveto
          -28 -32 rlineto
          hintmask 01101100
          23 -36 -45 14 -51 hhcurveto
          -219 -199 -209 -216 -66 17 -64 33 -51 hvcurveto
          -96 -109 rlineto
          148 hlineto
          27 31 rlineto
          hintmask 10011100
          -23 37 44 -13 52 hhcurveto
          218 197 209 214 65 -17 64 -32 52 hvcurveto
          98 111 rlineto
          -586 -409 rmoveto
          hintmask 10101100
          135 102 156 147 27 23 -7 -11 20 vhcurveto
          -308 -350 rlineto
          -8 23 -3 27 27 vvcurveto
          149 -184 rmoveto
          -27 -23 6 11 -20 hvcurveto
          307 349 rlineto
          7 -23 4 -26 -26 vvcurveto
          -133 -101 -158 -147 vhcurveto
          endchar
        </CharString>
        <CharString name="Oslashacute">
          102 -5 122 -96 -21 592 123 -5 -20 226 -20 hstemhm
          37 140 397 140 hintmask 10011110
          613 710 rmoveto
          -27 -31 rlineto
          hintmask 01101110
          23 -37 -43 13 -51 hhcurveto
          -219 -199 -209 -216 -66 16 -63 33 -51 hvcurveto
          -97 -110 rlineto
          148 hlineto
          28 31 rlineto
          hintmask 10011110
          -23 37 45 -13 52 hhcurveto
          218 197 209 214 66 -17 64 -33 52 hvcurveto
          97 110 rlineto
          -435 -593 rmoveto
          -27 -24 6 11 -20 hvcurveto
          308 350 rlineto
          7 -23 4 -26 -27 vvcurveto
          -133 -101 -158 -147 vhcurveto
          -149 184 rmoveto
          hintmask 10101110
          135 102 156 147 26 23 -7 -10 19 vhcurveto
          -307 -349 rlineto
          -7 23 -3 25 27 vvcurveto
          434 615 -48 callgsubr
        </CharString>
        <CharString name="Otilde">
          -53 callgsubr
          73 -46 callgsubr
          37 140 397 140 hintmask 11101110
          -78 callgsubr
          208 671 -90 callsubr
          hintmask 11010110
          -92 callgsubr
          hintmask 11101110
          -51 callgsubr
        </CharString>
        <CharString name="P">
          -26 -17 callgsubr
          hstem
          477 141 vstem
          10 hmoveto
          -12 callsubr
          50 238 rlineto
          155 hlineto
          145 121 143 133 100 -63 96 -108 hvcurveto
          -286 hlineto
          62 -351 rmoveto
          49 230 rlineto
          140 hlineto
          36 29 -32 -54 -82 -53 -62 -56 hvcurveto
          endchar
        </CharString>
        <CharString name="P.sc">
          -92 21 -21 183 106 164 106 hstem
          403 124 vstem
          12 callgsubr
          39 183 20 callsubr
          126 103 111 106 81 -57 78 -97 hvcurveto
          -251 hlineto
          63 -270 rmoveto
          35 164 rlineto
          123 hlineto
          33 27 -23 -42 -61 -43 -38 -47 hvcurveto
          endchar
        </CharString>
        <CharString name="Q">
          101 -5 122 -96 -21 593 122 hstemhm
          36 141 397 140 hintmask 01111000
          506 hmoveto
          131 hlineto
          -70 106 rlineto
          89 80 58 115 117 vvcurveto
          153 -92 144 -168 -218 -200 -209 -216 vhcurveto
          hintmask 10111000
          -154 94 -141 168 63 62 17 30 55 vhcurveto
          hintmask 01111000
          hintmask 10111000
          -152 75 rmoveto
          -100 -49 86 98 135 102 157 147 98 50 -86 -99 -69 -27 -75 -46 -57 hvcurveto
          -36 56 rlineto
          -130 hlineto
          81 -125 rlineto
          -13 -28 -30 -8 -32 hhcurveto
          endchar
        </CharString>
        <CharString name="Q.sc">
          3 -4 108 -108 219 -194 -21 455 108 hstemhm
          22 124 327 123 hintmask 00111100
          431 hmoveto
          115 hlineto
          -64 89 rlineto
          69 62 45 86 88 vvcurveto
          122 -80 116 -145 -183 -166 -163 -168 vhcurveto
          hintmask 10011100
          -123 82 -113 144 55 54 15 25 48 vhcurveto
          hintmask 00111100
          hintmask 10011100
          -132 68 rmoveto
          -85 -42 66 74 98 82 113 119 83 43 -66 -74 -48 -20 -51 -33 -40 hvcurveto
          hintmask 01011100
          -28 39 rlineto
          -115 hlineto
          69 -96 rlineto
          hintmask 10011100
          -10 -22 -25 -5 -26 hhcurveto
          endchar
        </CharString>
        <CharString name="R">
          15 21 -7 callsubr
          147 hmoveto
          -93 callsubr
          endchar
        </CharString>
        <CharString name="R.sc">
          -52 21 -21 183 106 164 106 hstem
          415 124 vstem
          12 callgsubr
          39 183 rlineto
          107 hlineto
          84 -183 rlineto
          -12 callsubr
          -94 209 rlineto
          82 33 60 78 80 vvcurveto
          81 -57 78 -97 vhcurveto
          -263 hlineto
          63 -270 rmoveto
          35 164 20 callsubr
          34 26 -27 -39 -54 -44 -44 -46 hvcurveto
          endchar
        </CharString>
        <CharString name="Racute">
          -9 callsubr
          208 -20 hstem
          490 142 vstem
          549 918 -96 callgsubr
          -289 -782 rmoveto
          -93 callsubr
          endchar
        </CharString>
        <CharString name="Rcaron">
          -9 callsubr
          0 75 8 callgsubr
          490 142 hintmask 11011100
          362 785 -91 callgsubr
          -135 -886 rmoveto
          50 238 rlineto
          123 hlineto
          84 -238 rlineto
          156 hlineto
          -96 267 rlineto
          96 40 72 104 103 vvcurveto
          100 -64 96 -107 vhcurveto
          -300 hlineto
          -151 -710 rlineto
          213 359 rmoveto
          hintmask 11101100
          25 callsubr
        </CharString>
        <CharString name="Rcommaaccent">
          15 -213 166 68 -7 callsubr
          231 -92 callsubr
          -23 213 rmoveto
          -93 callsubr
          endchar
        </CharString>
        <CharString name="Rdblgrave">
          -9 callsubr
          208 -20 hstem
          490 142 vstem
          468 781 -93 callgsubr
          -115 -918 rmoveto
          -93 callsubr
          endchar
        </CharString>
        <CharString name="Rdotbelow">
          15 -196 126 91 -7 callsubr
          147 hmoveto
          -93 callsubr
          -104 -555 -45 callsubr
          endchar
        </CharString>
        <CharString name="Rinvertedbreve">
          -9 callsubr
          72 -20 callsubr
          474 72 -56 142 hintmask 11110100
          288 782 rmoveto
          71 hlineto
          hintmask 11101100
          -75 callsubr
          hintmask 11110100
          -97 callsubr
          -141 -782 rmoveto
          50 238 rlineto
          123 hlineto
          84 -238 rlineto
          156 hlineto
          -96 267 rlineto
          hintmask 11110010
          96 40 72 104 103 vvcurveto
          100 -64 96 -107 vhcurveto
          -300 hlineto
          -151 -710 rlineto
          213 359 rmoveto
          25 callsubr
        </CharString>
        <CharString name="S">
          37 callgsubr
          -11 callsubr
          243 -8 -100 callgsubr
          endchar
        </CharString>
        <CharString name="S.sc">
          -111 -7 109 354 107 hstem
          64 131 127 136 vstem
          203 -7 rmoveto
          128 127 56 144 80 -59 31 -92 26 hvcurveto
          -72 20 -40 11 33 vvcurveto
          38 31 24 64 68 59 -35 -19 15 vhcurveto
          73 99 rlineto
          32 -42 -67 30 -80 hhcurveto
          -131 -121 -75 -131 -66 44 -34 86 -26 hvcurveto
          75 -23 53 -11 -37 vvcurveto
          -37 -33 -21 -60 -89 -71 40 27 -18 vhcurveto
          -75 -105 rlineto
          -44 57 85 -27 85 hhcurveto
          endchar
        </CharString>
        <CharString name="Sacute">
          37 callgsubr
          215 -20 -11 callsubr
          544 930 -96 callgsubr
          -188 -802 -100 callgsubr
          endchar
        </CharString>
        <CharString name="Scaron">
          37 callgsubr
          0 82 8 callgsubr
          87 151 153 154 hintmask 10111100
          353 797 -91 callgsubr
          -30 -906 rmoveto
          152 150 73 179 23 callsubr
          hvcurveto
          1 callgsubr
          hintmask 11011100
          57 40 38 80 80 75 -50 -20 10 vhcurveto
          85 5 callgsubr
          42 -50 -76 37 -94 hhcurveto
          -157 -144 -97 -165 -81 53 -41 100 -31 hvcurveto
          87 -27 64 -19 -52 vvcurveto
          -52 -40 -34 -79 -104 -89 63 24 -14 vhcurveto
          -86 -28 callgsubr
          -58 66 98 -34 100 hhcurveto
          endchar
        </CharString>
        <CharString name="Schwa">
          91 -5 121 177 108 191 123 hstem
          22 140 394 148 vstem
          288 -5 rmoveto
          232 184 217 213 152 -93 138 -168 -136 -127 -75 -110 -74 hvcurveto
          130 -47 rlineto
          65 32 76 44 70 hhcurveto
          82 60 -61 -99 -10 -1 -11 -1 -10 hvcurveto
          -508 hlineto
          -10 -22 -14 -40 -56 vvcurveto
          -148 93 -140 173 vhcurveto
          28 121 rmoveto
          -94 -60 59 80 13 1 12 3 13 hvcurveto
          364 hlineto
          -104 -32 -87 -73 -95 hhcurveto
          endchar
        </CharString>
        <CharString name="Scircumflex">
          37 callgsubr
          215 -20 -11 callsubr
          329 797 -101 callsubr
          -24 -837 -100 callgsubr
          endchar
        </CharString>
        <CharString name="Sdotbelow">
          -35 -31 callgsubr
          62 18 callgsubr
          -11 callsubr
          243 -8 -100 callgsubr
          17 -188 -45 callsubr
          endchar
        </CharString>
        <CharString name="T">
          -35 21 -21 589 121 hstem
          163 hmoveto
          138 hlineto
          -68 callgsubr
        </CharString>
        <CharString name="T.sc">
          -98 21 -21 453 106 hstem
          140 hmoveto
          121 hlineto
          97 453 rlineto
          185 hlineto
          22 106 rlineto
          -493 hlineto
          -22 -106 rlineto
          187 hlineto
          endchar
        </CharString>
        <CharString name="Tbar">
          -9 21 -21 313 66 210 121 hstem
          65 313 rmoveto
          177 hlineto
          -66 -313 rlineto
          -12 callsubr
          66 313 rlineto
          178 hlineto
          14 66 rlineto
          -178 hlineto
          45 210 rlineto
          213 -74 callgsubr
          -563 13 callgsubr
          213 hlineto
          -45 -210 rlineto
          -177 hlineto
          endchar
        </CharString>
        <CharString name="Tcaron">
          -35 21 -21 589 121 0 73 8 callgsubr
          hintmask 10110000
          343 783 -91 callgsubr
          -100 -884 rmoveto
          138 hlineto
          hintmask 11010000
          -68 callgsubr
        </CharString>
        <CharString name="Tdotbelow">
          -35 44 callgsubr
          589 121 hstem
          250 -54 callsubr
          33 196 rmoveto
          138 hlineto
          -68 callgsubr
        </CharString>
        <CharString name="Thorn">
          -44 21 -21 110 121 230 121 -121 249 hstemhm
          436 139 hintmask 11101000
          10 hmoveto
          -12 callsubr
          23 110 rlineto
          139 hlineto
          145 121 142 134 100 -63 96 -109 hvcurveto
          -132 hlineto
          hintmask 11011000
          27 128 -85 callsubr
          35 -479 rmoveto
          49 230 rlineto
          126 hlineto
          37 28 -37 -52 -72 -53 -69 -55 hvcurveto
          endchar
        </CharString>
        <CharString name="U">
          93 -5 122 593 -83 callsubr
          endchar
        </CharString>
        <CharString name="U.sc">
          0 -4 107 456 -20 hstem
          44 123 vstem
          249 -4 rmoveto
          180 102 123 154 33 hvcurveto
          60 286 -15 callsubr
          -60 -286 rlineto
          -86 -18 -50 -84 -103 hhcurveto
          -77 -28 49 63 18 3 20 4 20 hvcurveto
          60 286 -15 callsubr
          -60 -286 rlineto
          -6 -28 -3 -28 -26 vvcurveto
          -110 56 -85 149 vhcurveto
          endchar
        </CharString>
        <CharString name="Uacute">
          -32 callsubr
          226 -20 1 callsubr
          594 916 -96 callgsubr
          -186 -785 -107 callsubr
          endchar
        </CharString>
        <CharString name="Ubreve">
          -32 callsubr
          92 -19 callgsubr
          61 140 142 73 hintmask 11101100
          -102 callsubr
          164 847 -41 callsubr
          hintmask 11011100
          -99 callgsubr
          hintmask 11101100
          -55 callsubr
        </CharString>
        <CharString name="Ucircumflex">
          -32 callsubr
          226 -20 1 callsubr
          377 783 -101 callsubr
          -20 -820 -107 callsubr
          endchar
        </CharString>
        <CharString name="Udblgrave">
          -32 callsubr
          228 -20 1 callsubr
          522 781 -93 callgsubr
          -21 -923 -107 callsubr
          endchar
        </CharString>
        <CharString name="Udieresis">
          -32 callsubr
          101 119 1 callsubr
          420 791 -102 callgsubr
          -202 -796 -107 callsubr
          endchar
        </CharString>
        <CharString name="Udotbelow">
          92 -31 callgsubr
          65 122 593 -83 callsubr
          15 -191 -45 callsubr
          endchar
        </CharString>
        <CharString name="Ugrave">
          -32 callsubr
          227 -83 callsubr
          139 785 -79 callgsubr
        </CharString>
        <CharString name="Uhungarumlaut">
          -32 callsubr
          227 -83 callsubr
          193 922 -65 callgsubr
          endchar
        </CharString>
        <CharString name="Uinvertedbreve">
          -32 callsubr
          92 -20 callsubr
          61 140 322 72 hintmask 11101100
          337 782 rmoveto
          71 hlineto
          hintmask 11011100
          -75 callsubr
          hintmask 11101100
          -97 callsubr
          -42 -787 -107 callsubr
          endchar
        </CharString>
        <CharString name="Umacron">
          -32 callsubr
          128 83 -91 callsubr
          312 823 -64 callsubr
          endchar
        </CharString>
        <CharString name="Uogonek">
          92 -175 -21 906 -20 hstemhm
          61 140 -38 87 hintmask 11010000
          260 41 callgsubr
          26 27 28 60 34 vhcurveto
          182 20 109 150 38 181 77 362 rcurveline
          -137 hlineto
          -77 -8 callgsubr
          -116 -25 -63 -115 -121 hhcurveto
          hintmask 11100000
          -88 -31 62 80 28 3 30 7 31 hvcurveto
          77 362 -85 callsubr
          -77 -8 callgsubr
          -9 -40 -4 -37 -36 vvcurveto
          -126 55 -99 144 -13 vhcurveto
          hintmask 11010000
          -65 -38 -32 -40 -2 callsubr
          endchar
        </CharString>
        <CharString name="Uring">
          -32 callsubr
          72 41 72 41 hstem
          61 140 173 58 78 57 vstem
          374 824 -89 callsubr
          -183 -880 -107 callsubr
          endchar
        </CharString>
        <CharString name="Utilde">
          -32 callsubr
          98 -46 callgsubr
          61 140 hintmask 11101100
          -102 callsubr
          224 793 -90 callsubr
          hintmask 11010100
          -92 callgsubr
          hintmask 11101100
          -51 callgsubr
        </CharString>
        <CharString name="V">
          19 18 callsubr
          198 hmoveto
          116 hlineto
          412 710 rlineto
          -145 hlineto
          -288 -537 -62 537 rlineto
          -145 hlineto
          endchar
        </CharString>
        <CharString name="V.sc">
          -56 -10 callsubr
          168 hmoveto
          102 hlineto
          348 559 rlineto
          -128 hlineto
          -234 -389 -72 389 rlineto
          -128 hlineto
          endchar
        </CharString>
        <CharString name="W">
          375 18 callsubr
          204 hmoveto
          -95 callsubr
          endchar
        </CharString>
        <CharString name="W.alt">
          432 18 callsubr
          151 hmoveto
          143 hlineto
          269 485 66 -485 rlineto
          143 hlineto
          362 710 rlineto
          -156 hlineto
          -247 -503 -45 503 45 callgsubr
          -256 -504 -34 504 rlineto
          -155 hlineto
          endchar
        </CharString>
        <CharString name="W.sc">
          261 -10 callsubr
          175 hmoveto
          102 hlineto
          147 225 53 -225 rlineto
          101 hlineto
          359 559 rlineto
          -132 hlineto
          -256 -414 -32 155 155 257 rlineto
          -112 hlineto
          -104 -181 -26 181 rlineto
          -112 hlineto
          45 -257 -96 -155 -81 414 rlineto
          -131 hlineto
          endchar
        </CharString>
        <CharString name="Wacute">
          375 11 callgsubr
          728 916 -96 callgsubr
          -411 -780 rmoveto
          -95 callsubr
          endchar
        </CharString>
        <CharString name="Wcircumflex">
          375 11 callgsubr
          517 783 -101 callsubr
          -251 -815 rmoveto
          -95 callsubr
          endchar
        </CharString>
        <CharString name="Wdieresis">
          375 -47 callgsubr
          101 119 hstem
          556 791 -102 callgsubr
          -429 -791 rmoveto
          -95 callsubr
          endchar
        </CharString>
        <CharString name="Wgrave">
          375 -47 callgsubr
          227 -20 hstem
          204 hmoveto
          -95 callsubr
          481 70 -79 callgsubr
        </CharString>
        <CharString name="X">
          -8 18 callsubr
          -58 hmoveto
          150 hlineto
          208 254 100 -254 rlineto
          149 hlineto
          -156 350 315 360 rlineto
          -149 hlineto
          -218 -264 -106 264 45 callgsubr
          162 -360 rlineto
          endchar
        </CharString>
        <CharString name="X.sc">
          -73 -10 callsubr
          -54 hmoveto
          133 hlineto
          175 190 95 -190 rlineto
          131 hlineto
          -144 276 269 283 rlineto
          -131 hlineto
          -184 -198 -100 198 rlineto
          -132 hlineto
          150 -283 rlineto
          endchar
        </CharString>
        <CharString name="Y">
          -8 18 callsubr
          -84 callgsubr
          endchar
        </CharString>
        <CharString name="Y.sc">
          -80 -10 callsubr
          145 hmoveto
          120 hlineto
          42 193 291 366 rlineto
          -132 hlineto
          -198 -261 -85 261 rlineto
          -131 hlineto
          134 -365 rlineto
          endchar
        </CharString>
        <CharString name="Yacute">
          -8 11 callgsubr
          -84 callgsubr
          311 666 -48 callgsubr
        </CharString>
        <CharString name="Ycircumflex">
          -8 11 callgsubr
          -84 callgsubr
          95 533 -61 callgsubr
        </CharString>
        <CharString name="Ydieresis">
          -8 -47 callgsubr
          101 119 hstem
          -84 callgsubr
          143 541 -102 callgsubr
          endchar
        </CharString>
        <CharString name="Ygrave">
          -8 -47 callgsubr
          227 -20 hstem
          -84 callgsubr
          152 530 -79 callgsubr
        </CharString>
        <CharString name="Ytilde">
          -8 -47 callgsubr
          98 -46 callgsubr
          hintmask 11101000
          -84 callgsubr
          239 538 -90 callsubr
          hintmask 11010000
          -92 callgsubr
          hintmask 11101000
          -51 callgsubr
        </CharString>
        <CharString name="Z">
          -30 16 callgsubr
          hstem
          -35 -72 callsubr
          endchar
        </CharString>
        <CharString name="Z.sc">
          -89 0 106 347 106 hstem
          -31 hmoveto
          469 hlineto
          23 106 rlineto
          -318 hlineto
          392 362 20 91 rlineto
          -457 hlineto
          -23 -106 rlineto
          316 hlineto
          -403 -8 callgsubr
          endchar
        </CharString>
        <CharString name="Zacute">
          -30 16 callgsubr
          206 -20 hstem
          526 916 -96 callgsubr
          -448 -780 rmoveto
          -71 callsubr
          endchar
        </CharString>
        <CharString name="Zcaron">
          -30 7 callgsubr
          hintmask 10110000
          341 783 -91 callgsubr
          -296 -884 rmoveto
          -76 callsubr
          hintmask 11010000
          -9 callgsubr
          361 hlineto
          -476 -485 rlineto
          endchar
        </CharString>
        <CharString name="Zdotaccent">
          -30 16 callgsubr
          80 126 hstem
          -35 -72 callsubr
          469 686 39 callgsubr
          endchar
        </CharString>
        <CharString name="Zdotbelow">
          -30 -31 callgsubr
          70 -10 callgsubr
          hstem
          -35 -72 callsubr
          268 -300 -45 callsubr
          endchar
        </CharString>
        <CharString name="a">
          -77 callgsubr
          -48 callsubr
          hintmask 10101000
          -84 callsubr
          hintmask 01110000
          -40 29 -20 47 13 -52 callgsubr
          vhcurveto
          -95 callgsubr
          78 368 -88 callsubr
          -20 -90 -51 callsubr
          hintmask 10110000
          -105 callsubr
          endchar
        </CharString>
        <CharString name="a.alt">
          -14 -10 114 -83 -21 419 114 -15 callgsubr
          hintmask 10110000
          201 -10 rmoveto
          71 58 35 60 44 hvcurveto
          hintmask 01110000
          -18 -85 rlineto
          -58 callsubr
          110 517 -88 callsubr
          -19 -86 rlineto
          62 -18 -53 40 -73 hhcurveto
          -149 -139 -153 -175 hvcurveto
          hintmask 10110000
          -122 70 -93 116 vhcurveto
          58 114 rmoveto
          -64 -39 53 69 94 80 99 85 53 40 -42 -61 9 hvcurveto
          -27 -124 rlineto
          -53 -36 -47 -35 -54 hhcurveto
          endchar
        </CharString>
        <CharString name="a.alt2">
          -83 0 88 -77 -21 260 75 115 93 hstemhm
          -10 132 245 134 hintmask 01111100
          130 -10 rmoveto
          69 65 27 56 49 hvcurveto
          hintmask 10111100
          -15 -73 rlineto
          129 hlineto
          67 317 rlineto
          5 21 2 20 18 vvcurveto
          100 -66 57 -124 -78 -75 -25 -42 -71 vhcurveto
          22 -85 rlineto
          39 62 54 20 53 hhcurveto
          59 30 -28 -48 -10 -1 -10 -2 -12 hvcurveto
          -7 -30 rlineto
          12 -23 -40 11 -51 hhcurveto
          -130 -123 -74 -125 hvcurveto
          hintmask 01111100
          -78 56 -58 84 vhcurveto
          hintmask 10111100
          59 98 rmoveto
          -39 -28 26 39 64 66 33 61 30 34 -7 -13 28 hvcurveto
          -13 -60 -3 -13 -11 -13 -14 -12 rlinecurve
          -29 -30 -45 -15 -36 hhcurveto
          endchar
        </CharString>
        <CharString name="aacute">
          14 callgsubr
          -84 callsubr
          hintmask 01111000
          -40 29 -20 47 13 -52 callgsubr
          vhcurveto
          -95 callgsubr
          78 368 -88 callsubr
          -20 -90 -51 callsubr
          hintmask 10111000
          -105 callsubr
          215 626 -48 callgsubr
        </CharString>
        <CharString name="abreve">
          -77 callgsubr
          63 60 -60 134 -48 callsubr
          -165 73 hintmask 10110010
          -84 callsubr
          hintmask 01110101
          -40 29 -20 47 13 -52 callgsubr
          vhcurveto
          -95 callgsubr
          78 368 -88 callsubr
          -20 -90 -51 callsubr
          hintmask 10110101
          -105 callsubr
          78 552 -41 callsubr
          hintmask 10101101
          -99 callgsubr
          hintmask 10110101
          -55 callsubr
        </CharString>
        <CharString name="acircumflex">
          14 callgsubr
          -84 callsubr
          hintmask 01111000
          -40 29 -20 47 13 -52 callgsubr
          vhcurveto
          -95 callgsubr
          78 368 -88 callsubr
          -20 -90 -51 callsubr
          hintmask 10111000
          -105 callsubr
          -8 493 -61 callgsubr
        </CharString>
        <CharString name="acute">
          -382 615 -21 136 -20 hstem
          223 730 -48 callgsubr
        </CharString>
        <CharString name="adblgrave">
          14 callgsubr
          -84 callsubr
          hintmask 01111000
          -40 29 -20 47 13 -52 callgsubr
          vhcurveto
          -95 callgsubr
          78 368 -88 callsubr
          -20 -90 -51 callsubr
          hintmask 10111000
          -105 callsubr
          133 489 -93 callgsubr
          endchar
        </CharString>
        <CharString name="adieresis">
          -77 callgsubr
          71 119 -48 callsubr
          hintmask 10110100
          -84 callsubr
          hintmask 01111000
          -40 29 -20 47 13 -52 callgsubr
          vhcurveto
          -95 callgsubr
          78 368 -88 callsubr
          -20 -90 -51 callsubr
          hintmask 10111000
          -105 callsubr
          37 500 -102 callgsubr
          endchar
        </CharString>
        <CharString name="ae">
          267 52 callsubr
          hstemhm
          -10 131 615 136 hintmask 11011100
          132 -10 -70 callsubr
          hintmask 10111100
          -45 callgsubr
          hintmask 11011100
          10 callsubr
        </CharString>
        <CharString name="aeacute">
          266 52 callsubr
          9 callgsubr
          hstemhm
          -11 131 615 136 hintmask 11011110
          638 730 -96 callgsubr
          -394 -604 -70 callsubr
          hintmask 10111110
          -45 callgsubr
          hintmask 11011110
          10 callsubr
        </CharString>
        <CharString name="afii61352">
          470 21 -21 339 84 205 81 1 -20 23 -20 hstemhm
          770 100 165 100 hintmask 11100110
          485 hmoveto
          111 -83 callgsubr
          -99 -465 rlineto
          hintmask 11010110
          -243 12 callsubr
          -151 -710 rlineto
          138 hlineto
          96 455 rlineto
          669 -116 rmoveto
          131 91 111 114 hvcurveto
          hintmask 11001110
          82 -48 67 -94 -131 -92 -110 -115 -81 48 -68 95 vhcurveto
          -43 162 rmoveto
          hintmask 11100110
          70 51 57 54 36 24 -32 -45 -70 -51 -58 -53 -37 -24 32 46 vhcurveto
          endchar
        </CharString>
        <CharString name="agrave">
          14 callgsubr
          -84 callsubr
          hintmask 01111000
          -40 29 -20 47 13 -52 callgsubr
          vhcurveto
          -95 callgsubr
          78 368 -88 callsubr
          -20 -90 -51 callsubr
          hintmask 10111000
          -105 callsubr
          32 489 -79 callgsubr
        </CharString>
        <CharString name="ainvertedbreve">
          -77 callgsubr
          63 -20 callsubr
          15 141 232 81 hintmask 10110110
          -84 callsubr
          hintmask 01110110
          -40 29 -20 47 13 -52 callgsubr
          vhcurveto
          -95 callgsubr
          78 368 -88 callsubr
          -20 -90 -51 callsubr
          hintmask 10110110
          -105 callsubr
          -50 492 rmoveto
          71 hlineto
          hintmask 10101110
          -75 callsubr
          hintmask 10110110
          -40 callsubr
        </CharString>
        <CharString name="amacron">
          -77 callgsubr
          99 83 -48 callsubr
          hintmask 10110100
          -84 callsubr
          hintmask 01111000
          -40 29 -20 47 13 -52 callgsubr
          vhcurveto
          -95 callgsubr
          78 368 -88 callsubr
          -20 -90 -51 callsubr
          hintmask 10111000
          -105 callsubr
          229 528 -64 callsubr
          endchar
        </CharString>
        <CharString name="ampersand">
          70 -10 103 -72 -21 320 96 204 99 hstemhm
          15 130 -11 125 hintmask 01110100
          445 hmoveto
          171 hlineto
          -119 170 31 43 27 50 20 57 rlinecurve
          81 hlineto
          15 96 rlineto
          -180 hlineto
          -10 -61 -19 -54 -24 -46 -117 170 rcurveline
          -45 66 -17 26 27 vvcurveto
          43 41 33 44 39 37 -30 -50 15 vhcurveto
          93 52 rlineto
          84 -24 -69 43 -79 hhcurveto
          -117 -105 -84 -113 -42 14 -38 34 -53 hvcurveto
          hintmask 10111000
          -90 -55 -77 -64 -106 vvcurveto
          -95 65 -79 116 67 72 27 50 64 vhcurveto
          hintmask 01111000
          hintmask 10111000
          -168 26 rmoveto
          -48 -38 30 56 50 31 36 63 38 hvcurveto
          110 -162 rlineto
          -31 -38 -41 -17 -39 hhcurveto
          endchar
        </CharString>
        <CharString name="aogonek">
          -3 -175 -21 186 -63 callgsubr
          hstem
          15 141 184 87 vstem
          437 25 callgsubr
          -95 callgsubr
          78 368 -88 callsubr
          -20 -90 rlineto
          59 -19 -53 42 -72 hhcurveto
          -152 -135 -155 -173 -121 70 -94 116 69 74 35 66 50 hvcurveto
          -4 -17 -2 -12 -9 vvcurveto
          -32 17 -18 31 -7 vhcurveto
          39 callsubr
          -176 300 -4 callgsubr
        </CharString>
        <CharString name="apostrophe">
          -105 606 -21 145 -20 hstem
          327 28 callsubr
          endchar
        </CharString>
        <CharString name="approxequal">
          -172 134 83 -39 39 -39 86 25 83 -38 38 -38 85 hstemhm
          hintmask 10001000
          333 397 rmoveto
          -12 -8 -15 -13 -27 hhcurveto
          hintmask 10000100
          -48 -23 47 -61 hhcurveto
          -52 -31 -32 -34 -18 hvcurveto
          61 -44 rlineto
          13 7 12 12 26 hhcurveto
          hintmask 01010000
          44 26 -45 61 hhcurveto
          53 34 34 34 19 hvcurveto
          -60 -115 rmoveto
          -13 -8 -15 -12 -27 hhcurveto
          hintmask 00110000
          -48 -23 47 -61 hhcurveto
          -52 -31 -33 -33 -18 hvcurveto
          61 -44 rlineto
          12 7 12 12 26 hhcurveto
          hintmask 10010000
          44 26 -44 61 hhcurveto
          53 34 33 32 19 hvcurveto
          endchar
        </CharString>
        <CharString name="aring">
          -77 callgsubr
          43 41 72 41 -15 callgsubr
          91 58 83 52 hintmask 10111111
          -84 callsubr
          hintmask 01111111
          -40 29 -20 47 13 -52 callgsubr
          vhcurveto
          -95 callgsubr
          78 368 -88 callsubr
          -20 -90 -51 callsubr
          hintmask 10111111
          -105 callsubr
          -14 534 -89 callsubr
          endchar
        </CharString>
        <CharString name="aringacute">
          -77 callgsubr
          43 41 72 41 156 -20 -15 callgsubr
          90 58 84 51 hintmask 1011111110000000
          -84 callsubr
          hintmask 0111111110000000
          -40 29 -20 47 13 -52 callgsubr
          vhcurveto
          -95 callgsubr
          78 368 -88 callsubr
          -20 -90 -51 callsubr
          hintmask 1011111110000000
          -105 callsubr
          250 782 -96 callgsubr
          -152 -112 -89 callsubr
          endchar
        </CharString>
        <CharString name="asciicircum">
          -38 324 -21 407 -20 hstem
          156 303 rmoveto
          146 294 143 -294 rlineto
          110 hlineto
          -197 407 rlineto
          -112 hlineto
          -198 -407 rlineto
          endchar
        </CharString>
        <CharString name="asciitilde">
          -81 228 78 -26 26 -26 80 hstemhm
          hintmask 10000000
          41 228 rmoveto
          74 hlineto
          hintmask 01000000
          2 15 50 54 vhcurveto
          hintmask 10000000
          56 39 -52 70 hhcurveto
          108 45 116 14 1 hvcurveto
          -73 hlineto
          -5 -19 -47 -54 vhcurveto
          hintmask 00100000
          -58 -37 54 -71 hhcurveto
          hintmask 10000000
          -103 -44 -109 -23 -3 hvcurveto
          endchar
        </CharString>
        <CharString name="asterisk">
          -290 507 -21 231 -20 hstem
          164 486 rmoveto
          60 75 27 -75 59 34 -30 71 71 22 -5 58 -75 -31 21 77 rlineto
          -71 hlineto
          -12 -77 -62 31 -30 -58 62 -22 -59 -71 rlineto
          endchar
        </CharString>
        <CharString name="at">
          186 -146 54 76 60 -47 67 323 76 86 54 hstemhm
          20 57 84 81 237 67 155 57 hintmask 1101111110000000
          578 44 rmoveto
          -22 -10 13 25 9 1 13 3 11 hvcurveto
          67 335 rlineto
          -68 hlineto
          -14 -74 rlineto
          50 -15 -44 37 -67 hhcurveto
          -128 -120 -135 -147 hvcurveto
          hintmask 1011111110000000
          -105 61 -79 99 55 55 25 45 49 vhcurveto
          -1 -5 0 -6 -6 vvcurveto
          hintmask 1101111110000000
          -46 31 -20 43 137 68 201 128 164 -111 126 -182 -225 -220 -189 -256 -183 112 -121 168 55 59 13 27 56 vhcurveto
          -6 52 rlineto
          -25 -56 -45 -13 -52 hhcurveto
          -146 -88 104 152 215 178 170 196 160 90 -113 -139 -104 -52 -149 -71 hvcurveto
          hintmask 1011111110000000
          -228 20 rmoveto
          -66 -42 56 73 108 86 86 77 48 38 -34 -60 13 hvcurveto
          -20 -127 rlineto
          -58 -24 -51 -44 -59 hhcurveto
          endchar
        </CharString>
        <CharString name="atilde">
          -77 callgsubr
          69 78 -33 80 3 -20 -48 callsubr
          hintmask 10110101
          -84 callsubr
          hintmask 01110110
          -40 29 -20 47 13 -52 callgsubr
          vhcurveto
          -95 callgsubr
          78 368 -88 callsubr
          -20 -90 -51 callsubr
          hintmask 10110110
          -105 callsubr
          133 498 -90 callsubr
          hintmask 10101010
          -92 callgsubr
          hintmask 10110110
          -51 callgsubr
        </CharString>
        <CharString name="b">
          34 callsubr
          439 141 hintmask 10111000
          282 -10 rmoveto
          153 145 150 181 117 -60 95 -111 -72 -69 -40 -61 -47 hvcurveto
          64 298 -88 callsubr
          hintmask 01111000
          -155 -730 rlineto
          117 hlineto
          19 91 rlineto
          hintmask 10111000
          -62 20 52 -39 78 hhcurveto
          -10 114 rmoveto
          -54 -40 37 51 -8 hvcurveto
          27 125 rlineto
          57 35 57 45 54 hhcurveto
          61 35 -57 -67 -101 -81 -90 -86 hvcurveto
          endchar
        </CharString>
        <CharString name="backslash">
          -23 18 callsubr
          107 710 rmoveto
          263 -710 rlineto
          148 hlineto
          -262 710 rlineto
          endchar
        </CharString>
        <CharString name="bar">
          -300 -109 -21 905 -20 hstem
          112 114 vstem
          226 -130 rmoveto
          905 -114 -905 vlineto
          endchar
        </CharString>
        <CharString name="braceleft">
          -319 -10 -21 771 -20 hstem
          80 130 vstem
          333 633 rmoveto
          23 107 rlineto
          -151 hlineto
          -7 -16 -5 -25 -5 hvcurveto
          -50 -237 rlineto
          -28 -6 -30 -37 -27 hhcurveto
          -20 -94 rlineto
          20 -4 16 -20 -27 vvcurveto
          -6 -1 -5 -1 -5 vhcurveto
          -52 -248 rlineto
          -1 -4 0 -4 -3 vvcurveto
          -15 9 -4 7 vhcurveto
          151 hlineto
          23 107 rlineto
          -52 hlineto
          45 215 rlineto
          1 5 1 5 6 vvcurveto
          21 -9 18 -12 14 vhcurveto
          24 19 19 23 6 27 43 204 rcurveline
          endchar
        </CharString>
        <CharString name="braceright">
          -318 -10 -21 771 -20 hstem
          171 633 rmoveto
          -44 -204 rlineto
          -1 -5 -1 -6 -6 vvcurveto
          -20 9 -18 11 -14 vhcurveto
          -22 -18 -20 -25 -6 -26 -45 -215 rcurveline
          -53 hlineto
          -22 -107 rlineto
          150 hlineto
          8 16 6 24 5 hvcurveto
          52 248 8 35 29 27 26 5 rlinecurve
          21 94 rlineto
          -23 -14 26 26 4 0 5 1 4 hvcurveto
          51 237 rlineto
          1 3 0 3 3 vvcurveto
          17 -11 4 -6 vhcurveto
          -150 hlineto
          -23 -107 rlineto
          endchar
        </CharString>
        <CharString name="bracketleft">
          -325 -40 107 566 107 hstem
          186 -40 rmoveto
          23 107 rlineto
          -61 hlineto
          120 566 rlineto
          61 hlineto
          22 107 rlineto
          -184 hlineto
          -166 -780 rlineto
          endchar
        </CharString>
        <CharString name="bracketright">
          -325 -40 107 566 107 hstem
          157 -40 rmoveto
          165 780 rlineto
          -185 hlineto
          -23 -107 rlineto
          61 hlineto
          -120 -566 rlineto
          -61 hlineto
          -23 -107 rlineto
          endchar
        </CharString>
        <CharString name="breve">
          -311 596 -19 callgsubr
          45 73 hintmask 10100000
          161 656 -41 callsubr
          hintmask 01100000
          -99 callgsubr
          hintmask 10100000
          -55 callsubr
        </CharString>
        <CharString name="brokenbar">
          -307 -109 -21 905 -20 hstem
          108 114 vstem
          108 264 rmoveto
          -394 114 394 vlineto
          -114 511 rmoveto
          -394 114 394 vlineto
          endchar
        </CharString>
        <CharString name="bullet">
          -273 245 209 hstem
          83 206 vstem
          289 368 rmoveto
          47 -32 39 -49 -62 -63 -57 -66 -48 33 -38 47 64 62 57 66 vhcurveto
          endchar
        </CharString>
        <CharString name="c">
          -85 -10 -63 callgsubr
          hstem
          15 139 vstem
          228 -10 -87 callgsubr
          endchar
        </CharString>
        <CharString name="c_t">
          283 -9 113 -93 -21 429 114 -9 -20 174 60 hstemhm
          15 139 312 55 63 146 -43 136 hintmask 0110111100000000
          228 -10 rmoveto
          107 97 54 82 54 hvcurveto
          -122 40 rlineto
          hintmask 1010111010000000
          -39 -24 -50 -23 -38 hhcurveto
          -59 -39 52 70 100 76 93 86 43 30 -20 -40 14 hvcurveto
          139 40 rlineto
          -6 26 -15 64 51 vvcurveto
          68 26 70 80 45 15 -22 -41 vhcurveto
          hintmask 1001111100000000
          -24 -5 -31 -8 -36 vhcurveto
          -64 hlineto
          -22 -103 rlineto
          64 -27 callsubr
          -65 47 -27 62 54 58 20 16 39 vhcurveto
          106 vlineto
          -8 -18 -33 -11 -25 hhcurveto
          -22 -16 10 25 5 0 5 2 6 hvcurveto
          54 256 rlineto
          104 hlineto
          22 103 rlineto
          -104 hlineto
          hintmask 0110111010000000
          8 37 7 36 31 vvcurveto
          63 -29 47 -115 -136 -77 -73 -111 -20 4 -25 5 -16 vhcurveto
          26 -35 -33 14 -61 hhcurveto
          -199 -132 -163 -160 -117 73 -103 140 hvcurveto
          endchar
        </CharString>
        <CharString name="cacute">
          -85 -10 -63 callgsubr
          9 callgsubr
          hstem
          15 139 vstem
          482 730 -96 callgsubr
          -141 -604 -87 callgsubr
          endchar
        </CharString>
        <CharString name="caron">
          -272 618 -21 133 -20 hstem
          129 597 -91 callgsubr
          endchar
        </CharString>
        <CharString name="caron.alt">
          -382 606 -21 145 -20 hstem
          120 -47 callsubr
          endchar
        </CharString>
        <CharString name="ccaron">
          -85 -10 -63 callgsubr
          0 64 8 callgsubr
          15 139 hintmask 10111000
          303 597 -91 callgsubr
          5 -708 rmoveto
          111 94 57 79 52 hvcurveto
          -122 40 rlineto
          -35 -23 -46 -27 -43 hhcurveto
          -58 -39 51 71 hvcurveto
          hintmask 11011000
          110 80 83 83 42 31 -22 -38 13 vhcurveto
          138 40 rlineto
          80 -21 -67 54 -110 hhcurveto
          -190 -138 -157 -166 -120 74 -100 139 hvcurveto
          endchar
        </CharString>
        <CharString name="ccedilla">
          -85 34 callgsubr
          29 113 315 114 hstem
          15 139 107 64 vstem
          82 -176 rmoveto
          -76 callgsubr
          27 33 100 8 84 54 48 73 rlinecurve
          -122 40 rlineto
          -35 -23 -46 -27 -43 hhcurveto
          -58 -39 51 71 110 80 83 83 42 31 -22 -38 13 hvcurveto
          138 40 rlineto
          80 -21 -67 54 -110 hhcurveto
          -190 -138 -157 -166 -111 63 -94 119 -13 hvcurveto
          -58 -84 -73 callsubr
          endchar
        </CharString>
        <CharString name="ccircumflex">
          -85 -10 -63 callgsubr
          9 callgsubr
          hstem
          15 139 vstem
          277 597 -101 callsubr
          13 -639 -87 callgsubr
          endchar
        </CharString>
        <CharString name="cdotaccent">
          -85 -10 -63 callgsubr
          71 126 hstem
          15 139 vstem
          228 -10 -87 callgsubr
          190 614 39 callgsubr
          endchar
        </CharString>
        <CharString name="cedilla">
          -314 34 callgsubr
          66 -20 hstem
          161 64 vstem
          -18 -176 rmoveto
          -76 callgsubr
          45 54 -49 16 -83 -120 -73 callsubr
          endchar
        </CharString>
        <CharString name="cent">
          -56 -99 -21 131 -21 655 -20 hstem
          27 138 vstem
          237 -120 rmoveto
          24 110 rlineto
          64 116 45 91 57 hvcurveto
          -122 40 -17 -31 -41 -22 -32 -6 rlinecurve
          65 308 29 -3 26 -19 9 -34 rlinecurve
          139 40 -24 84 -67 46 -87 3 rlinecurve
          24 113 rlineto
          -60 hlineto
          -24 -113 rlineto
          -178 -26 -111 -148 -146 vvcurveto
          -108 64 -104 110 -9 vhcurveto
          -24 -111 rlineto
          -12 343 rmoveto
          79 55 91 70 16 vhcurveto
          -63 -296 rlineto
          -39 14 -23 46 50 vvcurveto
          endchar
        </CharString>
        <CharString name="circumflex">
          -272 618 -21 133 -20 hstem
          104 597 -61 callgsubr
        </CharString>
        <CharString name="colon">
          -383 0 144 230 144 hstem
          192 374 rmoveto
          30 52 callgsubr
          30 -374 rmoveto
          31 52 callgsubr
          endchar
        </CharString>
        <CharString name="colonmonetary">
          -79 -120 224 -114 114 -92 -21 428 226 -113 45 callsubr
          18 139 hintmask 10010010
          111 -120 rmoveto
          61 hlineto
          24 113 rlineto
          hintmask 01010010
          -2 11 11 -1 13 hhcurveto
          hintmask 00110010
          7 8 1 7 hhcurveto
          hintmask 10010010
          -24 -111 rlineto
          62 hlineto
          25 121 73 21 61 46 38 58 rlinecurve
          -122 40 rlineto
          -35 -23 -46 -27 -43 hhcurveto
          -58 -39 51 71 110 80 83 83 42 31 -22 -38 12 hvcurveto
          139 40 -16 58 -39 44 -62 20 rlinecurve
          27 124 rlineto
          -62 hlineto
          hintmask 10001010
          -25 -113 rlineto
          hintmask 10000110
          -7 -7 1 -7 hhcurveto
          -12 -12 -1 -1 -12 hvcurveto
          hintmask 10010010
          25 114 rlineto
          -62 hlineto
          -27 -127 rlineto
          -137 -43 -91 -130 -135 vvcurveto
          -90 41 -78 79 -34 vhcurveto
          endchar
        </CharString>
        <CharString name="comma">
          -397 -94 -21 259 -20 hstem
          45 -115 rmoveto
          65 119 30 140 rlineto
          -115 hlineto
          -30 -140 rlineto
          42 hlineto
          -53 -28 callgsubr
          endchar
        </CharString>
        <CharString name="commaaccent">
          -431 -6 callgsubr
          hstem
          86 -92 callsubr
          endchar
        </CharString>
        <CharString name="copyright">
          228 -7 50 73 114 249 114 72 50 hstem
          61 54 77 138 433 54 vstem
          436 -7 rmoveto
          219 162 155 207 206 -162 154 -219 -215 -160 -154 -206 -207 160 -155 215 hvcurveto
          50 vmoveto
          -184 -137 136 175 175 138 136 183 188 139 -136 -175 -184 -143 -127 -184 hvcurveto
          9 73 rmoveto
          112 79 63 68 31 hvcurveto
          -130 39 rlineto
          -35 -18 -39 -21 -37 hhcurveto
          -55 -58 45 80 67 41 57 71 32 39 -13 -41 21 hvcurveto
          130 40 rlineto
          78 -36 -80 50 -106 hhcurveto
          -165 -85 -117 -121 -135 103 -104 150 hvcurveto
          endchar
        </CharString>
        <CharString name="currency">
          -51 133 -21 39 84 205 85 42 -20 hstem
          103 100 186 100 vstem
          119 567 rmoveto
          -54 -55 68 -69 rlineto
          -20 -30 -10 -37 -39 vvcurveto
          -39 11 -36 20 -31 vhcurveto
          -69 -69 49 -50 73 69 rlineto
          -19 30 36 -11 43 hhcurveto
          42 36 11 18 29 hvcurveto
          72 -68 50 50 -69 68 rlineto
          21 31 12 37 39 vvcurveto
          40 -12 37 -20 31 vhcurveto
          68 67 -55 55 -69 -71 rlineto
          18 -29 -35 11 -41 hhcurveto
          -42 -35 -11 -19 -29 hvcurveto
          13 -158 rmoveto
          60 40 43 53 53 40 -42 -60 -60 -40 -43 -53 -53 -40 42 60 vhcurveto
          endchar
        </CharString>
        <CharString name="d">
          14 callgsubr
          201 -10 -37 callsubr
          hintmask 01111000
          -38 29 -19 47 13 -52 callgsubr
          vhcurveto
          -86 callgsubr
          hintmask 10111000
          -105 callsubr
          endchar
        </CharString>
        <CharString name="d.alt">
          34 callsubr
          15 141 hintmask 10111000
          201 -10 rmoveto
          69 58 34 58 44 hvcurveto
          hintmask 01111000
          -17 -82 rlineto
          -58 callsubr
          155 730 -88 callsubr
          -64 -298 rlineto
          59 -21 -50 42 -74 hhcurveto
          -150 -136 -154 -174 hvcurveto
          hintmask 10111000
          -121 70 -94 116 vhcurveto
          59 114 rmoveto
          -63 -41 53 70 94 78 98 85 50 46 -42 -60 7 hvcurveto
          -26 -125 rlineto
          -51 -28 -60 -37 -48 hhcurveto
          endchar
        </CharString>
        <CharString name="dagger">
          -178 -109 -21 341 120 444 -20 hstem
          197 -130 rmoveto
          72 341 rlineto
          125 hlineto
          26 120 rlineto
          -125 hlineto
          94 444 rlineto
          -127 hlineto
          -94 -444 rlineto
          -126 hlineto
          -25 -120 rlineto
          125 hlineto
          -72 -341 rlineto
          endchar
        </CharString>
        <CharString name="daggerdbl">
          -167 -109 -21 232 120 112 121 320 -20 hstem
          203 -130 rmoveto
          49 232 rlineto
          125 hlineto
          26 120 rlineto
          -125 hlineto
          -12 callgsubr
          124 -69 callsubr
          -124 hlineto
          68 320 rlineto
          -127 hlineto
          -68 -320 rlineto
          -126 13 callgsubr
          125 hlineto
          -24 -112 rlineto
          -125 hlineto
          -26 -120 rlineto
          125 hlineto
          -48 -232 rlineto
          endchar
        </CharString>
        <CharString name="dcaron">
          14 callgsubr
          742 -47 callsubr
          -460 -621 -37 callsubr
          hintmask 01111000
          -38 29 -19 47 13 -52 callgsubr
          vhcurveto
          -86 callgsubr
          hintmask 10111000
          -105 callsubr
          endchar
        </CharString>
        <CharString name="dcroat">
          -77 callgsubr
          58 80 -80 139 -15 callgsubr
          hintmask 10110100
          398 591 rmoveto
          82 hlineto
          -34 -159 rlineto
          59 -19 -53 42 -72 hhcurveto
          -152 -135 -155 -173 -121 70 -94 116 69 74 35 66 50 hvcurveto
          -4 -17 -1 -18 -5 vvcurveto
          hintmask 01110100
          -36 25 -22 50 13 -52 callgsubr
          vhcurveto
          -95 callgsubr
          92 437 rlineto
          71 hlineto
          17 80 rlineto
          -71 hlineto
          hintmask 10101100
          13 59 -88 callsubr
          hintmask 10110100
          -13 -59 rlineto
          -82 hlineto
          -154 -567 -4 callgsubr
        </CharString>
        <CharString name="ddotbelow">
          -3 -31 callgsubr
          60 -66 callsubr
          9 callgsubr
          -15 callgsubr
          hintmask 11011100
          269 -54 callsubr
          52 186 -37 callsubr
          hintmask 10111100
          -38 29 -19 47 13 -52 callgsubr
          vhcurveto
          -86 callgsubr
          hintmask 11011100
          -105 callsubr
          endchar
        </CharString>
        <CharString name="degree">
          -349 519 65 75 65 hstem
          103 66 71 67 vstem
          183 519 rmoveto
          68 56 54 70 46 -31 35 -49 -70 -54 -62 -64 -47 31 -32 49 hvcurveto
          14 65 rmoveto
          -18 -10 13 18 23 22 21 22 15 12 -11 -19 -24 -23 -21 -20 hvcurveto
          endchar
        </CharString>
        <CharString name="dieresis">
          -180 604 119 hstem
          184 604 -102 callgsubr
          endchar
        </CharString>
        <CharString name="divide">
          -107 48 129 67 107 68 128 hstem
          203 113 vstem
          316 419 rmoveto
          128 -113 -128 vlineto
          113 -371 rmoveto
          129 -113 -129 vlineto
          258 196 rmoveto
          107 -404 -107 vlineto
          endchar
        </CharString>
        <CharString name="dollar">
          -16 -96 -21 110 123 699 -20 hstem
          96 151 153 154 vstem
          617 636 rmoveto
          -44 37 -66 34 -82 7 22 101 rcurveline
          -59 hlineto
          -22 -101 rlineto
          -144 -12 -126 -95 -154 vvcurveto
          -82 53 -39 101 -32 vhcurveto
          35 -11 -36 -171 -89 11 -74 52 -12 22 rlinecurve
          -86 -119 57 -51 81 -32 87 -7 rlinecurve
          -23 -111 rlineto
          59 hlineto
          23 110 rlineto
          144 6 138 73 172 vvcurveto
          119 -116 32 -85 25 vhcurveto
          37 172 72 -8 62 -42 9 -18 rlinecurve
          -133 -322 rmoveto
          -50 -37 -34 -74 -2 vhcurveto
          34 160 rlineto
          47 -18 30 -20 -36 vvcurveto
          -153 297 rmoveto
          52 35 37 68 5 vhcurveto
          -34 -161 rlineto
          -45 16 -24 18 33 vvcurveto
          endchar
        </CharString>
        <CharString name="dotaccent">
          -412 604 126 hstem
          166 604 39 callgsubr
          endchar
        </CharString>
        <CharString name="dotbelow">
          -411 -31 callgsubr
          hstem
          126 -54 callsubr
          endchar
        </CharString>
        <CharString name="dotlessi">
          21 -21 524 -20 -27 callgsubr
          endchar
        </CharString>
        <CharString name="dotlessj">
          19 callgsubr
          604 -39 callsubr
          endchar
        </CharString>
        <CharString name="e">
          -56 callsubr
          -98 callsubr
          endchar
        </CharString>
        <CharString name="eacute">
          -29 callgsubr
          483 730 -96 callgsubr
          -140 -604 -107 callgsubr
          endchar
        </CharString>
        <CharString name="ebreve">
          -56 callsubr
          63 -19 callgsubr
          16 138 91 73 88 127 hintmask 11110111
          -104 callsubr
          34 220 -41 callsubr
          hintmask 11101111
          -99 callgsubr
          hintmask 11110111
          -55 callsubr
        </CharString>
        <CharString name="ecaron">
          -76 -10 98 130 85 0 133 97 64 8 callgsubr
          16 138 252 127 hintmask 11011110
          304 597 -91 callgsubr
          6 -708 rmoveto
          104 104 56 81 54 hvcurveto
          -106 33 rlineto
          -46 callsubr
          -69 -31 49 70 hvcurveto
          13 vlineto
          -2 28 25 0 24 hhcurveto
          201 101 57 112 94 -73 52 -113 -187 -144 -148 -174 -128 81 -93 133 hvcurveto
          hintmask 10111110
          -5 callsubr
        </CharString>
        <CharString name="ecircumflex">
          -29 callgsubr
          280 597 -101 callsubr
          12 -639 -107 callgsubr
          endchar
        </CharString>
        <CharString name="edblgrave">
          -29 callgsubr
          415 -67 callgsubr
          21 -740 -107 callgsubr
          endchar
        </CharString>
        <CharString name="edieresis">
          -56 callsubr
          71 119 -50 callgsubr
          319 604 -102 callgsubr
          -166 -614 -107 callgsubr
          endchar
        </CharString>
        <CharString name="edotaccent">
          -56 callsubr
          71 126 -98 callsubr
          92 168 39 callgsubr
          endchar
        </CharString>
        <CharString name="edotbelow">
          -76 -31 callgsubr
          60 98 130 85 133 97 -98 callsubr
          -73 -632 -45 callsubr
          endchar
        </CharString>
        <CharString name="egrave">
          -76 -10 98 130 85 133 97 197 -20 -98 callsubr
          -1 157 -79 callgsubr
        </CharString>
        <CharString name="eight">
          10 callgsubr
          95 -95 140 hintmask 11110100
          224 -9 rmoveto
          152 146 105 146 64 -33 50 -39 24 hvcurveto
          hintmask 11101001
          -24 callsubr
          vhcurveto
          27 121 rmoveto
          40 callgsubr
          -72 -70 -54 -65 hvcurveto
          66 313 rmoveto
          hintmask 11101010
          -37 -37 24 45 41 callsubr
          hvcurveto
          endchar
        </CharString>
        <CharString name="eight.denominator">
          -220 -5 79 116 65 90 76 hstemhm
          -7 -1 callsubr
          hintmask 11110100
          138 -5 -26 callgsubr
          hintmask 11101010
          -60 callgsubr
          hintmask 11110100
          -80 callsubr
          hintmask 11101010
          -54 callgsubr
          endchar
        </CharString>
        <CharString name="eight.lnum">
          10 callgsubr
          140 hintmask 11110100
          522 242 rmoveto
          64 -33 50 -39 24 vhcurveto
          hintmask 11101010
          -24 callsubr
          152 146 105 146 vhcurveto
          -136 -4 rmoveto
          -72 -70 -54 -65 40 callgsubr
          vhcurveto
          hintmask 11101010
          -143 256 rmoveto
          41 callsubr
          -37 -37 24 45 vhcurveto
          endchar
        </CharString>
        <CharString name="eight.numerator">
          -220 303 80 116 65 90 76 hstemhm
          59 82 -27 78 133 79 -58 82 hintmask 11110100
          404 449 rmoveto
          39 -25 29 -36 17 vhcurveto
          hintmask 11101010
          47 18 38 32 47 vvcurveto
          59 -66 40 -68 -80 -100 -52 -75 -34 21 -23 28 -12 vhcurveto
          hintmask 11110100
          -54 -22 -50 -33 -63 vvcurveto
          -64 59 -49 86 102 98 63 83 vhcurveto
          -79 -2 rmoveto
          -38 -53 -26 -50 -41 -40 19 32 38 52 27 52 41 39 -20 -32 vhcurveto
          hintmask 11101010
          -133 157 rmoveto
          30 42 20 44 37 31 -15 -25 -32 -49 -18 -38 -33 -34 14 26 vhcurveto
          endchar
        </CharString>
        <CharString name="eightinferior">
          -220 -90 79 116 65 90 77 hstemhm
          -25 83 -28 78 133 80 -59 83 hintmask 11110100
          321 56 rmoveto
          39 -26 29 -35 17 vhcurveto
          hintmask 11101010
          46 18 39 32 47 vvcurveto
          59 -67 40 -68 -80 -100 -53 -75 -33 22 -23 27 -12 vhcurveto
          hintmask 11110100
          -54 -22 -50 -33 -63 vvcurveto
          -64 60 -49 85 102 99 62 84 vhcurveto
          -80 -2 rmoveto
          -38 -54 -27 -49 -41 -39 20 31 39 52 26 51 42 38 -19 -32 vhcurveto
          hintmask 11101010
          -133 156 rmoveto
          31 43 19 43 37 31 -15 -24 -32 -48 -19 -39 -33 -34 15 25 vhcurveto
          endchar
        </CharString>
        <CharString name="eightsuperior">
          -222 388 79 116 65 90 77 hstemhm
          75 83 -28 79 132 80 -58 82 hintmask 11110100
          421 533 rmoveto
          40 -25 28 -36 18 vhcurveto
          hintmask 11101010
          47 17 38 32 47 vvcurveto
          60 -66 40 -68 -80 -101 -53 -75 -34 22 -22 28 -12 vhcurveto
          hintmask 11110100
          -54 -22 -51 -34 -63 vvcurveto
          -63 60 -49 86 102 98 62 83 vhcurveto
          -80 -1 rmoveto
          -38 -53 -27 -49 -41 -40 19 32 38 52 27 52 41 38 -19 -32 vhcurveto
          hintmask 11101010
          -132 156 rmoveto
          30 42 20 44 37 31 -15 -25 -31 -49 -19 -38 -33 -34 15 25 vhcurveto
          endchar
        </CharString>
        <CharString name="einvertedbreve">
          -56 callsubr
          63 -20 callsubr
          16 138 252 127 -110 72 hintmask 11110110
          237 50 callsubr
          hintmask 11101101
          -75 callsubr
          hintmask 11110101
          -97 callsubr
          -7 -606 rmoveto
          104 104 56 81 54 hvcurveto
          -106 33 rlineto
          -46 callsubr
          -69 -31 49 70 hvcurveto
          13 vlineto
          -2 28 25 0 24 hhcurveto
          hintmask 11110110
          201 101 57 112 94 -73 52 -113 -187 -144 -148 -174 -128 81 -93 133 hvcurveto
          -5 callsubr
        </CharString>
        <CharString name="ellipsis">
          -34 0 144 hstem
          104 hmoveto
          31 27 callsubr
          294 hmoveto
          47 callgsubr
          294 hmoveto
          30 27 callsubr
          endchar
        </CharString>
        <CharString name="emacron">
          -56 callsubr
          99 83 -98 callsubr
          176 196 -64 callsubr
          endchar
        </CharString>
        <CharString name="emdash">
          263 214 121 hstem
          814 214 rmoveto
          26 121 rlineto
          -776 hlineto
          -26 -121 rlineto
          endchar
        </CharString>
        <CharString name="emspace">
          257 endchar
        </CharString>
        <CharString name="endash">
          6 callgsubr
        </CharString>
        <CharString name="eng">
          -45 19 callgsubr
          101 -19 callsubr
          -9 17 callgsubr
          hintmask 11101000
          245 -196 rmoveto
          98 95 79 113 24 hvcurveto
          71 331 rlineto
          6 29 4 30 27 vvcurveto
          67 -27 53 -90 -86 -82 -40 -66 -51 vhcurveto
          hintmask 11011000
          -26 callsubr
          -111 -524 rlineto
          -53 callsubr
          hintmask 11101000
          63 32 66 46 49 hhcurveto
          35 22 -22 -46 -15 -3 -18 -4 -20 hvcurveto
          -65 -308 rlineto
          -40 -8 -34 -26 -31 hhcurveto
          -20 -19 7 15 -11 hvcurveto
          -76 -91 rlineto
          -32 28 41 -15 48 hhcurveto
          endchar
        </CharString>
        <CharString name="enspace">
          -53 endchar
        </CharString>
        <CharString name="eogonek">
          -76 -180 -21 289 130 0 85 0 133 0 97 hstemhm
          16 138 -48 87 213 127 hintmask 11010011
          203 -201 rmoveto
          -57 callgsubr
          84 15 78 50 45 67 -106 33 rcurveline
          -46 callsubr
          hintmask 10101101
          -69 -31 49 70 hvcurveto
          13 vlineto
          -2 28 25 0 24 hhcurveto
          201 101 57 112 94 -73 52 -113 -187 -144 -148 -174 -119 70 -89 117 -11 hvcurveto
          hintmask 11010011
          -65 -38 -32 -40 -2 callsubr
          124 637 rmoveto
          47 32 -20 -38 -47 -45 -28 -129 -21 -20 0 1 -21 hvcurveto
          73 25 54 59 78 hhcurveto
          endchar
        </CharString>
        <CharString name="equal">
          -142 144 87 90 87 hstem
          393 144 rmoveto
          87 -313 -87 vlineto
          313 177 rmoveto
          87 -313 -87 vlineto
          endchar
        </CharString>
        <CharString name="estimated">
          -11 -10 46 210 49 192 46 hstem
          31 125 301 124 vstem
          305 36 rmoveto
          -58 -55 27 42 -36 hvcurveto
          141 425 vlineto
          160 -112 127 -164 -162 -112 -125 -148 -145 110 -125 164 105 73 36 47 49 vhcurveto
          -31 35 rlineto
          -39 -39 -62 -33 -95 hhcurveto
          451 vmoveto
          60 54 -27 -49 38 hvcurveto
          -116 -301 117 vlineto
          48 36 55 27 58 hhcurveto
          endchar
        </CharString>
        <CharString name="eth">
          -35 -10 114 260 108 258 -20 hstemhm
          12 139 258 156 -126 126 hintmask 11110100
          555 713 rmoveto
          -87 -46 -20 24 -23 22 -27 17 rlinecurve
          -170 hlineto
          56 -36 42 -37 31 -37 -86 -46 rcurveline
          27 -52 93 49 32 -55 13 -59 3 -63 rlinecurve
          47 -25 -53 31 -64 hhcurveto
          -145 -140 -130 -151 -115 84 -86 129 186 154 151 234 82 -20 89 -43 73 hvcurveto
          80 41 rlineto
          -431 -452 rmoveto
          86 74 70 83 vhcurveto
          hintmask 11111000
          62 39 -43 -59 -84 -74 -74 -84 -61 -39 45 59 hvcurveto
          endchar
        </CharString>
        <CharString name="etilde">
          -56 callsubr
          69 -46 callgsubr
          16 138 252 127 hintmask 11110111
          -104 callsubr
          89 166 -90 callsubr
          hintmask 11101011
          -92 callgsubr
          hintmask 11110111
          -51 callgsubr
        </CharString>
        <CharString name="exclam">
          -337 0 151 566 -20 hstem
          205 267 rmoveto
          95 450 -88 callsubr
          -95 -450 rlineto
          77 -267 rmoveto
          32 151 -88 callsubr
          -32 -151 rlineto
          endchar
        </CharString>
        <CharString name="exclamdown">
          -337 16 -21 566 151 hstem
          109 445 rmoveto
          -96 -450 rlineto
          -58 callsubr
          96 450 rlineto
          -78 267 rmoveto
          -32 -151 rlineto
          -58 callsubr
          32 151 rlineto
          endchar
        </CharString>
        <CharString name="f">
          -266 -191 -21 606 102 131 113 hstem
          -21 -212 rmoveto
          -58 callsubr
          129 606 rlineto
          120 hlineto
          22 102 -61 callsubr
          8 37 rlineto
          61 13 29 33 42 hhcurveto
          21 31 callgsubr
          -85 -82 -130 -26 hvcurveto
          -7 -32 -13 callgsubr
          endchar
        </CharString>
        <CharString name="f_f">
          -6 -24 callgsubr
          128 hlineto
          21 102 rlineto
          -128 hlineto
          8 37 rlineto
          49 11 30 44 50 hhcurveto
          26 21 -9 -9 16 hvcurveto
          48 101 rlineto
          14 -33 -34 17 -48 hhcurveto
          -60 -49 -25 -40 -38 51 callgsubr
          -79 -85 -110 -26 hvcurveto
          -3 -13 -13 callgsubr
          156 102 rmoveto
          3 17 rlineto
          45 8 27 32 27 callgsubr
        </CharString>
        <CharString name="f_f_i">
          177 -24 callgsubr
          135 hlineto
          -84 -394 20 callsubr
          105 51 callsubr
          11 34 44 59 hhcurveto
          41 45 -22 -29 26 hvcurveto
          74 100 rlineto
          38 -51 -59 27 -65 hhcurveto
          -71 -61 -25 -40 -43 51 callgsubr
          -81 -89 -106 -24 hvcurveto
          -3 -13 -13 callgsubr
          156 102 rmoveto
          3 17 rlineto
          42 9 26 35 27 callgsubr
        </CharString>
        <CharString name="f_f_l">
          259 0 112 -99 -21 402 102 94 114 -78 114 hstemhm
          590 237 -140 140 hintmask 01110100
          699 -8 rmoveto
          58 68 23 2 2 hvcurveto
          7 108 rlineto
          hintmask 10101010
          -2 -36 -13 -22 hhcurveto
          -26 -9 20 21 6 1 6 1 6 hvcurveto
          80 373 rlineto
          4 19 2 18 16 vvcurveto
          87 -56 56 -124 -74 -63 -22 -43 -46 vhcurveto
          hintmask 10110100
          17 -36 -37 12 -44 hhcurveto
          -106 -83 -86 -109 -25 hvcurveto
          -3 -13 -13 callgsubr
          -83 -394 rlineto
          16 callsubr
          119 hlineto
          -83 -394 rlineto
          16 callsubr
          81 hlineto
          22 102 rlineto
          -81 hlineto
          4 16 rlineto
          hintmask 10101010
          61 14 31 53 58 hhcurveto
          48 15 -27 -36 -12 -2 -15 -3 -15 hvcurveto
          -86 -403 rlineto
          hintmask 01110100
          -4 -16 -2 -9 -12 vvcurveto
          -50 38 -39 71 vhcurveto
          -435 504 rmoveto
          3 18 rlineto
          40 8 32 36 44 hhcurveto
          17 21 -3 -10 17 hvcurveto
          -9 -21 -8 -34 -6 -26 rrcurveto
          endchar
        </CharString>
        <CharString name="f_i">
          -75 21 -21 394 102 130 114 hstem
          25 hmoveto
          16 callsubr
          135 hlineto
          -83 33 callgsubr
          106 51 callsubr
          10 36 44 55 hhcurveto
          44 43 -21 -30 28 hvcurveto
          74 100 rlineto
          37 -48 -54 28 -72 hhcurveto
          -128 -100 -96 -116 -23 hvcurveto
          -7 -32 -13 callgsubr
          endchar
        </CharString>
        <CharString name="f_l">
          6 0 112 -99 -21 402 102 130 114 hstemhm
          338 236 -140 140 hintmask 01111000
          446 -8 rmoveto
          59 66 23 2 3 hvcurveto
          7 108 rlineto
          hintmask 10110100
          -1 -37 -13 -22 hhcurveto
          -25 -9 20 21 6 1 6 1 6 hvcurveto
          79 373 rlineto
          4 19 2 17 17 vvcurveto
          87 -56 56 -124 -131 -95 -71 -129 -28 vhcurveto
          -10 -44 -13 callgsubr
          -83 -394 rlineto
          16 callsubr
          82 hlineto
          21 102 rlineto
          -81 hlineto
          4 18 rlineto
          66 14 32 46 60 hhcurveto
          46 14 -27 -35 -13 -2 -16 -4 -18 hvcurveto
          -86 -402 rlineto
          hintmask 01111000
          -3 -14 -1 -10 -10 vvcurveto
          -50 37 -39 71 vhcurveto
          endchar
        </CharString>
        <CharString name="five">
          -94 -149 118 235 115 130 122 hstem
          321 140 vstem
          154 -149 rmoveto
          166 141 121 165 108 -70 74 -109 -41 -31 -12 -17 -16 hvcurveto
          58 159 rlineto
          236 hlineto
          26 122 rlineto
          -333 hlineto
          -28 -66 -106 -275 -34 -82 rrcurveto
          117 hlineto
          35 27 41 21 40 hhcurveto
          51 29 callgsubr
          -76 24 74 -47 97 hhcurveto
          endchar
        </CharString>
        <CharString name="five.denominator">
          -245 -5 75 143 60 69 80 hstem
          240 81 vstem
          114 -5 rmoveto
          112 95 70 95 67 -52 46 -79 -32 -26 -8 -10 31 callsubr
          80 rlineto
          -231 hlineto
          -25 -65 -55 -117 -29 -72 rrcurveto
          69 hlineto
          27 21 41 18 33 hhcurveto
          33 35 -19 -40 -54 -50 -30 -56 -47 -35 19 30 -19 hvcurveto
          -58 -53 rlineto
          -44 19 53 -27 67 hhcurveto
          endchar
        </CharString>
        <CharString name="five.lnum">
          -80 -10 119 235 115 129 122 hstem
          357 141 vstem
          191 -10 rmoveto
          165 142 122 164 108 -71 75 -109 -41 -30 -12 -18 -18 hvcurveto
          59 159 rlineto
          236 hlineto
          27 122 rlineto
          -334 hlineto
          -28 -66 -105 -274 -34 -82 rrcurveto
          116 hlineto
          35 28 41 21 40 hhcurveto
          50 29 callgsubr
          -77 25 73 -47 98 hhcurveto
          endchar
        </CharString>
        <CharString name="five.numerator">
          -245 303 77 142 60 69 79 hstem
          305 82 vstem
          256 -59 callsubr
          endchar
        </CharString>
        <CharString name="fiveeighths">
          259 32 callsubr
          48 77 -35 76 101 60 69 79 hstemhm
          314 82 71 -1 callsubr
          hintmask 0111011110100000
          265 -59 callsubr
          -115 -589 -88 callgsubr
          hintmask 1011011110100000
          510 -52 -26 callgsubr
          hintmask 1010111101010000
          -60 callgsubr
          hintmask 1011011110100000
          -80 callsubr
          hintmask 1010111101010000
          -54 callgsubr
          endchar
        </CharString>
        <CharString name="fiveinferior">
          -245 -90 76 143 60 69 79 hstem
          222 82 vstem
          173 189 rmoveto
          -33 -25 -9 -9 31 callsubr
          79 rlineto
          -232 hlineto
          -25 -65 -55 -116 -29 -72 rrcurveto
          70 hlineto
          26 21 41 19 32 hhcurveto
          33 35 -19 -41 -54 -49 -29 -56 -47 -36 19 29 -19 hvcurveto
          -58 -53 rlineto
          -43 20 53 -28 66 hhcurveto
          113 95 71 95 66 -53 47 -78 hvcurveto
          endchar
        </CharString>
        <CharString name="fivesuperior">
          -246 388 76 143 59 70 79 hstem
          323 81 vstem
          273 666 rmoveto
          -32 -25 -8 -10 -17 hvcurveto
          41 88 rlineto
          175 hlineto
          17 79 rlineto
          -232 hlineto
          -25 -65 -55 -116 -29 -73 rrcurveto
          70 hlineto
          27 20 41 19 33 hhcurveto
          33 35 -19 -41 -54 -49 -29 -56 -48 -36 18 30 -18 hvcurveto
          -58 -53 rlineto
          -44 19 53 -27 66 hhcurveto
          113 95 70 96 66 -52 46 -79 hvcurveto
          endchar
        </CharString>
        <CharString name="florin">
          -101 19 callgsubr
          440 103 164 113 hstem
          52 -196 rmoveto
          97 95 75 110 23 hvcurveto
          79 371 rlineto
          120 hlineto
          22 103 -61 callsubr
          15 70 rlineto
          61 13 28 33 42 hhcurveto
          22 31 callgsubr
          -84 -82 -130 -27 hvcurveto
          -14 -65 rlineto
          -65 hlineto
          -21 -103 rlineto
          64 hlineto
          -80 -374 rlineto
          -39 -8 -32 -27 -32 hhcurveto
          -20 -19 7 15 -11 hvcurveto
          -76 -91 rlineto
          -32 28 42 -15 48 hhcurveto
          endchar
        </CharString>
        <CharString name="four">
          -74 -106 -21 149 120 429 -20 hstem
          207 -127 rmoveto
          -58 callsubr
          31 149 rlineto
          84 hlineto
          26 120 rlineto
          -84 hlineto
          91 429 rlineto
          -91 hlineto
          -407 -430 26 callgsubr
          273 hlineto
          -113 120 rmoveto
          202 226 -48 -226 rlineto
          endchar
        </CharString>
        <CharString name="four.denominator">
          -232 0 171 23 callgsubr
          168 hmoveto
          78 hlineto
          hintmask 01100000
          -41 callgsubr
          hintmask 10100000
          14 callsubr
          endchar
        </CharString>
        <CharString name="four.lnum">
          -64 21 -21 161 121 428 -20 hstem
          377 hmoveto
          34 161 rlineto
          84 -74 callgsubr
          -84 hlineto
          91 428 rlineto
          -92 hlineto
          -412 -429 -26 -120 rlineto
          280 hlineto
          -34 -161 rlineto
          -85 282 rmoveto
          208 226 -49 -226 rlineto
          endchar
        </CharString>
        <CharString name="four.numerator">
          -231 310 169 23 callgsubr
          312 310 rmoveto
          hintmask 01100000
          20 91 rlineto
          58 hlineto
          17 78 rlineto
          -59 hlineto
          54 251 rlineto
          -55 hlineto
          -287 -251 -16 -78 rlineto
          209 hlineto
          hintmask 10100000
          -19 -91 rlineto
          71 323 rmoveto
          -32 -154 rlineto
          -136 hlineto
          endchar
        </CharString>
        <CharString name="fourinferior">
          -232 -84 170 23 callgsubr
          228 -84 rmoveto
          hintmask 01100000
          19 92 rlineto
          59 hlineto
          17 78 rlineto
          -59 hlineto
          53 251 rlineto
          -54 hlineto
          -287 -251 -17 -78 rlineto
          210 hlineto
          hintmask 10100000
          -20 -92 rlineto
          72 324 rmoveto
          -33 -154 rlineto
          -136 hlineto
          endchar
        </CharString>
        <CharString name="foursuperior">
          -231 394 170 23 callgsubr
          330 394 rmoveto
          hintmask 01100000
          20 92 rlineto
          58 hlineto
          17 78 rlineto
          -59 hlineto
          54 251 rlineto
          -55 hlineto
          -287 -252 -16 -77 rlineto
          209 hlineto
          hintmask 10100000
          -19 -92 rlineto
          71 323 rmoveto
          -32 -153 -85 callsubr
          endchar
        </CharString>
        <CharString name="fraction">
          -427 14 -21 725 -20 hstem
          -192 -7 -88 callgsubr
          endchar
        </CharString>
        <CharString name="franc">
          -42 0 195 -91 91 99 112 183 121 hstemhm
          hintmask 10110000
          180 hmoveto
          hintmask 01110000
          22 104 rlineto
          107 hlineto
          18 91 rlineto
          -105 hlineto
          21 99 rlineto
          263 hlineto
          25 5 callgsubr
          -264 hlineto
          39 183 rlineto
          317 -69 callsubr
          -455 hlineto
          -110 -515 rlineto
          -74 hlineto
          -19 -91 rlineto
          74 hlineto
          hintmask 10110000
          -22 -104 rlineto
          endchar
        </CharString>
        <CharString name="g">
          -49 callsubr
          hstemhm
          16 139 hintmask 11011000
          5 callsubr
          hintmask 11101000
          -103 callgsubr
          endchar
        </CharString>
        <CharString name="gacute">
          -49 callsubr
          226 -20 hstemhm
          16 139 hintmask 11011100
          461 730 -96 callgsubr
          -186 -817 -70 callgsubr
          hintmask 11101100
          -103 callgsubr
          endchar
        </CharString>
        <CharString name="gbreve">
          -49 callsubr
          92 -19 callgsubr
          16 139 81 73 hintmask 11011011
          5 callsubr
          hintmask 11101011
          -103 callgsubr
          93 552 -41 callsubr
          hintmask 11100111
          -99 callgsubr
          hintmask 11101011
          -55 callsubr
        </CharString>
        <CharString name="gcircumflex">
          -49 callsubr
          226 -20 hstemhm
          16 139 hintmask 11011100
          267 597 -101 callsubr
          -43 -852 -70 callgsubr
          hintmask 11101100
          -103 callgsubr
          endchar
        </CharString>
        <CharString name="gcommaaccent">
          -49 callsubr
          75 166 hstemhm
          16 139 hintmask 11011100
          361 745 rmoveto
          -56 -72 -19 -94 rlineto
          112 hlineto
          21 94 rlineto
          -40 hlineto
          43 72 rlineto
          -260 -968 -70 callgsubr
          hintmask 11101100
          -103 callgsubr
          endchar
        </CharString>
        <CharString name="gdotaccent">
          -49 callsubr
          100 126 hstemhm
          16 139 hintmask 11011100
          5 callsubr
          hintmask 11101100
          -103 callgsubr
          148 500 39 callgsubr
          endchar
        </CharString>
        <CharString name="germandbls">
          -89 -6 123 -96 -21 333 120 147 114 hstemhm
          355 140 -112 134 hintmask 10111000
          174 -6 rmoveto
          160 3 161 73 183 vvcurveto
          72 -34 58 -61 19 vhcurveto
          hintmask 01110100
          56 21 61 77 80 vvcurveto
          82 -64 52 -93 -121 -109 -79 -113 -24 vhcurveto
          -110 -522 rlineto
          127 hlineto
          106 499 rlineto
          57 12 31 44 53 hhcurveto
          32 26 -19 -38 -46 -33 -44 -54 hvcurveto
          -19 hlineto
          -25 -120 rlineto
          20 hlineto
          hintmask 10111000
          45 38 -31 -55 -87 -69 -42 -86 -1 hvcurveto
          endchar
        </CharString>
        <CharString name="grave">
          -381 614 -21 137 -20 hstem
          116 593 -79 callgsubr
        </CharString>
        <CharString name="greater">
          -77 -6 -21 570 -20 hstem
          502 288 rmoveto
          -422 255 rlineto
          -142 vlineto
          227 -142 -227 -136 rlineto
          -150 vlineto
          422 250 rlineto
          endchar
        </CharString>
        <CharString name="greaterequal">
          -124 28 108 465 -20 hstem
          79 28 rmoveto
          353 108 -353 hlineto
          2 53 rmoveto
          350 155 rlineto
          92 vlineto
          -350 165 rlineto
          -128 vlineto
          200 -80 -200 -74 rlineto
          endchar
        </CharString>
        <CharString name="guillemotleft">
          2 67 -21 431 -20 hstem
          19 223 -18 callsubr
          -292 -189 rlineto
          270 -65 -18 callsubr
          -293 -189 rlineto
          endchar
        </CharString>
        <CharString name="guillemotright">
          2 67 -21 431 -20 hstem
          590 288 rmoveto
          -212 189 -24 -109 124 -109 -169 -103 -22 -110 289 177 rlineto
          -270 65 4 callsubr
        </CharString>
        <CharString name="guilsinglleft">
          -282 67 -21 431 -20 hstem
          19 223 -18 callsubr
          -292 -189 rlineto
          endchar
        </CharString>
        <CharString name="guilsinglright">
          -282 67 -21 431 -20 hstem
          306 288 4 callsubr
        </CharString>
        <CharString name="h">
          -22 callgsubr
          9 callgsubr
          hstem
          398 145 vstem
          -4 hmoveto
          -82 callgsubr
          65 303 -88 callsubr
          endchar
        </CharString>
        <CharString name="hbar">
          -22 callgsubr
          58 80 -80 139 hstemhm
          398 145 hintmask 11101000
          62 591 rmoveto
          59 hlineto
          -125 -591 rlineto
          -82 callgsubr
          35 164 rlineto
          94 hlineto
          17 80 rlineto
          -94 hlineto
          hintmask 11011000
          13 59 -88 callsubr
          hintmask 11101000
          -13 -59 rlineto
          -59 hlineto
          endchar
        </CharString>
        <CharString name="hcircumflex">
          -22 callgsubr
          196 45 callsubr
          398 145 hintmask 11101000
          353 597 rmoveto
          88 63 62 -63 71 32 -74 100 rlineto
          -90 hlineto
          -114 -100 rlineto
          -300 -629 rmoveto
          -82 callgsubr
          hintmask 11011000
          65 303 -88 callsubr
          endchar
        </CharString>
        <CharString name="hdotbelow">
          -45 44 callgsubr
          415 118 9 callgsubr
          hstem
          398 145 vstem
          -4 hmoveto
          -82 callgsubr
          65 303 -88 callsubr
          95 -926 -45 callsubr
          endchar
        </CharString>
        <CharString name="hungarumlaut">
          -276 616 -21 135 -20 hstem
          195 730 -65 callgsubr
          endchar
        </CharString>
        <CharString name="hyphen">
          -225 214 121 hstem
          327 214 rmoveto
          26 121 rlineto
          -289 hlineto
          -26 -121 rlineto
          endchar
        </CharString>
        <CharString name="i">
          21 -57 callsubr
          endchar
        </CharString>
        <CharString name="iacute">
          -34 callsubr
          324 730 -96 callgsubr
          -215 -594 rmoveto
          -75 callgsubr
          endchar
        </CharString>
        <CharString name="ibreve">
          -40 callgsubr
          92 -19 callgsubr
          76 73 hintmask 11101000
          -4 hmoveto
          -75 callgsubr
          85 132 -41 callsubr
          hintmask 11011000
          -99 callgsubr
          hintmask 11101000
          -55 callsubr
        </CharString>
        <CharString name="icircumflex">
          -34 callsubr
          113 597 -101 callsubr
          -55 -629 rmoveto
          -75 callgsubr
          endchar
        </CharString>
        <CharString name="idblgrave">
          -34 callsubr
          253 -67 callgsubr
          -51 -730 rmoveto
          -75 callgsubr
          endchar
        </CharString>
        <CharString name="idieresis">
          -40 callgsubr
          100 119 hstem
          151 604 -102 callgsubr
          -232 -604 rmoveto
          -75 callgsubr
          endchar
        </CharString>
        <CharString name="idotbelow">
          -196 126 91 -57 callsubr
          -69 -926 -45 callsubr
          endchar
        </CharString>
        <CharString name="igrave">
          21 -21 524 -20 226 -20 -27 callgsubr
          47 69 -79 callgsubr
        </CharString>
        <CharString name="iinvertedbreve">
          -40 callgsubr
          92 -20 callsubr
          252 72 hintmask 11101000
          66 50 callsubr
          hintmask 11011000
          -75 callsubr
          hintmask 11101000
          -97 callsubr
          -70 -596 rmoveto
          -75 callgsubr
          endchar
        </CharString>
        <CharString name="ij">
          -116 19 callgsubr
          101 -57 callsubr
          19 -926 rmoveto
          99 94 79 113 24 hvcurveto
          112 528 -88 callsubr
          -115 -538 rlineto
          -39 -8 -32 -27 -32 hhcurveto
          -20 -19 7 15 -11 hvcurveto
          -76 -91 rlineto
          -32 28 42 -15 48 hhcurveto
          210 793 rmoveto
          -58 callsubr
          29 -25 callgsubr
          endchar
        </CharString>
        <CharString name="imacron">
          -40 callgsubr
          128 83 -27 callgsubr
          228 108 -64 callsubr
          endchar
        </CharString>
        <CharString name="infinity">
          93 168 102 162 103 hstem
          52 102 432 101 vstem
          221 535 rmoveto
          -96 -73 -82 -101 -100 84 -84 85 83 39 36 42 29 hvcurveto
          -42 30 40 -36 76 hhcurveto
          96 73 82 101 100 -65 84 -103 -80 -38 -40 -47 -31 hvcurveto
          47 -31 -38 40 -80 hhcurveto
          9 -265 rmoveto
          -36 -40 23 59 58 40 22 36 51 24 -37 -45 24 hvcurveto
          -44 -24 -25 -36 -50 hhcurveto
          280 hmoveto
          -49 -25 34 42 -22 hvcurveto
          47 21 22 39 53 hhcurveto
          37 39 -22 -58 -59 -39 -23 -37 hvcurveto
          endchar
        </CharString>
        <CharString name="integral">
          -268 -167 110 767 110 hstemhm
          100 131 -92 130 hintmask 11010000
          136 61 rmoveto
          1 -15 2 -46 -1 vvcurveto
          -35 -19 -21 -33 -14 -18 6 7 -17 vhcurveto
          -23 -96 rlineto
          -16 37 52 -11 40 hhcurveto
          80 45 42 77 3 -2 59 -1 23 hvcurveto
          -31 556 rlineto
          hintmask 11100000
          -1 22 -3 42 7 vvcurveto
          30 20 16 32 15 19 -6 -7 16 vhcurveto
          23 96 rlineto
          16 -37 -53 11 -39 hhcurveto
          -81 -46 -41 -68 -6 4 -62 1 -27 hvcurveto
          endchar
        </CharString>
        <CharString name="iogonek">
          -175 -21 217 21 callgsubr
          73 hstemhm
          -49 87 vstemhm
          -4 hmoveto
          58 hlineto
          -68 -39 -35 -37 callgsubr
          -62 callsubr
          16 73 rmoveto
          -58 callsubr
          hintmask 11110000
          28 -25 callgsubr
          endchar
        </CharString>
        <CharString name="itilde">
          -40 callgsubr
          98 -46 callgsubr
          hintmask 11101000
          -4 hmoveto
          -75 callgsubr
          144 78 -90 callsubr
          hintmask 11010000
          -92 callgsubr
          hintmask 11101000
          -51 callgsubr
        </CharString>
        <CharString name="j">
          -369 19 callgsubr
          604 -20 93 133 hstem
          -83 -36 callgsubr
          210 793 rmoveto
          -58 callsubr
          29 -25 callgsubr
          endchar
        </CharString>
        <CharString name="j.alt">
          -192 -21 810 129 hstem
          -49 -213 rmoveto
          -58 callsubr
          155 730 -88 callsubr
          17 80 rmoveto
          133 hlineto
          28 129 -88 callsubr
          endchar
        </CharString>
        <CharString name="jcircumflex">
          19 callgsubr
          604 -20 226 -39 callsubr
          194 793 -61 callgsubr
        </CharString>
        <CharString name="k">
          -67 21 -21 418 113 199 -20 hstem
          415 120 vstem
          -4 hmoveto
          -52 callsubr
        </CharString>
        <CharString name="kcommaaccent">
          -67 42 callsubr
          418 113 199 -20 hstem
          415 120 vstem
          206 -92 callsubr
          -149 213 rmoveto
          -52 callsubr
        </CharString>
        <CharString name="kgreenlandic">
          -88 21 -21 523 45 callsubr
          hintmask 11000000
          -4 hmoveto
          -58 callsubr
          33 156 79 71 93 -227 rlineto
          143 hlineto
          -134 301 231 222 rlineto
          -143 hlineto
          -242 -236 rlineto
          hintmask 10100000
          51 237 -88 callsubr
          endchar
        </CharString>
        <CharString name="l">
          -318 -8 35 callgsubr
          121 -8 -94 callgsubr
          endchar
        </CharString>
        <CharString name="l.alt">
          -368 21 -21 730 -20 hstem
          -2 hmoveto
          -58 callsubr
          155 730 -88 callsubr
          endchar
        </CharString>
        <CharString name="lacute">
          -318 -8 115 623 -20 181 -20 -23 callsubr
          357 891 -96 callgsubr
          -123 -763 -94 callgsubr
          endchar
        </CharString>
        <CharString name="lcaron">
          -323 -8 35 callgsubr
          384 -47 callsubr
          -182 -619 -94 callgsubr
          endchar
        </CharString>
        <CharString name="lcommaaccent">
          -318 -6 callgsubr
          39 35 callgsubr
          83 -92 callsubr
          99 205 -94 callgsubr
          endchar
        </CharString>
        <CharString name="ldot">
          -234 -8 115 159 151 313 -20 -23 callsubr
          121 -8 -94 callgsubr
          251 274 -21 callgsubr
        </CharString>
        <CharString name="less">
          -77 -6 -21 570 -20 hstem
          29 223 rmoveto
          422 -250 rlineto
          150 vlineto
          -227 136 227 142 rlineto
          142 vlineto
          -422 -255 rlineto
          endchar
        </CharString>
        <CharString name="lessequal">
          -150 28 108 465 -20 hstem
          403 28 rmoveto
          108 -353 -108 vlineto
          1 316 rmoveto
          350 -155 rlineto
          130 vlineto
          -200 74 200 80 rlineto
          128 vlineto
          -350 -165 rlineto
          endchar
        </CharString>
        <CharString name="lira">
          -113 -15 114 -85 85 -85 102 103 83 45 83 176 109 hstemhm
          126 118 hintmask 01011110
          54 347 rmoveto
          98 hlineto
          2 -13 1 -13 -12 vvcurveto
          -7 -111 vlineto
          -17 -83 rlineto
          105 hlineto
          -23 -45 -40 -43 -58 -44 9 -95 rcurveline
          13 43 51 9 33 hhcurveto
          hintmask 10011110
          62 52 -29 58 hhcurveto
          37 45 35 callsubr
          hintmask 00111110
          -43 -36 17 -45 hhcurveto
          -22 -24 -3 -9 -29 hvcurveto
          49 44 31 37 18 34 rrcurveto
          127 hlineto
          17 83 -15 callsubr
          1 6 0 7 7 8 -1 9 8 vvcurveto
          131 hlineto
          17 83 rlineto
          -164 hlineto
          -7 26 -5 24 23 vvcurveto
          59 45 44 53 45 48 -32 -46 22 vhcurveto
          87 82 rlineto
          65 -34 46 callsubr
          -25 4 -24 5 -25 hvcurveto
          -63 hlineto
          endchar
        </CharString>
        <CharString name="logicalnot">
          -36 127 -21 174 120 hstem
          78 400 rmoveto
          -25 -120 rlineto
          355 hlineto
          -37 -174 rlineto
          113 hlineto
          63 294 rlineto
          endchar
        </CharString>
        <CharString name="lozenge">
          -62 21 -21 730 -20 hstem
          222 730 rmoveto
          -186 -364 186 -366 rlineto
          148 hlineto
          186 366 -186 364 rlineto
          -66 -638 rmoveto
          -140 283 131 259 142 -280 rlineto
          endchar
        </CharString>
        <CharString name="lslash">
          -284 -8 115 623 -20 hstem
          48 146 -146 238 vstem
          28 269 rmoveto
          63 35 -38 -183 rlineto
          -3 -14 -2 -12 -12 vvcurveto
          -58 37 -33 68 39 53 10 17 39 vhcurveto
          5 102 rlineto
          -8 -18 -22 -6 -14 hhcurveto
          -27 -14 15 26 8 2 10 3 13 hvcurveto
          44 208 119 65 -18 72 -82 -45 54 251 -88 callsubr
          -71 -334 -101 -55 rlineto
          endchar
        </CharString>
        <CharString name="m">
          265 -16 callgsubr
          -9 -20 hstemhm
          386 145 177 145 hintmask 11011000
          -4 hmoveto
          -53 callsubr
          63 32 57 46 48 hhcurveto
          34 20 -21 -46 -16 -2 -17 -4 -21 -13 callsubr
          64 305 rlineto
          64 32 57 46 49 hhcurveto
          33 21 -22 -46 -15 -3 -18 -4 -20 -13 callsubr
          70 327 rlineto
          8 36 2 27 21 vvcurveto
          69 -27 53 -90 -76 -74 -39 -72 -55 vhcurveto
          67 -3 -34 44 -83 hhcurveto
          -76 -78 -40 -66 -50 hvcurveto
          hintmask 10111000
          -26 callsubr
          endchar
        </CharString>
        <CharString name="macron">
          -226 632 83 hstem
          354 632 -64 callsubr
          endchar
        </CharString>
        <CharString name="minus">
          -77 274 107 hstem
          481 274 rmoveto
          107 -404 -107 vlineto
          endchar
        </CharString>
        <CharString name="mu">
          7 30 callgsubr
          -40 -212 rmoveto
          -58 callsubr
          48 261 rlineto
          -34 2 23 -25 44 hhcurveto
          65 77 13 callsubr
          25 114 rlineto
          -21 1 -9 6 16 -56 callgsubr
          1 6 vhcurveto
          79 370 -88 callsubr
          -69 -325 rlineto
          hintmask 11010000
          -64 -43 -54 -31 -45 hhcurveto
          -41 -21 24 46 15 2 36 callsubr
        </CharString>
        <CharString name="multiply">
          -140 110 -21 369 -20 hstem
          319 275 rmoveto
          98 99 -83 84 -98 -99 -98 98 -85 -83 98 -99 -102 -102 83 -84 103 103 103 -103 85 83 rlineto
          endchar
        </CharString>
        <CharString name="n">
          -23 callgsubr
          hstemhm
          399 144 hintmask 11010000
          -4 hmoveto
          -53 callsubr
          -99 callsubr
          hintmask 10110000
          -26 callsubr
          endchar
        </CharString>
        <CharString name="nacute">
          -23 callgsubr
          226 17 callgsubr
          hintmask 11011000
          499 730 -96 callgsubr
          -390 -594 rmoveto
          -53 callsubr
          -99 callsubr
          hintmask 10111000
          -26 callsubr
          endchar
        </CharString>
        <CharString name="napostrophe">
          -23 callgsubr
          226 17 callgsubr
          hintmask 11011000
          30 28 callsubr
          46 -611 rmoveto
          -53 callsubr
          -99 callsubr
          hintmask 10111000
          -26 callsubr
          endchar
        </CharString>
        <CharString name="ncaron">
          -23 callgsubr
          29 64 133 17 callgsubr
          hintmask 10111100
          299 597 -91 callgsubr
          -223 -698 rmoveto
          -53 callsubr
          hintmask 11001100
          -99 callsubr
          hintmask 10111100
          -26 callsubr
          endchar
        </CharString>
        <CharString name="ncommaaccent">
          -45 42 callsubr
          415 118 -9 17 callgsubr
          hintmask 11101000
          198 -92 callsubr
          -141 213 rmoveto
          -53 callsubr
          -99 callsubr
          hintmask 11011000
          -26 callsubr
          endchar
        </CharString>
        <CharString name="ndotaccent">
          -23 callgsubr
          100 126 2 callsubr
          hintmask 11011000
          406 604 39 callgsubr
          -289 -604 rmoveto
          -53 callsubr
          -99 callsubr
          hintmask 10111000
          -26 callsubr
          endchar
        </CharString>
        <CharString name="nine">
          -53 -154 116 125 107 264 113 hstem
          33 130 244 124 vstem
          170 -154 rmoveto
          214 147 222 269 145 -70 89 -123 -160 -145 -134 -156 -110 75 -84 115 61 56 30 48 37 hvcurveto
          -128 -30 -69 -75 -81 hhcurveto
          -54 -44 30 50 -20 hvcurveto
          -94 -84 rlineto
          -72 36 65 -40 84 hhcurveto
          87 348 rmoveto
          -55 -39 46 60 83 77 75 73 56 38 -49 -61 -83 -75 -71 -75 hvcurveto
          endchar
        </CharString>
        <CharString name="nine.denominator">
          -214 -5 75 67 70 145 73 hstem
          21 78 195 73 vstem
          127 -5 rmoveto
          143 97 121 161 92 -51 56 -87 -110 -98 -77 -92 -68 55 -51 87 40 48 16 25 25 hvcurveto
          -69 -16 -51 -39 -63 hhcurveto
          -43 -34 16 28 -14 hvcurveto
          -59 -55 rlineto
          -42 24 48 -22 59 hhcurveto
          55 212 rmoveto
          -48 -35 27 35 43 55 40 58 47 35 -30 -35 -43 -55 -37 -57 hvcurveto
          endchar
        </CharString>
        <CharString name="nine.lnum">
          -35 -10 117 125 107 264 112 hstem
          72 132 244 123 vstem
          72 426 rmoveto
          -110 76 -84 115 61 56 30 48 37 vhcurveto
          -129 -30 -68 -74 -82 hhcurveto
          -54 -44 30 50 -19 hvcurveto
          -95 -84 rlineto
          -72 36 65 -41 85 hhcurveto
          213 147 223 268 146 -70 88 -123 -159 -147 -133 -156 hvcurveto
          282 177 rmoveto
          55 39 -50 -60 -83 -76 -71 -74 -56 -38 46 60 83 76 75 74 hvcurveto
          endchar
        </CharString>
        <CharString name="nine.numerator">
          -214 299 75 69 69 145 73 hstem
          86 77 197 72 vstem
          86 561 rmoveto
          -67 55 -51 86 41 48 15 25 25 vhcurveto
          -68 -16 -51 -41 -63 hhcurveto
          -43 -34 17 28 -14 hvcurveto
          -58 -55 rlineto
          -41 23 48 -24 42 callgsubr
          -86 -111 -97 -77 -92 hvcurveto
          191 96 rmoveto
          47 36 -30 -35 -43 -56 -37 -58 -47 -36 28 34 43 56 40 58 hvcurveto
          endchar
        </CharString>
        <CharString name="nineinferior">
          -213 -90 75 68 70 144 73 hstem
          3 78 195 73 vstem
          3 171 rmoveto
          -67 55 -51 87 40 47 callsubr
          -42 -35 17 28 -14 hvcurveto
          -58 -55 rlineto
          -42 23 49 -23 58 hhcurveto
          143 97 121 161 93 -51 55 -87 -110 -98 -77 -92 hvcurveto
          191 96 rmoveto
          48 34 -29 -35 -43 -55 -37 -57 -48 -35 27 35 43 55 39 58 hvcurveto
          endchar
        </CharString>
        <CharString name="ninesuperior">
          -214 384 75 68 70 144 74 hstem
          104 77 196 73 vstem
          104 645 rmoveto
          -67 56 -51 85 41 47 callsubr
          -43 -34 17 27 -15 hvcurveto
          -57 -54 rlineto
          -42 23 48 -23 42 callgsubr
          -87 -109 -98 -78 -92 hvcurveto
          191 96 rmoveto
          47 35 -29 -36 -43 -55 -36 -58 -47 -36 27 35 43 56 39 58 hvcurveto
          endchar
        </CharString>
        <CharString name="notequal">
          -152 47 -21 122 87 82 87 125 -20 hstem
          75 317 rmoveto
          144 hlineto
          -42 -82 rlineto
          -102 -87 58 hlineto
          -48 -96 50 -26 62 122 rlineto
          191 87 -147 hlineto
          42 82 rlineto
          105 87 -61 hlineto
          50 98 -51 27 -63 -125 rlineto
          -188 hlineto
          endchar
        </CharString>
        <CharString name="ntilde">
          -23 callgsubr
          98 78 -33 80 3 17 callgsubr
          hintmask 11010110
          -4 hmoveto
          -53 callsubr
          -99 callsubr
          hintmask 10110110
          -26 callsubr
          298 78 -90 callsubr
          hintmask 11001010
          -92 callgsubr
          hintmask 11010110
          -51 callgsubr
        </CharString>
        <CharString name="numbersign">
          65 21 -21 187 100 137 94 192 -20 hstem
          703 518 rmoveto
          -117 hlineto
          86 192 rlineto
          -108 hlineto
          -85 -192 rlineto
          -106 hlineto
          85 192 rlineto
          -107 hlineto
          -85 -192 19 callsubr
          -21 -94 rlineto
          115 hlineto
          -58 -137 rlineto
          -131 hlineto
          -21 -100 rlineto
          106 hlineto
          -83 -187 rlineto
          108 hlineto
          83 187 rlineto
          106 hlineto
          -83 -187 rlineto
          107 hlineto
          83 187 rlineto
          148 hlineto
          21 100 rlineto
          -124 hlineto
          59 137 rlineto
          139 hlineto
          -410 -137 rmoveto
          58 137 rlineto
          106 hlineto
          -59 -137 rlineto
          endchar
        </CharString>
        <CharString name="o">
          -41 -10 -63 callgsubr
          11 callsubr
          -74 callsubr
          endchar
        </CharString>
        <CharString name="oacute">
          -60 callsubr
          491 730 -96 callgsubr
          -151 -604 rmoveto
          -105 callgsubr
          endchar
        </CharString>
        <CharString name="obreve">
          -41 -10 -63 callgsubr
          63 -19 callgsubr
          15 139 95 73 93 139 hintmask 11101110
          -74 callsubr
          114 552 -41 callsubr
          hintmask 11011110
          -99 callgsubr
          hintmask 11101110
          -55 callsubr
        </CharString>
        <CharString name="ocircumflex">
          -60 callsubr
          278 597 -101 callsubr
          11 -639 rmoveto
          -105 callgsubr
          endchar
        </CharString>
        <CharString name="odblgrave">
          -60 callsubr
          417 -67 callgsubr
          16 -740 rmoveto
          -105 callgsubr
          endchar
        </CharString>
        <CharString name="odieresis">
          -41 -10 -63 callgsubr
          71 119 11 callsubr
          322 604 -102 callgsubr
          -172 -614 rmoveto
          -105 callgsubr
          endchar
        </CharString>
        <CharString name="odotbelow">
          -41 -31 callgsubr
          60 -63 callgsubr
          11 callsubr
          252 -54 callsubr
          95 186 rmoveto
          -105 callgsubr
          endchar
        </CharString>
        <CharString name="oe">
          338 -10 95 -95 114 115 83 117 114 -97 97 hstemhm
          3 callgsubr
          127 266 133 hintmask 10110111
          226 -10 rmoveto
          77 68 39 79 75 hvcurveto
          -77 42 54 -41 79 hhcurveto
          102 101 53 84 58 hvcurveto
          -105 32 rlineto
          -43 -24 -56 -31 -52 hhcurveto
          -62 -41 46 65 7 0 8 2 8 hvcurveto
          379 hlineto
          7 16 11 29 50 vvcurveto
          130 -79 89 -129 -84 -72 -41 -81 -67 vhcurveto
          78 -28 -57 44 -84 hhcurveto
          -173 -153 -144 -181 -126 81 -92 130 hvcurveto
          hintmask 01110111
          25 114 rmoveto
          -59 -38 50 69 107 79 89 85 60 37 -51 -70 -106 -78 -88 -86 hvcurveto
          306 198 rmoveto
          hintmask 10101111
          79 22 62 55 67 hhcurveto
          61 39 -43 -68 -7 -1 -8 -1 -8 hvcurveto
          endchar
        </CharString>
        <CharString name="ogonek">
          -347 -175 -21 217 -20 hstem
          38 87 vstem
          135 25 callgsubr
          -35 21 rlineto
          -96 -45 -48 -49 -47 -44 callgsubr
          endchar
        </CharString>
        <CharString name="ograve">
          -60 callsubr
          -74 callsubr
          79 489 -79 callgsubr
        </CharString>
        <CharString name="ohungarumlaut">
          -60 callsubr
          398 730 -65 callgsubr
          -221 -605 rmoveto
          -105 callgsubr
          endchar
        </CharString>
        <CharString name="oinvertedbreve">
          -41 -10 -63 callgsubr
          63 -20 callsubr
          3 callgsubr
          78 -78 139 hintmask 11101100
          235 50 callsubr
          hintmask 11011100
          -75 callsubr
          hintmask 11101100
          -97 callsubr
          -8 -606 rmoveto
          hintmask 11101010
          -105 callgsubr
          endchar
        </CharString>
        <CharString name="omacron">
          -41 -10 -63 callgsubr
          99 83 11 callsubr
          507 632 -64 callsubr
          6 -642 rmoveto
          -105 callgsubr
          endchar
        </CharString>
        <CharString name="one">
          -149 0 121 230 125 95 -20 hstem
          0 vmoveto
          393 -74 callgsubr
          -121 hlineto
          96 450 -85 callsubr
          -23 -16 -112 -72 -46 hhcurveto
          -27 -125 rlineto
          50 91 42 31 29 hvcurveto
          -65 -303 rlineto
          -135 hlineto
          endchar
        </CharString>
        <CharString name="one.denominator">
          -305 0 78 347 -20 hstem
          -17 hmoveto
          258 hlineto
          16 78 rlineto
          -85 hlineto
          74 347 rlineto
          -80 hlineto
          -2 -1 -72 -55 -47 hhcurveto
          -17 -79 rlineto
          36 63 32 19 20 hvcurveto
          -56 -262 rlineto
          -92 hlineto
          endchar
        </CharString>
        <CharString name="one.lnum">
          -153 0 121 376 124 96 -20 hstem
          0 vmoveto
          390 -74 callgsubr
          -120 hlineto
          126 596 -85 callsubr
          -4 -2 -104 -92 -68 hhcurveto
          -26 -124 rlineto
          51 94 55 31 27 hvcurveto
          -98 -462 rlineto
          -132 hlineto
          endchar
        </CharString>
        <CharString name="one.numerator">
          -338 306 78 347 -20 hstem
          219 384 -81 callgsubr
          endchar
        </CharString>
        <CharString name="oneeighth">
          239 32 callsubr
          51 78 -39 76 310 -20 hstemhm
          450 -1 callsubr
          hintmask 0111011010000000
          123 -7 -88 callgsubr
          153 337 -81 callgsubr
          hintmask 1011011010000000
          300 -389 -26 callgsubr
          hintmask 1010110101000000
          -60 callgsubr
          hintmask 1011011010000000
          -80 callsubr
          hintmask 1010110101000000
          -54 callgsubr
          endchar
        </CharString>
        <CharString name="onehalf">
          242 0 78 -64 -21 313 78 -35 77 305 -20 hstemhm
          742 89 hintmask 10011100
          440 hmoveto
          327 hlineto
          16 78 rlineto
          -202 hlineto
          7 31 29 30 63 21 rrcurveto
          86 28 65 39 94 vvcurveto
          65 -45 40 -84 -91 -70 -42 -27 -25 vhcurveto
          37 -58 rlineto
          23 26 43 27 53 hhcurveto
          43 24 -16 -29 -60 -73 -19 -68 -27 hvcurveto
          -99 -40 -40 -49 -22 -109 rrcurveto
          hintmask 01101100
          -330 -7 -88 callgsubr
          165 337 -81 callgsubr
          endchar
        </CharString>
        <CharString name="oneinferior">
          -305 -85 78 348 -20 hstem
          153 -7 rmoveto
          75 348 rlineto
          -81 hlineto
          -3 -1 -71 -54 -47 hhcurveto
          -17 -80 rlineto
          36 63 33 18 19 hvcurveto
          -55 -262 rlineto
          -93 hlineto
          -16 -78 rlineto
          258 hlineto
          16 78 rlineto
          endchar
        </CharString>
        <CharString name="onequarter">
          210 0 171 -157 -21 100 78 135 78 347 -20 hstemhm
          hintmask 10011000
          602 hmoveto
          78 hlineto
          hintmask 01111000
          -41 callgsubr
          hintmask 10011000
          14 callsubr
          hintmask 01111000
          -497 -178 -88 callgsubr
          130 337 -81 callgsubr
          endchar
        </CharString>
        <CharString name="onesuperior">
          -339 390 79 347 -20 hstem
          236 469 rmoveto
          75 347 rlineto
          -81 hlineto
          -3 -1 -61 -55 -39 hhcurveto
          -17 -79 rlineto
          30 53 33 18 17 hvcurveto
          -55 -261 rlineto
          -74 hlineto
          -17 -79 rlineto
          220 hlineto
          17 79 rlineto
          endchar
        </CharString>
        <CharString name="onethird">
          236 -5 79 -60 -21 189 72 52 78 -31 74 304 -20 hstemhm
          709 80 -55 87 hintmask 01110110
          112 -7 -88 callgsubr
          165 337 -81 callgsubr
          hintmask 10110110
          291 -389 22 callsubr
          hintmask 10101101
          -62 callgsubr
          hintmask 10110110
          -38 callgsubr
        </CharString>
        <CharString name="oogonek">
          -41 -180 -21 620 114 hstemhm
          15 139 -49 87 223 139 hintmask 11011000
          202 -201 rmoveto
          -64 callgsubr
          62 36 vhcurveto
          160 27 111 144 148 vvcurveto
          120 -73 99 -139 vhcurveto
          hintmask 11101000
          -190 -137 -159 -166 -111 63 -95 123 -11 hvcurveto
          hintmask 11011000
          39 callsubr
          49 305 rmoveto
          hintmask 11101000
          -59 -38 50 71 106 81 88 83 59 38 -50 -71 -107 -81 -87 -83 hvcurveto
          endchar
        </CharString>
        <CharString name="ordfeminine">
          -202 341 70 -51 -21 176 57 73 68 hstemhm
          68 94 156 97 hintmask 01111100
          160 339 rmoveto
          47 48 23 42 39 hvcurveto
          -1 -10 -1 -9 -4 vvcurveto
          hintmask 10111100
          -26 17 -14 37 10 16 1 3 16 vhcurveto
          18 85 rlineto
          -14 1 -6 4 13 vvcurveto
          3 0 4 1 4 vhcurveto
          23 104 rlineto
          3 15 2 14 14 vvcurveto
          70 -47 37 -84 -52 -49 -15 -32 -51 vhcurveto
          16 -61 rlineto
          26 43 34 14 37 hhcurveto
          38 18 -17 -32 -6 -1 -7 -1 -8 hvcurveto
          -4 -19 rlineto
          10 -19 -26 6 -30 hhcurveto
          -94 -75 -60 -80 hvcurveto
          hintmask 01111100
          -54 37 -39 55 vhcurveto
          hintmask 10111100
          44 72 rmoveto
          -25 -17 18 24 36 36 26 45 19 22 -4 -8 16 hvcurveto
          -8 -39 rlineto
          -27 -6 -48 -26 -34 hhcurveto
          endchar
        </CharString>
        <CharString name="ordmasculine">
          -199 339 84 205 85 hstem
          78 100 165 100 vstem
          221 339 rmoveto
          131 91 111 114 82 -48 67 -95 -130 -92 -110 -115 -81 48 -68 95 hvcurveto
          18 84 rmoveto
          -37 -24 32 46 70 51 57 53 37 24 -32 -45 -70 -51 -58 -53 hvcurveto
          endchar
        </CharString>
        <CharString name="oslash">
          -41 -10 114 -87 -21 423 114 -5 -20 hstemhm
          -4 callsubr
          hintmask 01101100
          -16 -4 rmoveto
          74 hlineto
          37 35 rlineto
          hintmask 10011100
          -7 callgsubr
          hintmask 01101100
          22 callgsubr
          hintmask 10101100
          -43 callgsubr
          endchar
        </CharString>
        <CharString name="oslashacute">
          -41 -10 114 -87 -21 423 114 -5 -20 222 -20 hstemhm
          -4 callsubr
          hintmask 01101110
          -16 -4 rmoveto
          74 hlineto
          37 35 rlineto
          hintmask 10011110
          -7 callgsubr
          hintmask 01101110
          22 callgsubr
          hintmask 10101110
          -43 callgsubr
          336 505 -48 callgsubr
        </CharString>
        <CharString name="otilde">
          -41 -10 -63 callgsubr
          69 -46 callgsubr
          -4 callsubr
          hintmask 11101110
          -74 callsubr
          166 498 -90 callsubr
          hintmask 11010110
          -92 callgsubr
          hintmask 11101110
          -51 callgsubr
        </CharString>
        <CharString name="p">
          -15 -192 -21 203 114 17 callsubr
          hstemhm
          439 140 hintmask 11101000
          -50 -213 rmoveto
          -58 callsubr
          65 305 rlineto
          -62 19 52 -40 76 hhcurveto
          150 133 156 172 120 -69 95 -113 -75 -67 -38 -61 -50 hvcurveto
          hintmask 11011000
          19 90 rlineto
          -117 hlineto
          169 -420 rmoveto
          -52 -41 45 59 -10 hvcurveto
          27 123 rlineto
          hintmask 11101000
          51 29 59 37 47 hhcurveto
          64 40 -53 -70 -95 -77 -97 -86 hvcurveto
          endchar
        </CharString>
        <CharString name="paragraph">
          8 -59 -21 690 100 hstem
          62 114 vstem
          62 396 rmoveto
          -113 63 -74 106 -1 vhcurveto
          -61 -288 rlineto
          114 hlineto
          61 288 rlineto
          46 hlineto
          -62 -288 rlineto
          114 hlineto
          147 690 rlineto
          66 hlineto
          22 100 rlineto
          -286 hlineto
          -202 -128 -124 -190 hvcurveto
          114 14 rmoveto
          104 59 91 82 5 vhcurveto
          -65 -302 rlineto
          -44 4 -32 36 62 vvcurveto
          236 -102 rmoveto
          -46 hlineto
          64 302 rlineto
          47 hlineto
          endchar
        </CharString>
        <CharString name="parenleft">
          -323 -32 -21 810 -20 hstem
          35 126 vstem
          35 263 rmoveto
          -104 29 -119 39 -93 vhcurveto
          109 49 rlineto
          -31 90 -20 103 82 vvcurveto
          141 101 167 105 135 vhcurveto
          -93 43 rlineto
          -133 -171 -106 -148 -175 vvcurveto
          endchar
        </CharString>
        <CharString name="parenright">
          -323 -32 -21 810 -20 hstem
          163 126 vstem
          289 431 rmoveto
          103 -28 118 -37 105 vhcurveto
          -112 -43 rlineto
          19 -49 32 -129 -112 vvcurveto
          -149 -86 -130 -114 -149 vhcurveto
          87 -49 rlineto
          127 150 112 158 176 vvcurveto
          endchar
        </CharString>
        <CharString name="partialdiff">
          -57 -10 104 242 102 166 111 hstemhm
          22 129 241 143 -124 124 hintmask 11110100
          254 -10 rmoveto
          169 112 145 255 220 -85 105 -152 -78 -72 -27 -47 -51 hvcurveto
          74 -78 rlineto
          25 25 49 16 42 hhcurveto
          77 47 -54 -139 hvcurveto
          -12 -1 -14 -14 vvcurveto
          42 -22 -48 25 -62 hhcurveto
          -134 -122 -107 -131 -119 97 -91 135 hvcurveto
          7 104 rmoveto
          -62 -48 50 63 71 60 58 70 hvcurveto
          hintmask 11111000
          62 49 -47 -62 -71 -62 -62 -69 hvcurveto
          endchar
        </CharString>
        <CharString name="percent">
          133 38 callgsubr
          89 95 134 94 -41 93 135 94 hintmask 11111101
          219 417 rmoveto
          100 93 81 96 71 -52 55 -77 -99 -95 -81 -96 -71 52 -55 78 hvcurveto
          14 67 rmoveto
          -30 -19 29 37 53 44 50 41 29 20 -29 -37 -53 -44 -50 -41 hvcurveto
          267 -494 rmoveto
          100 93 81 96 71 -51 55 -78 hvcurveto
          hintmask 11111011
          -99 -94 -81 -96 -71 52 -55 77 hvcurveto
          14 67 rmoveto
          -29 -21 29 37 53 45 50 41 29 20 -29 -37 -54 -43 -49 -42 hvcurveto
          -426 -64 rmoveto
          327 347 329 324 -49 54 -319 -342 -337 -329 rlineto
          endchar
        </CharString>
        <CharString name="period">
          -403 0 144 hstem
          104 hmoveto
          31 27 callsubr
          endchar
        </CharString>
        <CharString name="periodcentered">
          -403 242 151 hstem
          154 242 -21 callgsubr
        </CharString>
        <CharString name="perthousand">
          500 38 callgsubr
          94 94 135 94 -42 94 135 94 42 94 135 94 hintmask 1111110111000000
          225 417 rmoveto
          97 95 81 96 71 -51 55 -80 -97 -95 -81 -96 -71 51 -55 80 hvcurveto
          14 24 callgsubr
          268 -494 rmoveto
          97 94 81 96 71 -51 55 -80 hvcurveto
          hintmask 1111101111000000
          -97 -95 -81 -96 -71 52 -55 80 hvcurveto
          13 24 callgsubr
          352 -67 rmoveto
          97 94 81 96 71 -51 55 -80 -96 -96 -81 -97 -70 52 -55 80 hvcurveto
          13 67 rmoveto
          -30 -21 29 36 54 45 50 40 30 20 -29 -36 -54 -44 -50 -40 hvcurveto
          -793 -64 -88 callgsubr
          endchar
        </CharString>
        <CharString name="pi">
          86 -8 115 -86 -21 406 116 hstemhm
          127 132 130 133 hintmask 10111000
          519 -8 rmoveto
          40 53 10 17 36 hvcurveto
          -19 102 rlineto
          -8 -16 -21 -6 -16 hhcurveto
          -34 -20 22 39 hvcurveto
          238 96 116 -567 -116 76 vlineto
          hintmask 01111000
          -406 132 406 130 -285 vlineto
          hintmask 10111000
          -82 49 -47 81 vhcurveto
          endchar
        </CharString>
        <CharString name="plus">
          -200 209 -21 113 108 113 -20 hstem
          163 120 vstem
          283 409 rmoveto
          113 -120 -113 -104 -108 104 -113 120 113 103 108 vlineto
          endchar
        </CharString>
        <CharString name="plusminus">
          -116 28 108 187 107 127 -20 hstem
          184 120 vstem
          420 28 rmoveto
          108 -353 -108 vlineto
          237 402 rmoveto
          127 -120 -127 -117 -107 117 -127 120 127 117 107 vlineto
          endchar
        </CharString>
        <CharString name="product">
          140 -69 -21 684 116 hstem
          152 130 241 130 vstem
          523 -90 rmoveto
          130 684 80 116 -661 -116 80 -684 130 684 241 hlineto
          endchar
        </CharString>
        <CharString name="q">
          -16 -191 -21 202 114 17 callsubr
          hstemhm
          15 140 hintmask 11011000
          183 -10 rmoveto
          73 67 35 67 50 hvcurveto
          -45 -213 rlineto
          -1 -7 -1 -6 -7 vvcurveto
          -44 34 -27 48 21 28 2 4 23 50 callgsubr
          -21 1 -8 6 16 vvcurveto
          5 1 5 1 7 vhcurveto
          122 576 -8 callsubr
          hvcurveto
          74 114 -5 callgsubr
        </CharString>
        <CharString name="q.alt">
          -16 -192 -21 203 114 17 callsubr
          hstemhm
          15 140 hintmask 11011000
          309 -213 rmoveto
          -58 callsubr
          156 737 -8 callsubr
          73 67 35 67 50 hvcurveto
          -116 12 -5 callgsubr
        </CharString>
        <CharString name="question">
          -156 0 138 472 109 hstem
          365 120 vstem
          211 233 rmoveto
          14 68 64 20 58 33 rrcurveto
          77 43 61 48 118 vvcurveto
          109 -79 47 -83 -88 -88 -47 -82 -51 vhcurveto
          75 -60 rlineto
          36 27 43 44 54 hhcurveto
          39 31 -25 -44 -77 -75 -36 -79 -39 hvcurveto
          -73 -36 -24 -55 -13 -65 rrcurveto
          63 -233 rmoveto
          29 138 44 callsubr
          -29 -138 rlineto
          endchar
        </CharString>
        <CharString name="questiondown">
          -161 -213 109 472 138 hstem
          -37 120 vstem
          237 273 rmoveto
          -14 -68 -64 -20 -58 -33 rrcurveto
          -77 -43 -61 -48 -118 vvcurveto
          -109 79 -47 83 88 88 47 82 51 vhcurveto
          -75 60 rlineto
          -36 -27 -43 -44 -54 hhcurveto
          -39 -31 25 44 77 75 36 79 39 hvcurveto
          73 36 24 55 13 65 rrcurveto
          -63 233 rmoveto
          -29 -138 rlineto
          110 hlineto
          29 138 rlineto
          endchar
        </CharString>
        <CharString name="quotedbl">
          -240 21 callsubr
          269 hmoveto
          48 224 rlineto
          -114 hlineto
          -48 -224 rlineto
          endchar
        </CharString>
        <CharString name="quotedblbase">
          -196 -110 -21 131 146 4 callgsubr
          264 hmoveto
          61 129 32 148 rlineto
          -135 hlineto
          -31 -146 rlineto
          39 hlineto
          -50 -131 rlineto
          endchar
        </CharString>
        <CharString name="quotedblleft">
          -207 473 135 122 -6 callsubr
          93 hmoveto
          -60 -120 -29 -137 20 callsubr
          29 135 rlineto
          -40 hlineto
          48 122 rlineto
          endchar
        </CharString>
        <CharString name="quotedblright">
          -215 522 -21 122 135 hstem
          368 9 callsubr
          -93 hmoveto
          60 120 29 137 rlineto
          -135 hlineto
          -29 -135 rlineto
          40 hlineto
          -48 -122 rlineto
          endchar
        </CharString>
        <CharString name="quoteleft">
          -382 494 -21 257 -6 callsubr
          endchar
        </CharString>
        <CharString name="quoteright">
          -391 522 -21 257 -20 hstem
          192 9 callsubr
          endchar
        </CharString>
        <CharString name="quotesinglbase">
          -376 -110 -21 152 -21 146 -20 4 callgsubr
          endchar
        </CharString>
        <CharString name="quotesingle">
          -395 21 callsubr
          endchar
        </CharString>
        <CharString name="r">
          -17 callsubr
          hstemhm
          hintmask 11000000
          -4 hmoveto
          -81 callsubr
          hintmask 10100000
          -14 callsubr
        </CharString>
        <CharString name="racute">
          -17 callsubr
          226 -20 hstemhm
          hintmask 11010000
          403 730 -96 callgsubr
          -294 -594 rmoveto
          -81 callsubr
          hintmask 10110000
          -14 callsubr
        </CharString>
        <CharString name="radical">
          -137 21 -21 285 94 411 -20 hstem
          15 285 rmoveto
          102 hlineto
          82 -285 rlineto
          161 hlineto
          152 790 -61 callsubr
          -112 -690 -67 279 rlineto
          -198 hlineto
          endchar
        </CharString>
        <CharString name="rcaron">
          -17 callsubr
          25 68 8 callgsubr
          hintmask 10111000
          214 597 -91 callgsubr
          -138 -698 rmoveto
          -58 callsubr
          67 317 rlineto
          hintmask 11001000
          39 59 72 31 76 1 25 119 rcurveline
          1 -5 -6 1 -13 hhcurveto
          -62 -66 -46 -71 -51 hvcurveto
          hintmask 10111000
          -14 callsubr
        </CharString>
        <CharString name="rcommaaccent">
          -249 -213 166 68 15 callsubr
          hstemhm
          hintmask 11100000
          31 -92 callsubr
          26 213 rmoveto
          -81 callsubr
          hintmask 11010000
          -14 callsubr
        </CharString>
        <CharString name="rdblgrave">
          -17 callsubr
          226 -20 hstemhm
          hintmask 11010000
          317 -67 callgsubr
          -115 -730 rmoveto
          -81 callsubr
          hintmask 10110000
          -14 callsubr
        </CharString>
        <CharString name="rdotbelow">
          -249 -196 126 91 15 callsubr
          hstemhm
          hintmask 11100000
          -4 hmoveto
          -81 callsubr
          hintmask 11010000
          24 112 -39 callgsubr
          -24 -720 -45 callsubr
          endchar
        </CharString>
        <CharString name="registered">
          228 -7 49 94 230 -82 82 126 84 89 50 hstemhm
          61 57 157 96 146 94 149 57 hintmask 1101111110000000
          437 -7 rmoveto
          217 163 155 207 206 -163 154 -217 -217 -159 -154 -206 -207 159 -155 217 hvcurveto
          1 49 rmoveto
          -187 -133 137 176 174 133 136 187 186 136 -136 -176 -182 -140 -129 -182 hvcurveto
          -163 94 rmoveto
          96 hlineto
          hintmask 1011111110000000
          148 63 vlineto
          hintmask 1101111110000000
          93 -148 rlineto
          106 hlineto
          -103 166 rlineto
          48 19 33 53 55 vvcurveto
          71 -59 76 -81 vhcurveto
          -196 hlineto
          96 -210 rmoveto
          126 89 vlineto
          31 26 -21 -42 -40 -21 -23 -33 hvcurveto
          endchar
        </CharString>
        <CharString name="ring">
          -377 576 41 72 41 hstem
          45 58 78 57 vstem
          45 638 -89 callsubr
          endchar
        </CharString>
        <CharString name="rinvertedbreve">
          -17 callsubr
          92 -20 callsubr
          323 72 hintmask 11010100
          137 50 callsubr
          hintmask 11001100
          -75 callsubr
          hintmask 11010100
          -97 callsubr
          -141 -596 rmoveto
          -81 callsubr
          hintmask 10110100
          -14 callsubr
        </CharString>
        <CharString name="s">
          49 callgsubr
          -11 callgsubr
          184 -10 -100 callsubr
          endchar
        </CharString>
        <CharString name="s_t">
          203 -10 96 -96 124 -102 -21 430 113 -95 95 -10 -20 174 60 hstemhm
          50 124 123 128 -38 57 60 146 -43 136 hintmask 0100101110100000
          187 -10 rmoveto
          130 108 74 118 78 -50 26 -99 22 hvcurveto
          -69 15 -33 6 43 vvcurveto
          47 44 20 49 38 44 -13 -39 46 vhcurveto
          70 84 rlineto
          hintmask 1000011101010000
          -9 13 -12 39 37 vvcurveto
          65 36 53 73 39 15 -15 -41 -24 -5 -31 -8 -43 vhcurveto
          -65 hlineto
          hintmask 0011001110100000
          -22 -103 rlineto
          65 hlineto
          -61 -289 rlineto
          -4 -19 -3 -17 -13 vvcurveto
          -66 47 -26 62 52 59 20 16 40 vhcurveto
          106 vlineto
          hintmask 0101001110100000
          -7 -19 -32 -12 -25 hhcurveto
          -24 -14 10 26 4 0 4 2 7 hvcurveto
          54 256 rlineto
          104 hlineto
          hintmask 1000011101010000
          22 103 rlineto
          -104 hlineto
          9 43 6 37 30 vvcurveto
          66 -32 38 -106 -160 -58 -85 -92 -20 3 -21 5 -18 vhcurveto
          hintmask 0101001110100000
          25 -33 -52 7 -32 hhcurveto
          -108 -120 -77 -118 -80 53 -20 97 -26 hvcurveto
          63 -17 34 -8 -38 vvcurveto
          -42 -43 -22 -52 -54 -56 22 42 -52 vhcurveto
          -70 -91 rlineto
          -39 47 87 -30 83 hhcurveto
          endchar
        </CharString>
        <CharString name="sacute">
          49 callgsubr
          196 -20 -11 callgsubr
          432 730 -96 callgsubr
          -135 -604 -100 callsubr
          endchar
        </CharString>
        <CharString name="scaron">
          49 callgsubr
          0 63 8 callgsubr
          49 130 112 135 hintmask 10111100
          250 597 -91 callgsubr
          14 -708 rmoveto
          142 100 80 114 0 callgsubr
          hvcurveto
          0 callsubr
          hintmask 11011100
          47 39 22 47 45 43 -18 -40 43 vhcurveto
          71 81 rlineto
          50 -46 -61 22 -74 hhcurveto
          -127 -110 -81 -117 -62 45 -27 106 -32 hvcurveto
          63 -19 28 -13 -29 vvcurveto
          -42 -34 -26 -56 -56 -53 24 45 -50 vhcurveto
          -67 -84 rlineto
          -52 45 81 -29 83 hhcurveto
          endchar
        </CharString>
        <CharString name="schwa">
          -49 -10 97 134 83 131 98 hstem
          6 137 264 139 vstem
          219 -10 rmoveto
          191 136 158 167 120 -74 98 -138 -112 -98 -57 -80 -53 hvcurveto
          107 -32 rlineto
          43 25 55 28 50 hhcurveto
          56 43 -40 -66 -8 0 -9 -1 -8 hvcurveto
          -380 hlineto
          -13 -32 -7 -41 -34 vvcurveto
          -117 73 -90 140 vhcurveto
          23 97 rmoveto
          -60 -39 43 66 9 0 7 1 9 hvcurveto
          247 hlineto
          -79 -23 -60 -55 -66 hhcurveto
          endchar
        </CharString>
        <CharString name="scircumflex">
          49 callgsubr
          196 -20 -11 callgsubr
          232 597 -101 callsubr
          14 -639 -100 callsubr
          endchar
        </CharString>
        <CharString name="sdotbelow">
          -147 -31 callgsubr
          60 96 353 95 -11 callgsubr
          184 -10 -100 callsubr
          10 -186 -45 callsubr
          endchar
        </CharString>
        <CharString name="section">
          -112 -88 127 318 108 131 119 hstemhm
          68 128 -109 137 69 144 -105 131 hintmask 11101010
          421 215 rmoveto
          15 17 27 45 51 vvcurveto
          100 -92 34 -83 3 vhcurveto
          -36 1 -28 10 37 vvcurveto
          51 44 32 48 42 30 -19 -34 10 vhcurveto
          113 49 rlineto
          49 -21 -45 74 -112 hhcurveto
          -126 -120 -104 -118 -35 8 -29 10 -14 hvcurveto
          hintmask 11110100
          -13 -17 -24 -33 -57 vvcurveto
          -82 57 -55 107 -8 vhcurveto
          29 -2 32 -5 -36 vvcurveto
          -51 -50 -30 -46 -40 -34 17 42 -29 vhcurveto
          -103 -82 rlineto
          -38 23 61 -66 101 hhcurveto
          100 161 68 172 28 -6 23 -10 12 hvcurveto
          -225 94 rmoveto
          24 13 22 13 11 vhcurveto
          -4 8 20 -5 20 hhcurveto
          hintmask 11110010
          28 34 -13 -38 -22 -12 -24 -16 -12 hvcurveto
          -31 15 -77 -16 62 vvcurveto
          endchar
        </CharString>
        <CharString name="semicolon">
          -380 -94 -21 489 144 hstem
          192 374 rmoveto
          47 callgsubr
          -30 -489 rmoveto
          66 119 30 140 rlineto
          -116 hlineto
          -30 -140 rlineto
          42 hlineto
          -52 -28 callgsubr
          endchar
        </CharString>
        <CharString name="servicemark">
          136 411 64 -47 -21 241 62 5 -20 hstemhm
          119 83 59 85 hintmask 10101100
          573 553 rmoveto
          -19 157 rlineto
          -129 hlineto
          -63 -299 rlineto
          86 hlineto
          40 187 29 -145 rlineto
          70 hlineto
          90 145 -39 -187 rlineto
          86 hlineto
          63 299 rlineto
          -129 hlineto
          -287 -28 rmoveto
          hintmask 10011100
          21 -33 -37 12 -41 hhcurveto
          -77 -64 -45 -68 -38 28 -20 59 -16 hvcurveto
          41 -11 14 -7 -13 vvcurveto
          -15 -16 -7 -28 -37 -35 16 19 -25 vhcurveto
          -47 -64 rlineto
          hintmask 01101100
          -24 31 50 -15 49 hhcurveto
          82 61 38 71 42 -31 21 -63 15 hvcurveto
          -39 10 -11 8 11 vvcurveto
          16 15 9 29 30 25 -13 -17 25 vhcurveto
          endchar
        </CharString>
        <CharString name="seven">
          -81 -106 -21 588 122 hstem
          -39 -127 rmoveto
          152 hlineto
          486 710 rlineto
          -512 hlineto
          -26 -122 rlineto
          300 hlineto
          endchar
        </CharString>
        <CharString name="seven.denominator">
          -251 21 -21 342 80 hstem
          -17 hmoveto
          89 hlineto
          327 422 rlineto
          -350 hlineto
          -17 -80 rlineto
          226 hlineto
          endchar
        </CharString>
        <CharString name="seven.lnum">
          -81 21 -21 588 122 hstem
          -6 hmoveto
          151 hlineto
          486 710 rlineto
          -511 hlineto
          -27 -122 rlineto
          301 hlineto
          endchar
        </CharString>
        <CharString name="seven.numerator">
          -252 331 -21 341 79 hstem
          48 310 24 callsubr
        </CharString>
        <CharString name="seveneighths">
          228 32 callsubr
          90 76 230 79 hstemhm
          439 -1 callsubr
          hintmask 0111110100000000
          80 -7 -88 callgsubr
          hintmask 1011110100000000
          552 -52 -26 callgsubr
          hintmask 1011101010000000
          -60 callgsubr
          hintmask 1011110100000000
          -80 callsubr
          hintmask 1011101010000000
          -54 callgsubr
          -574 55 24 callsubr
        </CharString>
        <CharString name="seveninferior">
          -251 -63 -21 342 79 hstem
          -35 -84 rmoveto
          89 hlineto
          327 421 rlineto
          -350 hlineto
          -17 -79 rlineto
          226 hlineto
          endchar
        </CharString>
        <CharString name="sevensuperior">
          -250 415 -21 342 79 hstem
          67 394 rmoveto
          89 hlineto
          326 421 rlineto
          -350 hlineto
          -16 -79 rlineto
          226 hlineto
          endchar
        </CharString>
        <CharString name="six">
          -73 callgsubr
        </CharString>
        <CharString name="six.denominator">
          -215 -5 72 145 69 68 76 hstem
          7 72 196 77 vstem
          145 -5 rmoveto
          110 97 77 91 67 -54 51 -87 -39 -49 -14 -26 -25 hvcurveto
          69 16 50 39 64 hhcurveto
          42 35 -16 -28 14 hvcurveto
          58 55 rlineto
          42 -23 -48 23 -58 hhcurveto
          -143 -98 -122 -161 -93 51 -54 87 hvcurveto
          17 72 53 callsubr
          34 -27 -35 -44 -55 -39 -58 hvcurveto
          endchar
        </CharString>
        <CharString name="six.lnum">
          -73 callgsubr
        </CharString>
        <CharString name="six.numerator">
          -214 299 73 145 69 69 75 hstem
          72 72 197 77 vstem
          418 468 rmoveto
          67 -55 51 -88 -38 -49 -14 -26 -25 vhcurveto
          69 16 51 40 63 hhcurveto
          42 35 -17 -28 14 hvcurveto
          58 56 rlineto
          41 53 callgsubr
          -161 -93 51 -55 87 110 98 77 92 hvcurveto
          -191 -96 53 callsubr
          35 -27 -35 -44 -56 -39 -58 hvcurveto
          endchar
        </CharString>
        <CharString name="sixinferior">
          -215 -90 73 145 68 69 75 hstem
          -11 72 197 77 vstem
          335 78 rmoveto
          68 -55 50 -87 -39 -49 -14 36 callgsubr
          15 hvcurveto
          57 55 rlineto
          42 -23 -48 22 -58 hhcurveto
          -143 -98 -121 -3 callgsubr
          -28 -35 -43 -56 -39 -58 hvcurveto
          endchar
        </CharString>
        <CharString name="sixsuperior">
          -214 384 73 145 69 68 76 hstem
          90 72 197 77 vstem
          436 552 rmoveto
          68 -55 51 -88 -39 -48 -15 36 callgsubr
          14 hvcurveto
          58 55 rlineto
          42 53 callgsubr
          -3 callgsubr
          -27 -36 -43 -57 -39 -57 hvcurveto
          endchar
        </CharString>
        <CharString name="slash">
          65 18 callsubr
          597 710 rmoveto
          -624 -710 rlineto
          148 hlineto
          624 710 rlineto
          endchar
        </CharString>
        <CharString name="space">
          -391 endchar
        </CharString>
        <CharString name="sterling">
          -102 -15 114 -85 85 -85 102 164 101 225 109 hstemhm
          120 118 hintmask 01011100
          52 280 rmoveto
          94 hlineto
          -10 -68 -48 -62 -83 -63 9 -95 rcurveline
          13 43 51 9 33 hhcurveto
          hintmask 10011100
          62 52 -29 58 hhcurveto
          36 46 35 callsubr
          hintmask 00111100
          -43 -36 17 -46 hhcurveto
          -21 -24 -3 -9 -29 hvcurveto
          78 71 31 49 9 56 rrcurveto
          152 hlineto
          22 101 rlineto
          -176 hlineto
          -9 45 -14 40 37 vvcurveto
          59 45 44 53 45 48 -32 -46 21 vhcurveto
          87 82 rlineto
          65 -33 46 callsubr
          -40 12 -41 8 -42 hvcurveto
          -67 hlineto
          endchar
        </CharString>
        <CharString name="summation">
          -3 0 116 491 103 hstem
          557 710 rmoveto
          -480 -87 hlineto
          207 -267 -214 -265 rlineto
          -91 495 116 -342 4 vlineto
          197 249 -181 234 rlineto
          4 318 vlineto
          endchar
        </CharString>
        <CharString name="t">
          -254 -9 6 callsubr
          156 -9 -90 callgsubr
        </CharString>
        <CharString name="t.alt">
          -254 21 -21 403 121 170 -20 hstem
          37 hmoveto
          138 hlineto
          85 403 rlineto
          116 -74 callgsubr
          -115 hlineto
          36 170 19 callsubr
          -36 -170 rlineto
          -74 hlineto
          -26 -121 rlineto
          75 hlineto
          endchar
        </CharString>
        <CharString name="tbar">
          -253 -9 123 150 80 77 103 170 -20 hstem
          48 146 vstem
          18 264 rmoveto
          64 hlineto
          -31 -144 rlineto
          -2 -13 -1 -12 -12 vvcurveto
          -65 46 -27 62 54 59 17 19 40 vhcurveto
          -5 106 rlineto
          -7 -17 -30 -12 -25 hhcurveto
          -23 -15 10 26 6 0 7 3 11 hvcurveto
          19 90 rlineto
          105 hlineto
          17 80 rlineto
          -105 hlineto
          17 77 rlineto
          104 hlineto
          22 103 rlineto
          -104 hlineto
          36 170 -88 callsubr
          -36 -170 rlineto
          -65 hlineto
          -22 -103 rlineto
          65 hlineto
          -17 -77 rlineto
          -64 hlineto
          endchar
        </CharString>
        <CharString name="tcaron">
          -254 -9 123 307 103 206 -20 hstem
          47 145 vstem
          423 -47 callsubr
          -186 -620 -90 callgsubr
        </CharString>
        <CharString name="tdotbelow">
          -254 -31 callgsubr
          61 6 callsubr
          171 -54 callsubr
          105 187 -90 callgsubr
        </CharString>
        <CharString name="thorn">
          -50 -192 -21 189 121 321 121 171 -20 hstemhm
          168 241 0 138 hintmask 11110100
          -50 -213 rmoveto
          -12 callsubr
          18 82 33 158 0 vvcurveto
          -25 10 25 -26 64 hhcurveto
          182 128 191 155 110 -65 107 -127 -56 -38 -25 -31 -25 hvcurveto
          0 30 144 17 83 vhcurveto
          -137 hlineto
          112 -613 rmoveto
          hintmask 11111000
          -56 -34 37 31 5 1 2 1 4 hvcurveto
          34 160 rlineto
          46 32 39 36 47 hhcurveto
          57 30 -52 -69 -101 -62 -99 -89 hvcurveto
          endchar
        </CharString>
        <CharString name="three">
          -89 -147 122 206 100 179 116 hstemhm
          315 138 -89 89 -89 149 hintmask 11101000
          155 -147 rmoveto
          174 124 99 144 73 -37 55 -63 12 hvcurveto
          hintmask 11100100
          87 16 73 87 90 vvcurveto
          89 -71 58 -116 -98 -102 -41 -61 -52 vhcurveto
          64 -94 rlineto
          51 40 53 29 56 hhcurveto
          47 30 -22 -42 -65 -58 -50 -86 hvcurveto
          -30 hlineto
          -21 -100 rlineto
          27 hlineto
          hintmask 11110000
          81 38 -31 -54 -77 -48 -44 -92 -66 -38 25 44 -23 hvcurveto
          -95 -95 rlineto
          -62 37 68 -34 97 hhcurveto
          endchar
        </CharString>
        <CharString name="three.denominator">
          -235 -5 79 108 72 99 74 hstemhm
          241 80 -55 87 hintmask 11110000
          119 -5 22 callsubr
          hintmask 11101000
          -62 callgsubr
          hintmask 11110000
          -38 callgsubr
        </CharString>
        <CharString name="three.lnum">
          -66 -9 123 196 112 179 118 hstemhm
          405 91 -91 147 hintmask 11110000
          194 -9 rmoveto
          140 162 79 155 75 -39 60 -68 13 hvcurveto
          hintmask 11101000
          99 22 64 70 87 vvcurveto
          97 -79 70 -121 -87 -104 -37 -65 -58 vhcurveto
          66 -97 rlineto
          36 24 61 45 71 hhcurveto
          42 38 -21 -50 -72 -86 -36 -110 hvcurveto
          -32 hlineto
          -23 -112 rlineto
          31 hlineto
          112 60 -28 -61 -64 -68 -43 -75 -91 -29 63 41 -2 hvcurveto
          -90 -88 rlineto
          -89 13 69 -50 110 hhcurveto
          endchar
        </CharString>
        <CharString name="three.numerator">
          -235 298 81 107 73 98 74 hstemhm
          306 79 -55 55 -55 87 hintmask 11101000
          183 7 callsubr
          hintmask 11100100
          -63 callsubr
          hintmask 11110000
          -36 callsubr
          endchar
        </CharString>
        <CharString name="threeeighths">
          249 32 callsubr
          43 81 -34 76 65 73 98 74 hstemhm
          316 79 -55 55 -55 87 31 -1 callsubr
          hintmask 1011011010101000
          193 7 callsubr
          hintmask 1011011001101000
          -63 callsubr
          hintmask 0111011100101000
          -36 callsubr
          -42 -305 -88 callgsubr
          hintmask 1011011100101000
          500 -52 -26 callgsubr
          hintmask 1010111100010100
          -60 callgsubr
          hintmask 1011011100101000
          -80 callsubr
          hintmask 1010111100010100
          -54 callgsubr
          endchar
        </CharString>
        <CharString name="threeinferior">
          -235 -90 80 108 72 99 73 hstemhm
          223 80 -55 87 hintmask 11110000
          100 -90 rmoveto
          98 105 44 94 45 -29 37 -51 8 hvcurveto
          hintmask 11101000
          68 12 44 38 54 vvcurveto
          57 -57 43 -85 -63 -69 -21 33 callsubr
          30 30 37 20 51 hhcurveto
          32 37 -14 -27 -41 -58 -17 -82 hvcurveto
          -22 hlineto
          -15 -72 rlineto
          23 hlineto
          hintmask 11110000
          80 49 -16 -34 -38 -50 -20 -57 -69 -30 40 17 -1 hvcurveto
          -55 -58 rlineto
          -51 7 54 -28 78 hhcurveto
          endchar
        </CharString>
        <CharString name="threequarters">
          223 0 171 -157 -21 100 78 127 81 107 73 98 74 hstemhm
          315 79 -55 55 -55 87 hintmask 1001110100000000
          192 7 callsubr
          hintmask 1001110010000000
          -63 callsubr
          hintmask 1001111000000000
          -36 callsubr
          420 -298 rmoveto
          78 hlineto
          hintmask 0111111000000000
          -41 callgsubr
          hintmask 1001111000000000
          14 callsubr
          hintmask 0111111000000000
          -473 -178 -88 callgsubr
          endchar
        </CharString>
        <CharString name="threesuperior">
          -235 383 80 107 73 99 74 hstemhm
          324 79 -55 55 -55 87 hintmask 11101000
          204 383 rmoveto
          93 106 45 92 46 -28 37 -52 8 hvcurveto
          hintmask 11100100
          67 12 45 38 53 vvcurveto
          59 -56 43 -87 -61 -70 -22 33 callsubr
          30 30 38 20 49 hhcurveto
          35 35 -12 -30 -38 -58 -19 -82 37 callsubr
          hintmask 11110000
          82 48 -15 -35 -36 -53 -21 -52 -73 -26 38 20 -4 hvcurveto
          -55 -59 rlineto
          -50 22 46 -29 75 hhcurveto
          endchar
        </CharString>
        <CharString name="tilde">
          -208 602 78 -60 -21 48 33 -33 80 3 -20 hstemhm
          hintmask 01101000
          269 602 -90 callsubr
          hintmask 01010000
          -92 callgsubr
          hintmask 10001000
          -51 callgsubr
        </CharString>
        <CharString name="trademark">
          174 432 -21 214 87 -2 -20 hstemhm
          hintmask 11000000
          413 712 rmoveto
          -267 hlineto
          -19 -87 rlineto
          90 hlineto
          -45 -214 rlineto
          87 hlineto
          45 214 rlineto
          90 hlineto
          -2 -214 rmoveto
          87 hlineto
          40 187 29 -145 rlineto
          69 hlineto
          91 145 -40 -187 rlineto
          87 hlineto
          hintmask 10100000
          63 299 rlineto
          -129 hlineto
          -86 -157 -18 157 rlineto
          -129 hlineto
          endchar
        </CharString>
        <CharString name="two">
          -82 0 121 343 117 hstem
          367 152 vstem
          -26 hmoveto
          463 -69 callsubr
          -263 hlineto
          34 52 73 39 47 25 rrcurveto
          75 40 90 55 110 vvcurveto
          82 -60 57 -114 -114 -103 -57 -38 -44 vhcurveto
          64 -99 rlineto
          39 41 49 38 58 hhcurveto
          47 24 -27 -33 -60 -64 -22 -124 -63 hvcurveto
          -132 -67 -47 -73 -26 -119 rrcurveto
          endchar
        </CharString>
        <CharString name="two.denominator">
          -220 0 78 271 77 hstem
          280 92 vstem
          -33 hmoveto
          339 hlineto
          17 78 rlineto
          -210 hlineto
          7 31 30 30 66 21 rrcurveto
          89 28 67 39 94 vvcurveto
          65 -46 40 -87 28 callgsubr
          27 45 27 55 hhcurveto
          44 25 -16 -29 -60 -76 -19 -70 -27 hvcurveto
          -103 -40 -41 -49 -23 -109 rrcurveto
          endchar
        </CharString>
</ttFont>
